<svg width="25" height="24" viewBox="0 0 25 24" fill="none" xmlns="http://www.w3.org/2000/svg">
<g clip-path="url(#clip0_61_26)">
<path d="M12.301 2.34375e-05H12.394C14.636 2.34375e-05 16.734 0.613023 18.531 1.68002L18.476 1.64902C20.347 2.74302 21.862 4.25802 22.925 6.07102L22.956 6.12902C23.996 7.89802 24.61 10.025 24.61 12.295C24.61 17.701 21.127 22.295 16.283 23.953L16.196 23.979C16.133 23.999 16.061 24.01 15.987 24.01C15.825 24.01 15.675 23.956 15.554 23.866L15.556 23.867C15.428 23.752 15.348 23.586 15.348 23.401C15.348 23.396 15.348 23.391 15.348 23.387V23.388C15.348 23.356 15.3507 22.9474 15.356 22.162C15.3613 21.3767 15.364 20.6587 15.364 20.008C15.371 19.933 15.375 19.847 15.375 19.759C15.375 18.967 15.052 18.251 14.531 17.734C15.149 17.673 15.707 17.571 16.249 17.429L16.173 17.446C16.746 17.286 17.246 17.073 17.71 16.804L17.679 16.821C18.187 16.541 18.617 16.185 18.971 15.763L18.977 15.756C19.349 15.28 19.64 14.72 19.817 14.111L19.826 14.076C20.035 13.393 20.155 12.608 20.155 11.795C20.155 11.75 20.155 11.704 20.154 11.659V11.666C20.154 11.644 20.155 11.619 20.155 11.594C20.155 10.346 19.673 9.21102 18.886 8.36402L18.889 8.36702C19.057 7.92702 19.154 7.41902 19.154 6.88802C19.154 6.23902 19.009 5.62502 18.75 5.07402L18.761 5.10002C18.646 5.07802 18.515 5.06502 18.38 5.06502C18.046 5.06502 17.731 5.14302 17.451 5.28102L17.463 5.27602C16.895 5.48602 16.409 5.72402 15.951 6.00202L15.989 5.98002L15.38 6.36402C14.458 6.10002 13.399 5.94802 12.305 5.94802C11.211 5.94802 10.152 6.10002 9.148 6.38402L9.229 6.36402C9.05833 6.24669 8.83133 6.10236 8.548 5.93102C8.175 5.71702 7.734 5.51002 7.276 5.33602L7.21 5.31402C6.917 5.16002 6.57 5.07002 6.201 5.07002C6.077 5.07002 5.955 5.08002 5.837 5.10002L5.85 5.09802C5.602 5.62202 5.457 6.23702 5.457 6.88602C5.457 7.41702 5.554 7.92602 5.732 8.39502L5.722 8.36602C4.937 9.21002 4.456 10.345 4.456 11.593C4.456 11.618 4.456 11.644 4.457 11.669V11.665C4.456 11.704 4.456 11.749 4.456 11.795C4.456 12.604 4.576 13.386 4.8 14.122L4.785 14.065C4.974 14.708 5.261 15.267 5.635 15.758L5.626 15.745C5.98 16.18 6.408 16.538 6.893 16.807L6.915 16.818C7.347 17.07 7.848 17.283 8.375 17.432L8.421 17.443C8.887 17.568 9.445 17.67 10.016 17.727L10.062 17.731C9.631 18.159 9.344 18.731 9.278 19.369L9.277 19.381C9.07 19.482 8.829 19.564 8.578 19.617L8.557 19.621C8.301 19.672 8.008 19.701 7.707 19.701C7.685 19.701 7.663 19.701 7.641 19.701H7.644C7.25 19.693 6.888 19.565 6.589 19.353L6.595 19.357C6.224 19.098 5.924 18.762 5.714 18.371L5.707 18.356C5.509 18.02 5.248 17.742 4.939 17.529L4.93 17.523C4.705 17.354 4.44 17.222 4.154 17.143L4.138 17.139L3.818 17.091C3.795 17.089 3.768 17.088 3.741 17.088C3.601 17.088 3.468 17.116 3.347 17.165L3.354 17.162C3.26866 17.21 3.242 17.2714 3.274 17.346C3.313 17.432 3.361 17.506 3.419 17.571L3.418 17.57C3.479 17.642 3.548 17.705 3.623 17.76L3.626 17.762L3.738 17.842C4.021 17.99 4.254 18.196 4.431 18.445L4.435 18.451C4.626 18.688 4.794 18.956 4.929 19.243L4.939 19.267L5.099 19.635C5.234 20.037 5.479 20.373 5.799 20.616L5.804 20.62C6.104 20.854 6.466 21.022 6.861 21.098L6.877 21.1C7.207 21.164 7.591 21.204 7.983 21.212H7.99C8.035 21.214 8.087 21.214 8.14 21.214C8.401 21.214 8.657 21.193 8.907 21.152L8.88 21.156L9.248 21.092C9.248 21.498 9.25066 21.9707 9.256 22.51C9.26133 23.0494 9.264 23.3404 9.264 23.383V23.397C9.264 23.582 9.184 23.748 9.056 23.863C8.937 23.952 8.787 24.006 8.624 24.006C8.549 24.006 8.477 23.995 8.41 23.974L8.415 23.975C3.486 22.286 0.0059967 17.692 0.0059967 12.285C0.0059967 10.017 0.617997 7.89202 1.687 6.06602L1.655 6.12402C2.749 4.25302 4.264 2.73802 6.077 1.67502L6.135 1.64402C7.874 0.610023 9.97 -0.000976562 12.208 -0.000976562H12.306H12.301V2.34375e-05ZM4.661 17.666C4.693 17.5914 4.65566 17.5274 4.549 17.474C4.44233 17.442 4.373 17.4527 4.341 17.506C4.309 17.5807 4.34633 17.6447 4.453 17.698C4.549 17.762 4.61833 17.7514 4.661 17.666ZM5.158 18.211C5.23266 18.1577 5.222 18.0724 5.126 17.955C5.01933 17.859 4.934 17.843 4.87 17.907C4.79533 17.9604 4.806 18.0457 4.902 18.163C5.008 18.2677 5.09333 18.2834 5.158 18.21V18.211ZM5.638 18.931C5.734 18.8564 5.734 18.755 5.638 18.627C5.55266 18.4884 5.462 18.4564 5.366 18.531C5.27 18.5844 5.27 18.6804 5.366 18.819C5.462 18.9577 5.55266 18.995 5.638 18.931ZM6.31 19.604C6.39533 19.5187 6.374 19.4174 6.246 19.3C6.118 19.172 6.01133 19.156 5.926 19.252C5.83 19.3374 5.85133 19.4387 5.99 19.556C6.118 19.684 6.22466 19.6987 6.31 19.6V19.604ZM7.223 20.004C7.255 19.8867 7.18566 19.8014 7.015 19.748C6.855 19.7054 6.75366 19.7427 6.711 19.86C6.66833 19.9774 6.73766 20.0574 6.919 20.1C7.079 20.1647 7.18033 20.1327 7.223 20.004ZM8.232 20.084C8.232 19.9454 8.14133 19.8867 7.96 19.908C7.78933 19.908 7.704 19.9667 7.704 20.084C7.704 20.2227 7.79466 20.2814 7.976 20.26C8.14666 20.2607 8.232 20.2014 8.232 20.084ZM9.161 19.924C9.13966 19.8067 9.04366 19.7587 8.873 19.78C8.70233 19.812 8.62766 19.892 8.649 20.02C8.67033 20.148 8.76633 20.1907 8.937 20.148C9.10766 20.1054 9.18166 20.0307 9.161 19.924Z" fill="#5CE1E6"/>
</g>
<defs>
<clipPath id="clip0_61_26">
<rect width="25" height="24" fill="white"/>
</clipPath>
</defs>
</svg>
