<svg width="124" height="124" viewBox="0 0 124 124" fill="none" xmlns="http://www.w3.org/2000/svg">
<path d="M102.4 70.6998V99.1998C102.4 99.8998 101.8 100.5 101.1 100.5H86.4C85.7 100.5 85.1 99.8998 85.1 99.1998V72.6998C85.1 65.6998 82.6 60.8998 76.3 60.8998C71.5 60.8998 68.7 64.0998 67.4 67.1998C66.9 68.2998 66.8 69.8998 66.8 71.3998V99.1998C66.8 99.8998 66.2 100.5 65.5 100.5H50.9C50.2 100.5 49.6 99.8998 49.6 99.1998C49.6 92.0998 49.8 57.7998 49.6 49.7998C49.6 49.0998 50.2 48.4998 50.9 48.4998H65.6C66.3 48.4998 66.9 49.0998 66.9 49.7998V55.8998C66.9 55.9998 66.8 55.9998 66.8 56.0998H66.9V55.8998C69.2 52.3998 73.3 47.2998 82.5 47.2998C93.9 47.2998 102.4 54.7998 102.4 70.6998ZM24 100.6H38.7C39.4 100.6 40 99.9998 40 99.2998V49.7998C40 49.0998 39.4 48.4998 38.7 48.4998H24C23.3 48.4998 22.7 49.0998 22.7 49.7998V99.2998C22.8 99.9998 23.3 100.6 24 100.6Z" fill="#5CE1E6"/>
<path d="M30.9 41.9999C36.0363 41.9999 40.2 37.8362 40.2 32.6999C40.2 27.5637 36.0363 23.3999 30.9 23.3999C25.7638 23.3999 21.6 27.5637 21.6 32.6999C21.6 37.8362 25.7638 41.9999 30.9 41.9999Z" fill="#5CE1E6"/>
</svg>
