<svg width="18" height="16" viewBox="0 0 18 16" fill="none" xmlns="http://www.w3.org/2000/svg">
<path d="M13.114 5.29079C13.666 4.73879 14.214 3.45079 11.914 5.01479C9.76547 6.49347 7.60236 7.95087 5.42501 9.38679C5.09345 9.53671 4.735 9.61807 4.37121 9.62598C4.00741 9.63388 3.64577 9.56817 3.30801 9.43279C1.92801 9.01879 0.317009 8.46679 0.317009 8.46679C0.317009 8.46679 -0.782991 7.77579 1.10001 7.03979C1.10001 7.03979 9.06101 3.77279 11.822 2.62179C12.88 2.16179 16.469 0.689788 16.469 0.689788C16.469 0.689788 18.126 0.0447876 17.988 1.60979C17.942 2.25379 17.574 4.50979 17.206 6.94779C16.653 10.3988 16.055 14.1728 16.055 14.1728C16.055 14.1728 15.963 15.2308 15.181 15.4148C14.3439 15.4006 13.5351 15.1094 12.881 14.5868C12.697 14.4488 9.43001 12.3778 8.23301 11.3658C8.11125 11.2833 8.01233 11.1714 7.94545 11.0404C7.87857 10.9094 7.8459 10.7636 7.85049 10.6166C7.85508 10.4696 7.89678 10.3262 7.9717 10.1996C8.04662 10.0731 8.15234 9.96751 8.27901 9.89279C9.92076 8.39071 11.5327 6.85641 13.114 5.29079Z" fill="#5CE1E6"/>
</svg>
