<svg width="40" height="40" viewBox="0 0 40 40" fill="none" xmlns="http://www.w3.org/2000/svg">
<rect width="40" height="40" rx="20" fill="white"/>
<path d="M21.6942 20.0001C21.6942 23.7708 18.6637 26.8275 14.9256 26.8275C11.1875 26.8275 8.15674 23.7701 8.15674 20.0001C8.15674 16.23 11.1872 13.1724 14.9256 13.1724C18.6639 13.1724 21.6942 16.2293 21.6942 20.0001Z" fill="black"/>
<path d="M28.9627 20C28.9627 23.5493 27.4474 26.4278 25.5783 26.4278C23.7091 26.4278 22.1938 23.5493 22.1938 20C22.1938 16.4507 23.7089 13.5723 25.578 13.5723C27.4472 13.5723 28.9625 16.4498 28.9625 20" fill="black"/>
<path d="M31.8433 20C31.8433 23.1793 31.3104 25.7582 30.653 25.7582C29.9955 25.7582 29.4629 23.18 29.4629 20C29.4629 16.8199 29.9957 14.2417 30.653 14.2417C31.3102 14.2417 31.8433 16.8197 31.8433 20Z" fill="black"/>
</svg>
