<svg width="40" height="40" viewBox="0 0 40 40" fill="none" xmlns="http://www.w3.org/2000/svg">
<rect width="40" height="40" rx="20" fill="#FF0302"/>
<path d="M31.4982 14.1854C31.3625 13.6748 31.0951 13.2088 30.7227 12.8341C30.3503 12.4593 29.8861 12.1889 29.3764 12.05C27.5 11.5454 20 11.5454 20 11.5454C20 11.5454 12.5 11.5454 10.6236 12.05C10.1139 12.1889 9.64966 12.4593 9.27729 12.8341C8.90492 13.2088 8.63751 13.6748 8.50182 14.1854C8 16.07 8 20 8 20C8 20 8 23.93 8.50182 25.8145C8.63751 26.3251 8.90492 26.7911 9.27729 27.1658C9.64966 27.5406 10.1139 27.811 10.6236 27.95C12.5 28.4545 20 28.4545 20 28.4545C20 28.4545 27.5 28.4545 29.3764 27.95C29.8861 27.811 30.3503 27.5406 30.7227 27.1658C31.0951 26.7911 31.3625 26.3251 31.4982 25.8145C32 23.93 32 20 32 20C32 20 32 16.07 31.4982 14.1854Z" fill="white"/>
<path d="M17.3633 23.523V16.3857L23.636 19.9544L17.3633 23.523Z" fill="#FF0302"/>
</svg>
