<svg width="794" height="624" viewBox="0 0 794 624" fill="none" xmlns="http://www.w3.org/2000/svg">
<mask id="path-1-inside-1_32_269" fill="white">
<path d="M0 0H56.7143V56.7273H0V0Z"/>
<path d="M56.7143 0H113.428V56.7273H56.7143V0Z"/>
<path d="M113.428 0H170.143V56.7273H113.428V0Z"/>
<path d="M170.143 0H226.857V56.7273H170.143V0Z"/>
<path d="M226.857 0H283.572V56.7273H226.857V0Z"/>
<path d="M283.572 0H340.286V56.7273H283.572V0Z"/>
<path d="M340.286 0H397V56.7273H340.286V0Z"/>
<path d="M397 0H453.714V56.7273H397V0Z"/>
<path d="M453.714 0H510.428V56.7273H453.714V0Z"/>
<path d="M510.428 0H567.143V56.7273H510.428V0Z"/>
<path d="M567.143 0H623.857V56.7273H567.143V0Z"/>
<path d="M623.857 0H680.571V56.7273H623.857V0Z"/>
<path d="M680.571 0H737.286V56.7273H680.571V0Z"/>
<path d="M737.286 0H794V56.7273H737.286V0Z"/>
<path d="M0 56.7273H56.7143V113.455H0V56.7273Z"/>
<path d="M56.7143 56.7273H113.428L113.429 113.455H56.7143V56.7273Z"/>
<path d="M113.428 56.7273H170.143L170.143 113.455H113.429L113.428 56.7273Z"/>
<path d="M170.143 56.7273H226.857V113.455H170.143L170.143 56.7273Z"/>
<path d="M226.857 56.7273H283.572L283.571 113.455H226.857V56.7273Z"/>
<path d="M283.572 56.7273H340.286V113.455H283.571L283.572 56.7273Z"/>
<path d="M340.286 56.7273H397L397 113.455H340.286V56.7273Z"/>
<path d="M397 56.7273H453.714L453.714 113.455H397L397 56.7273Z"/>
<path d="M453.714 56.7273H510.428L510.429 113.455H453.714L453.714 56.7273Z"/>
<path d="M510.428 56.7273H567.143V113.455H510.429L510.428 56.7273Z"/>
<path d="M567.143 56.7273H623.857V113.455H567.143V56.7273Z"/>
<path d="M623.857 56.7273H680.571L680.571 113.455H623.857V56.7273Z"/>
<path d="M680.571 56.7273H737.286L737.286 113.455H680.571L680.571 56.7273Z"/>
<path d="M737.286 56.7273H794V113.455H737.286L737.286 56.7273Z"/>
<path d="M0 113.455H56.7143V170.182H0V113.455Z"/>
<path d="M56.7143 113.455H113.429V170.182H56.7143V113.455Z"/>
<path d="M113.429 113.455H170.143V170.182H113.429V113.455Z"/>
<path d="M170.143 113.455H226.857V170.182H170.143V113.455Z"/>
<path d="M226.857 113.455H283.571V170.182H226.857V113.455Z"/>
<path d="M283.571 113.455H340.286V170.182H283.571V113.455Z"/>
<path d="M340.286 113.455H397V170.182H340.286V113.455Z"/>
<path d="M397 113.455H453.714V170.182H397V113.455Z"/>
<path d="M453.714 113.455H510.429V170.182H453.714V113.455Z"/>
<path d="M510.429 113.455H567.143V170.182H510.429V113.455Z"/>
<path d="M567.143 113.455H623.857V170.182H567.143V113.455Z"/>
<path d="M623.857 113.455H680.571V170.182H623.857V113.455Z"/>
<path d="M680.571 113.455H737.286V170.182H680.571V113.455Z"/>
<path d="M737.286 113.455H794V170.182H737.286V113.455Z"/>
<path d="M0 170.182H56.7143V226.909H0V170.182Z"/>
<path d="M56.7143 170.182H113.429V226.909H56.7143V170.182Z"/>
<path d="M113.429 170.182H170.143V226.909H113.429V170.182Z"/>
<path d="M170.143 170.182H226.857V226.909H170.143V170.182Z"/>
<path d="M226.857 170.182H283.571V226.909H226.857V170.182Z"/>
<path d="M283.571 170.182H340.286V226.909H283.571V170.182Z"/>
<path d="M340.286 170.182H397V226.909H340.286V170.182Z"/>
<path d="M397 170.182H453.714V226.909H397V170.182Z"/>
<path d="M453.714 170.182H510.429V226.909H453.714V170.182Z"/>
<path d="M510.429 170.182H567.143V226.909H510.429V170.182Z"/>
<path d="M567.143 170.182H623.857V226.909H567.143V170.182Z"/>
<path d="M623.857 170.182H680.571V226.909H623.857V170.182Z"/>
<path d="M680.571 170.182H737.286V226.909H680.571V170.182Z"/>
<path d="M737.286 170.182H794V226.909H737.286V170.182Z"/>
<path d="M0 226.909H56.7143V283.636H0V226.909Z"/>
<path d="M56.7143 226.909H113.429V283.636H56.7143V226.909Z"/>
<path d="M113.429 226.909H170.143V283.636H113.429V226.909Z"/>
<path d="M170.143 226.909H226.857V283.636H170.143V226.909Z"/>
<path d="M226.857 226.909H283.571V283.636H226.857V226.909Z"/>
<path d="M283.571 226.909H340.286V283.636H283.571V226.909Z"/>
<path d="M340.286 226.909H397V283.636H340.286V226.909Z"/>
<path d="M397 226.909H453.714V283.636H397V226.909Z"/>
<path d="M453.714 226.909H510.429V283.636H453.714V226.909Z"/>
<path d="M510.429 226.909H567.143V283.636H510.429V226.909Z"/>
<path d="M567.143 226.909H623.857V283.636H567.143V226.909Z"/>
<path d="M623.857 226.909H680.571V283.636H623.857V226.909Z"/>
<path d="M680.571 226.909H737.286V283.636H680.571V226.909Z"/>
<path d="M737.286 226.909H794V283.636H737.286V226.909Z"/>
<path d="M0 283.636H56.7143V340.364H0V283.636Z"/>
<path d="M56.7143 283.636H113.429L113.429 340.364L56.7143 340.364V283.636Z"/>
<path d="M113.429 283.636H170.143L170.143 340.364H113.429L113.429 283.636Z"/>
<path d="M170.143 283.636H226.857V340.364H170.143L170.143 283.636Z"/>
<path d="M226.857 283.636H283.571L283.571 340.364H226.857V283.636Z"/>
<path d="M283.571 283.636H340.286V340.364L283.571 340.364L283.571 283.636Z"/>
<path d="M340.286 283.636H397L397 340.364L340.286 340.364V283.636Z"/>
<path d="M397 283.636H453.714L453.714 340.364H397L397 283.636Z"/>
<path d="M453.714 283.636H510.429L510.428 340.364H453.714L453.714 283.636Z"/>
<path d="M510.429 283.636H567.143V340.364L510.428 340.364L510.429 283.636Z"/>
<path d="M567.143 283.636H623.857V340.364L567.143 340.364V283.636Z"/>
<path d="M623.857 283.636H680.571L680.571 340.364H623.857V283.636Z"/>
<path d="M680.571 283.636H737.286L737.286 340.364H680.571L680.571 283.636Z"/>
<path d="M737.286 283.636H794V340.364L737.286 340.364L737.286 283.636Z"/>
<path d="M0 340.364H56.7143V397.091H0V340.364Z"/>
<path d="M56.7143 340.364L113.429 340.364V397.091L56.7143 397.091V340.364Z"/>
<path d="M113.429 340.364H170.143V397.091H113.429V340.364Z"/>
<path d="M170.143 340.364H226.857V397.091H170.143V340.364Z"/>
<path d="M226.857 340.364H283.571V397.091H226.857V340.364Z"/>
<path d="M283.571 340.364L340.286 340.364V397.091L283.571 397.091V340.364Z"/>
<path d="M340.286 340.364L397 340.364V397.091L340.286 397.091V340.364Z"/>
<path d="M397 340.364H453.714V397.091H397V340.364Z"/>
<path d="M453.714 340.364H510.428V397.091H453.714V340.364Z"/>
<path d="M510.428 340.364L567.143 340.364V397.091L510.428 397.091V340.364Z"/>
<path d="M567.143 340.364L623.857 340.364V397.091L567.143 397.091V340.364Z"/>
<path d="M623.857 340.364H680.571V397.091H623.857V340.364Z"/>
<path d="M680.571 340.364H737.286V397.091H680.571V340.364Z"/>
<path d="M737.286 340.364L794 340.364V397.091L737.286 397.091V340.364Z"/>
<path d="M0 397.091H56.7143V453.818H0V397.091Z"/>
<path d="M56.7143 397.091L113.429 397.091L113.429 453.818H56.7143V397.091Z"/>
<path d="M113.429 397.091H170.143L170.143 453.818H113.429L113.429 397.091Z"/>
<path d="M170.143 397.091H226.857V453.818H170.143L170.143 397.091Z"/>
<path d="M226.857 397.091H283.571L283.571 453.818H226.857V397.091Z"/>
<path d="M283.571 397.091L340.286 397.091V453.818H283.571L283.571 397.091Z"/>
<path d="M340.286 397.091L397 397.091L397 453.818H340.286V397.091Z"/>
<path d="M397 397.091H453.714L453.714 453.818H397L397 397.091Z"/>
<path d="M453.714 397.091H510.428L510.429 453.818H453.714L453.714 397.091Z"/>
<path d="M510.428 397.091L567.143 397.091V453.818H510.429L510.428 397.091Z"/>
<path d="M567.143 397.091L623.857 397.091V453.818H567.143V397.091Z"/>
<path d="M623.857 397.091H680.571L680.571 453.818H623.857V397.091Z"/>
<path d="M680.571 397.091H737.286L737.286 453.818H680.571L680.571 397.091Z"/>
<path d="M737.286 397.091L794 397.091V453.818H737.286L737.286 397.091Z"/>
<path d="M0 453.818H56.7143V510.545H0V453.818Z"/>
<path d="M56.7143 453.818H113.429V510.545H56.7143V453.818Z"/>
<path d="M113.429 453.818H170.143V510.545H113.429V453.818Z"/>
<path d="M170.143 453.818H226.857V510.545H170.143V453.818Z"/>
<path d="M226.857 453.818H283.571V510.545H226.857V453.818Z"/>
<path d="M283.571 453.818H340.286V510.545H283.571V453.818Z"/>
<path d="M340.286 453.818H397V510.545H340.286V453.818Z"/>
<path d="M397 453.818H453.714V510.545H397V453.818Z"/>
<path d="M453.714 453.818H510.429V510.545H453.714V453.818Z"/>
<path d="M510.429 453.818H567.143V510.545H510.429V453.818Z"/>
<path d="M567.143 453.818H623.857V510.545H567.143V453.818Z"/>
<path d="M623.857 453.818H680.571V510.545H623.857V453.818Z"/>
<path d="M680.571 453.818H737.286V510.545H680.571V453.818Z"/>
<path d="M737.286 453.818H794V510.545H737.286V453.818Z"/>
<path d="M0 510.545H56.7143V567.273H0V510.545Z"/>
<path d="M56.7143 510.545H113.429V567.273H56.7143V510.545Z"/>
<path d="M113.429 510.545H170.143V567.273H113.429V510.545Z"/>
<path d="M170.143 510.545H226.857V567.273H170.143V510.545Z"/>
<path d="M226.857 510.545H283.571V567.273H226.857V510.545Z"/>
<path d="M283.571 510.545H340.286V567.273H283.571V510.545Z"/>
<path d="M340.286 510.545H397V567.273H340.286V510.545Z"/>
<path d="M397 510.545H453.714V567.273H397V510.545Z"/>
<path d="M453.714 510.545H510.429V567.273H453.714V510.545Z"/>
<path d="M510.429 510.545H567.143V567.273H510.429V510.545Z"/>
<path d="M567.143 510.545H623.857V567.273H567.143V510.545Z"/>
<path d="M623.857 510.545H680.571V567.273H623.857V510.545Z"/>
<path d="M680.571 510.545H737.286V567.273H680.571V510.545Z"/>
<path d="M737.286 510.545H794V567.273H737.286V510.545Z"/>
<path d="M0 567.273H56.7143V624H0V567.273Z"/>
<path d="M56.7143 567.273H113.429V624H56.7143V567.273Z"/>
<path d="M113.429 567.273H170.143V624H113.429V567.273Z"/>
<path d="M170.143 567.273H226.857V624H170.143V567.273Z"/>
<path d="M226.857 567.273H283.571V624H226.857V567.273Z"/>
<path d="M283.571 567.273H340.286V624H283.571V567.273Z"/>
<path d="M340.286 567.273H397V624H340.286V567.273Z"/>
<path d="M397 567.273H453.714V624H397V567.273Z"/>
<path d="M453.714 567.273H510.429V624H453.714V567.273Z"/>
<path d="M510.429 567.273H567.143V624H510.429V567.273Z"/>
<path d="M567.143 567.273H623.857V624H567.143V567.273Z"/>
<path d="M623.857 567.273H680.571V624H623.857V567.273Z"/>
<path d="M680.571 567.273H737.286V624H680.571V567.273Z"/>
<path d="M737.286 567.273H794V624H737.286V567.273Z"/>
</mask>
<path d="M56.2143 0V56.7273H57.2143V0H56.2143ZM56.7143 56.2273H0V57.2273H56.7143V56.2273ZM112.928 0V56.7273H113.928V0H112.928ZM113.428 56.2273H56.7143V57.2273H113.428V56.2273ZM169.643 0V56.7273H170.643V0H169.643ZM170.143 56.2273H113.428V57.2273H170.143V56.2273ZM226.357 0V56.7273H227.357V0H226.357ZM226.857 56.2273H170.143V57.2273H226.857V56.2273ZM283.072 0V56.7273H284.072V0H283.072ZM283.572 56.2273H226.857V57.2273H283.572V56.2273ZM339.786 0V56.7273H340.786V0H339.786ZM340.286 56.2273H283.572V57.2273H340.286V56.2273ZM396.5 0V56.7273H397.5V0H396.5ZM397 56.2273H340.286V57.2273H397V56.2273ZM453.214 0V56.7273H454.214V0H453.214ZM453.714 56.2273H397V57.2273H453.714V56.2273ZM509.928 0V56.7273H510.928V0H509.928ZM510.428 56.2273H453.714V57.2273H510.428V56.2273ZM566.643 0V56.7273H567.643V0H566.643ZM567.143 56.2273H510.428V57.2273H567.143V56.2273ZM623.357 0V56.7273H624.357V0H623.357ZM623.857 56.2273H567.143V57.2273H623.857V56.2273ZM680.071 0V56.7273H681.071V0H680.071ZM680.571 56.2273H623.857V57.2273H680.571V56.2273ZM736.786 0V56.7273H737.786V0H736.786ZM737.286 56.2273H680.571V57.2273H737.286V56.2273ZM794 56.2273H737.286V57.2273H794V56.2273ZM56.2143 56.7273V113.455H57.2143V56.7273H56.2143ZM56.7143 112.955H0V113.955H56.7143V112.955ZM112.928 56.7273L112.929 113.455L113.929 113.455L113.928 56.7273L112.928 56.7273ZM113.429 112.955H56.7143V113.955H113.429V112.955ZM169.643 56.7273L169.643 113.455L170.643 113.455L170.643 56.7273L169.643 56.7273ZM170.143 112.955H113.429V113.955H170.143V112.955ZM226.357 56.7273V113.455H227.357V56.7273H226.357ZM226.857 112.955H170.143V113.955H226.857V112.955ZM283.072 56.7273L283.071 113.455L284.071 113.455L284.072 56.7273L283.072 56.7273ZM283.571 112.955H226.857V113.955H283.571V112.955ZM339.786 56.7273V113.455H340.786V56.7273H339.786ZM340.286 112.955H283.571V113.955H340.286V112.955ZM396.5 56.7273L396.5 113.455L397.5 113.455L397.5 56.7273L396.5 56.7273ZM397 112.955H340.286V113.955H397V112.955ZM453.214 56.7273L453.214 113.455L454.214 113.455L454.214 56.7273L453.214 56.7273ZM453.714 112.955H397V113.955H453.714V112.955ZM509.928 56.7273L509.929 113.455L510.929 113.455L510.928 56.7273L509.928 56.7273ZM510.429 112.955H453.714V113.955H510.429V112.955ZM566.643 56.7273V113.455H567.643V56.7273H566.643ZM567.143 112.955H510.429V113.955H567.143V112.955ZM623.357 56.7273V113.455H624.357V56.7273H623.357ZM623.857 112.955H567.143V113.955H623.857V112.955ZM680.071 56.7273L680.071 113.455L681.071 113.455L681.071 56.7273L680.071 56.7273ZM680.571 112.955H623.857V113.955H680.571V112.955ZM736.786 56.7273L736.786 113.455L737.786 113.455L737.786 56.7273L736.786 56.7273ZM737.286 112.955H680.571V113.955H737.286V112.955ZM794 112.955H737.286V113.955H794V112.955ZM56.2143 113.455V170.182H57.2143V113.455H56.2143ZM56.7143 169.682H0V170.682H56.7143V169.682ZM112.929 113.455V170.182H113.929V113.455H112.929ZM113.429 169.682H56.7143V170.682H113.429V169.682ZM169.643 113.455V170.182H170.643V113.455H169.643ZM170.143 169.682H113.429V170.682H170.143V169.682ZM226.357 113.455V170.182H227.357V113.455H226.357ZM226.857 169.682H170.143V170.682H226.857V169.682ZM283.071 113.455V170.182H284.071V113.455H283.071ZM283.571 169.682H226.857V170.682H283.571V169.682ZM339.786 113.455V170.182H340.786V113.455H339.786ZM340.286 169.682H283.571V170.682H340.286V169.682ZM396.5 113.455V170.182H397.5V113.455H396.5ZM397 169.682H340.286V170.682H397V169.682ZM453.214 113.455V170.182H454.214V113.455H453.214ZM453.714 169.682H397V170.682H453.714V169.682ZM509.929 113.455V170.182H510.929V113.455H509.929ZM510.429 169.682H453.714V170.682H510.429V169.682ZM566.643 113.455V170.182H567.643V113.455H566.643ZM567.143 169.682H510.429V170.682H567.143V169.682ZM623.357 113.455V170.182H624.357V113.455H623.357ZM623.857 169.682H567.143V170.682H623.857V169.682ZM680.071 113.455V170.182H681.071V113.455H680.071ZM680.571 169.682H623.857V170.682H680.571V169.682ZM736.786 113.455V170.182H737.786V113.455H736.786ZM737.286 169.682H680.571V170.682H737.286V169.682ZM794 169.682H737.286V170.682H794V169.682ZM56.2143 170.182V226.909H57.2143V170.182H56.2143ZM56.7143 226.409H0V227.409H56.7143V226.409ZM112.929 170.182V226.909H113.929V170.182H112.929ZM113.429 226.409H56.7143V227.409H113.429V226.409ZM169.643 170.182V226.909H170.643V170.182H169.643ZM170.143 226.409H113.429V227.409H170.143V226.409ZM226.357 170.182V226.909H227.357V170.182H226.357ZM226.857 226.409H170.143V227.409H226.857V226.409ZM283.071 170.182V226.909H284.071V170.182H283.071ZM283.571 226.409H226.857V227.409H283.571V226.409ZM339.786 170.182V226.909H340.786V170.182H339.786ZM340.286 226.409H283.571V227.409H340.286V226.409ZM396.5 170.182V226.909H397.5V170.182H396.5ZM397 226.409H340.286V227.409H397V226.409ZM453.214 170.182V226.909H454.214V170.182H453.214ZM453.714 226.409H397V227.409H453.714V226.409ZM509.929 170.182V226.909H510.929V170.182H509.929ZM510.429 226.409H453.714V227.409H510.429V226.409ZM566.643 170.182V226.909H567.643V170.182H566.643ZM567.143 226.409H510.429V227.409H567.143V226.409ZM623.357 170.182V226.909H624.357V170.182H623.357ZM623.857 226.409H567.143V227.409H623.857V226.409ZM680.071 170.182V226.909H681.071V170.182H680.071ZM680.571 226.409H623.857V227.409H680.571V226.409ZM736.786 170.182V226.909H737.786V170.182H736.786ZM737.286 226.409H680.571V227.409H737.286V226.409ZM794 226.409H737.286V227.409H794V226.409ZM56.2143 226.909V283.636H57.2143V226.909H56.2143ZM56.7143 283.136H0V284.136H56.7143V283.136ZM112.929 226.909V283.636H113.929V226.909H112.929ZM113.429 283.136H56.7143V284.136H113.429V283.136ZM169.643 226.909V283.636H170.643V226.909H169.643ZM170.143 283.136H113.429V284.136H170.143V283.136ZM226.357 226.909V283.636H227.357V226.909H226.357ZM226.857 283.136H170.143V284.136H226.857V283.136ZM283.071 226.909V283.636H284.071V226.909H283.071ZM283.571 283.136H226.857V284.136H283.571V283.136ZM339.786 226.909V283.636H340.786V226.909H339.786ZM340.286 283.136H283.571V284.136H340.286V283.136ZM396.5 226.909V283.636H397.5V226.909H396.5ZM397 283.136H340.286V284.136H397V283.136ZM453.214 226.909V283.636H454.214V226.909H453.214ZM453.714 283.136H397V284.136H453.714V283.136ZM509.929 226.909V283.636H510.929V226.909H509.929ZM510.429 283.136H453.714V284.136H510.429V283.136ZM566.643 226.909V283.636H567.643V226.909H566.643ZM567.143 283.136H510.429V284.136H567.143V283.136ZM623.357 226.909V283.636H624.357V226.909H623.357ZM623.857 283.136H567.143V284.136H623.857V283.136ZM680.071 226.909V283.636H681.071V226.909H680.071ZM680.571 283.136H623.857V284.136H680.571V283.136ZM736.786 226.909V283.636H737.786V226.909H736.786ZM737.286 283.136H680.571V284.136H737.286V283.136ZM794 283.136H737.286V284.136H794V283.136ZM56.2143 283.636V340.364H57.2143V283.636H56.2143ZM56.7143 339.864H0V340.864H56.7143V339.864ZM112.929 283.636L112.929 340.364L113.929 340.364L113.929 283.636L112.929 283.636ZM113.429 339.864L56.7143 339.864L56.7143 340.864L113.429 340.864L113.429 339.864ZM169.643 283.636L169.643 340.364L170.643 340.364L170.643 283.636L169.643 283.636ZM170.143 339.864H113.429V340.864H170.143V339.864ZM226.357 283.636V340.364H227.357V283.636H226.357ZM226.857 339.864H170.143V340.864H226.857V339.864ZM283.071 283.636L283.071 340.364L284.071 340.364L284.071 283.636L283.071 283.636ZM283.571 339.864H226.857V340.864H283.571V339.864ZM339.786 283.636V340.364H340.786V283.636H339.786ZM340.286 339.864L283.571 339.864L283.571 340.864L340.286 340.864L340.286 339.864ZM396.5 283.636L396.5 340.364L397.5 340.364L397.5 283.636L396.5 283.636ZM397 339.864L340.286 339.864L340.286 340.864L397 340.864L397 339.864ZM453.214 283.636L453.214 340.364L454.214 340.364L454.214 283.636L453.214 283.636ZM453.714 339.864H397V340.864H453.714V339.864ZM509.929 283.636L509.928 340.364L510.928 340.364L510.929 283.636L509.929 283.636ZM510.428 339.864H453.714V340.864H510.428V339.864ZM566.643 283.636V340.364H567.643V283.636H566.643ZM567.143 339.864L510.428 339.864L510.428 340.864L567.143 340.864L567.143 339.864ZM623.357 283.636V340.364H624.357V283.636H623.357ZM623.857 339.864L567.143 339.864L567.143 340.864L623.857 340.864L623.857 339.864ZM680.071 283.636L680.071 340.364L681.071 340.364L681.071 283.636L680.071 283.636ZM680.571 339.864H623.857V340.864H680.571V339.864ZM736.786 283.636L736.786 340.364L737.786 340.364L737.786 283.636L736.786 283.636ZM737.286 339.864H680.571V340.864H737.286V339.864ZM794 339.864L737.286 339.864L737.286 340.864L794 340.864L794 339.864ZM56.2143 340.364V397.091H57.2143V340.364H56.2143ZM56.7143 396.591H0V397.591H56.7143V396.591ZM112.929 340.364V397.091H113.929V340.364H112.929ZM113.429 396.591L56.7143 396.591L56.7143 397.591L113.429 397.591L113.429 396.591ZM169.643 340.364V397.091H170.643V340.364H169.643ZM170.143 396.591H113.429V397.591H170.143V396.591ZM226.357 340.364V397.091H227.357V340.364H226.357ZM226.857 396.591H170.143V397.591H226.857V396.591ZM283.071 340.364V397.091H284.071V340.364H283.071ZM283.571 396.591H226.857V397.591H283.571V396.591ZM339.786 340.364V397.091H340.786V340.364H339.786ZM340.286 396.591L283.571 396.591L283.571 397.591L340.286 397.591L340.286 396.591ZM396.5 340.364V397.091H397.5V340.364H396.5ZM397 396.591L340.286 396.591L340.286 397.591L397 397.591L397 396.591ZM453.214 340.364V397.091H454.214V340.364H453.214ZM453.714 396.591H397V397.591H453.714V396.591ZM509.928 340.364V397.091H510.928V340.364H509.928ZM510.428 396.591H453.714V397.591H510.428V396.591ZM566.643 340.364V397.091H567.643V340.364H566.643ZM567.143 396.591L510.428 396.591L510.428 397.591L567.143 397.591L567.143 396.591ZM623.357 340.364V397.091H624.357V340.364H623.357ZM623.857 396.591L567.143 396.591L567.143 397.591L623.857 397.591L623.857 396.591ZM680.071 340.364V397.091H681.071V340.364H680.071ZM680.571 396.591H623.857V397.591H680.571V396.591ZM736.786 340.364V397.091H737.786V340.364H736.786ZM737.286 396.591H680.571V397.591H737.286V396.591ZM794 396.591L737.286 396.591L737.286 397.591L794 397.591L794 396.591ZM56.2143 397.091V453.818H57.2143V397.091H56.2143ZM56.7143 453.318H0V454.318H56.7143V453.318ZM112.929 397.091L112.929 453.818L113.929 453.818L113.929 397.091L112.929 397.091ZM113.429 453.318H56.7143V454.318H113.429V453.318ZM169.643 397.091L169.643 453.818L170.643 453.818L170.643 397.091L169.643 397.091ZM170.143 453.318H113.429V454.318H170.143V453.318ZM226.357 397.091V453.818H227.357V397.091H226.357ZM226.857 453.318H170.143V454.318H226.857V453.318ZM283.071 397.091L283.071 453.818L284.071 453.818L284.071 397.091L283.071 397.091ZM283.571 453.318H226.857V454.318H283.571V453.318ZM339.786 397.091V453.818H340.786V397.091H339.786ZM340.286 453.318H283.571V454.318H340.286V453.318ZM396.5 397.091L396.5 453.818L397.5 453.818L397.5 397.091L396.5 397.091ZM397 453.318H340.286V454.318H397V453.318ZM453.214 397.091L453.214 453.818L454.214 453.818L454.214 397.091L453.214 397.091ZM453.714 453.318H397V454.318H453.714V453.318ZM509.928 397.091L509.929 453.818L510.929 453.818L510.928 397.091L509.928 397.091ZM510.429 453.318H453.714V454.318H510.429V453.318ZM566.643 397.091V453.818H567.643V397.091H566.643ZM567.143 453.318H510.429V454.318H567.143V453.318ZM623.357 397.091V453.818H624.357V397.091H623.357ZM623.857 453.318H567.143V454.318H623.857V453.318ZM680.071 397.091L680.071 453.818L681.071 453.818L681.071 397.091L680.071 397.091ZM680.571 453.318H623.857V454.318H680.571V453.318ZM736.786 397.091L736.786 453.818L737.786 453.818L737.786 397.091L736.786 397.091ZM737.286 453.318H680.571V454.318H737.286V453.318ZM794 453.318H737.286V454.318H794V453.318ZM56.2143 453.818V510.545H57.2143V453.818H56.2143ZM56.7143 510.045H0V511.045H56.7143V510.045ZM112.929 453.818V510.545H113.929V453.818H112.929ZM113.429 510.045H56.7143V511.045H113.429V510.045ZM169.643 453.818V510.545H170.643V453.818H169.643ZM170.143 510.045H113.429V511.045H170.143V510.045ZM226.357 453.818V510.545H227.357V453.818H226.357ZM226.857 510.045H170.143V511.045H226.857V510.045ZM283.071 453.818V510.545H284.071V453.818H283.071ZM283.571 510.045H226.857V511.045H283.571V510.045ZM339.786 453.818V510.545H340.786V453.818H339.786ZM340.286 510.045H283.571V511.045H340.286V510.045ZM396.5 453.818V510.545H397.5V453.818H396.5ZM397 510.045H340.286V511.045H397V510.045ZM453.214 453.818V510.545H454.214V453.818H453.214ZM453.714 510.045H397V511.045H453.714V510.045ZM509.929 453.818V510.545H510.929V453.818H509.929ZM510.429 510.045H453.714V511.045H510.429V510.045ZM566.643 453.818V510.545H567.643V453.818H566.643ZM567.143 510.045H510.429V511.045H567.143V510.045ZM623.357 453.818V510.545H624.357V453.818H623.357ZM623.857 510.045H567.143V511.045H623.857V510.045ZM680.071 453.818V510.545H681.071V453.818H680.071ZM680.571 510.045H623.857V511.045H680.571V510.045ZM736.786 453.818V510.545H737.786V453.818H736.786ZM737.286 510.045H680.571V511.045H737.286V510.045ZM794 510.045H737.286V511.045H794V510.045ZM56.2143 510.545V567.273H57.2143V510.545H56.2143ZM56.7143 566.773H0V567.773H56.7143V566.773ZM112.929 510.545V567.273H113.929V510.545H112.929ZM113.429 566.773H56.7143V567.773H113.429V566.773ZM169.643 510.545V567.273H170.643V510.545H169.643ZM170.143 566.773H113.429V567.773H170.143V566.773ZM226.357 510.545V567.273H227.357V510.545H226.357ZM226.857 566.773H170.143V567.773H226.857V566.773ZM283.071 510.545V567.273H284.071V510.545H283.071ZM283.571 566.773H226.857V567.773H283.571V566.773ZM339.786 510.545V567.273H340.786V510.545H339.786ZM340.286 566.773H283.571V567.773H340.286V566.773ZM396.5 510.545V567.273H397.5V510.545H396.5ZM397 566.773H340.286V567.773H397V566.773ZM453.214 510.545V567.273H454.214V510.545H453.214ZM453.714 566.773H397V567.773H453.714V566.773ZM509.929 510.545V567.273H510.929V510.545H509.929ZM510.429 566.773H453.714V567.773H510.429V566.773ZM566.643 510.545V567.273H567.643V510.545H566.643ZM567.143 566.773H510.429V567.773H567.143V566.773ZM623.357 510.545V567.273H624.357V510.545H623.357ZM623.857 566.773H567.143V567.773H623.857V566.773ZM680.071 510.545V567.273H681.071V510.545H680.071ZM680.571 566.773H623.857V567.773H680.571V566.773ZM736.786 510.545V567.273H737.786V510.545H736.786ZM737.286 566.773H680.571V567.773H737.286V566.773ZM794 566.773H737.286V567.773H794V566.773ZM56.2143 567.273V624H57.2143V567.273H56.2143ZM112.929 567.273V624H113.929V567.273H112.929ZM169.643 567.273V624H170.643V567.273H169.643ZM226.357 567.273V624H227.357V567.273H226.357ZM283.071 567.273V624H284.071V567.273H283.071ZM339.786 567.273V624H340.786V567.273H339.786ZM396.5 567.273V624H397.5V567.273H396.5ZM453.214 567.273V624H454.214V567.273H453.214ZM509.929 567.273V624H510.929V567.273H509.929ZM566.643 567.273V624H567.643V567.273H566.643ZM623.357 567.273V624H624.357V567.273H623.357ZM680.071 567.273V624H681.071V567.273H680.071ZM736.786 567.273V624H737.786V567.273H736.786ZM0 0V-1H-1V0H0ZM794 0H795V-1H794V0ZM0 624H-1V625H0V624ZM794 624V625H795V624H794ZM0 1H56.7143V-1H0V1ZM1 56.7273V0H-1V56.7273H1ZM56.7143 1H113.428V-1H56.7143V1ZM113.428 1H170.143V-1H113.428V1ZM170.143 1H226.857V-1H170.143V1ZM226.857 1H283.572V-1H226.857V1ZM283.572 1H340.286V-1H283.572V1ZM340.286 1H397V-1H340.286V1ZM397 1H453.714V-1H397V1ZM453.714 1H510.428V-1H453.714V1ZM510.428 1H567.143V-1H510.428V1ZM567.143 1H623.857V-1H567.143V1ZM623.857 1H680.571V-1H623.857V1ZM680.571 1H737.286V-1H680.571V1ZM737.286 1H794V-1H737.286V1ZM793 0V56.7273H795V0H793ZM1 113.455V56.7273H-1V113.455H1ZM793 56.7273V113.455H795V56.7273H793ZM1 170.182V113.455H-1V170.182H1ZM793 113.455V170.182H795V113.455H793ZM1 226.909V170.182H-1V226.909H1ZM793 170.182V226.909H795V170.182H793ZM1 283.636V226.909H-1V283.636H1ZM793 226.909V283.636H795V226.909H793ZM1 340.364V283.636H-1V340.364H1ZM793 283.636V340.364H795V283.636H793ZM1 397.091V340.364H-1V397.091H1ZM793 340.364V397.091H795V340.364H793ZM1 453.818V397.091H-1V453.818H1ZM793 397.091V453.818H795V397.091H793ZM1 510.545V453.818H-1V510.545H1ZM793 453.818V510.545H795V453.818H793ZM1 567.273V510.545H-1V567.273H1ZM793 510.545V567.273H795V510.545H793ZM56.7143 623H0V625H56.7143V623ZM1 624V567.273H-1V624H1ZM113.429 623H56.7143V625H113.429V623ZM170.143 623H113.429V625H170.143V623ZM226.857 623H170.143V625H226.857V623ZM283.571 623H226.857V625H283.571V623ZM340.286 623H283.571V625H340.286V623ZM397 623H340.286V625H397V623ZM453.714 623H397V625H453.714V623ZM510.429 623H453.714V625H510.429V623ZM567.143 623H510.429V625H567.143V623ZM623.857 623H567.143V625H623.857V623ZM680.571 623H623.857V625H680.571V623ZM737.286 623H680.571V625H737.286V623ZM793 567.273V624H795V567.273H793ZM794 623H737.286V625H794V623Z" fill="url(#paint0_radial_32_269)" fill-opacity="0.02" mask="url(#path-1-inside-1_32_269)"/>
<defs>
<radialGradient id="paint0_radial_32_269" cx="0" cy="0" r="1" gradientUnits="userSpaceOnUse" gradientTransform="translate(415.5 420.5) rotate(-93.4541) scale(307.058 390.711)">
<stop stop-color="white"/>
<stop offset="1" stop-color="white" stop-opacity="0"/>
</radialGradient>
</defs>
</svg>
