<svg width="81" height="81" viewBox="0 0 81 81" fill="none" xmlns="http://www.w3.org/2000/svg">
<path d="M44.72 52.924C44.5264 50.652 43.6719 48.4862 42.262 46.694L46.906 41.209C48.7072 42.2531 50.7521 42.8029 52.834 42.803C56.329 42.803 59.623 41.274 61.858 38.619L71.605 27.006C73.3822 24.8936 74.3583 22.2226 74.362 19.462C74.362 15.966 72.832 12.672 70.161 10.437L65.001 6.11803C63.8261 5.12315 62.467 4.36916 61.001 3.89903C60.109 3.63203 59.153 4.13503 58.883 5.00803C58.868 5.05603 58.863 5.10503 58.852 5.15403C58.767 5.53203 58.807 5.92903 59 6.28703C59.202 6.68903 59.555 6.97503 59.975 7.10903C59.993 7.10903 59.993 7.12703 60.009 7.12703C61.0444 7.45503 62.0041 7.98603 62.832 8.68903L67.992 13.009C68.9372 13.7971 69.6969 14.7841 70.2168 15.8995C70.7367 17.015 71.0042 18.2314 71 19.462C71.0017 21.4357 70.3053 23.3463 69.034 24.856L59.287 36.451C58.495 37.391 57.5066 38.146 56.3913 38.663C55.2761 39.1799 54.0612 39.4462 52.832 39.443C51.548 39.4419 50.2812 39.1477 49.128 38.583L51.419 35.877C51.8779 36.0122 52.3536 36.0812 52.832 36.082C53.5684 36.0801 54.2956 35.9182 54.9632 35.6075C55.6309 35.2969 56.2231 34.845 56.699 34.283L66.446 22.688C67.3032 21.6616 67.719 20.3374 67.6024 19.0051C67.4858 17.6729 66.8464 16.4411 65.824 15.579L60.664 11.261C58.614 9.54603 55.253 9.83103 53.538 11.881L43.807 23.478C43.048 24.3883 42.6323 25.5359 42.632 26.721C42.626 27.7476 42.941 28.7503 43.533 29.589L41.312 32.212C39.9831 30.6853 39.2517 28.7291 39.253 26.705C39.253 24.706 39.942 22.84 41.219 21.327L49.991 10.874C50.2748 10.5349 50.4129 10.0972 50.3752 9.65661C50.3376 9.21599 50.1272 8.80814 49.79 8.52203L49.789 8.52103C49.1 7.93403 47.99 8.03503 47.42 8.72303L38.648 19.159C36.8671 21.27 35.8907 23.9432 35.892 26.705C35.8859 29.7195 37.0395 32.6209 39.114 34.808L34.668 40.06C29.719 36.522 22.775 37.324 18.794 42.058L9.052 53.651C8.05441 54.8327 7.30128 56.2006 6.83626 57.6755C6.37124 59.1504 6.20358 60.7029 6.343 62.243C6.47309 63.7844 6.90788 65.2846 7.62216 66.6567C8.33643 68.0288 9.31598 69.2454 10.504 70.236L15.665 74.559C17.7842 76.3375 20.4634 77.3103 23.23 77.306C26.596 77.306 29.938 75.878 32.267 73.109L42.012 61.513C43.0095 60.3319 43.7625 58.9645 44.2273 57.4901C44.6922 56.0157 44.8597 54.4637 44.72 52.924ZM17.826 71.979L12.665 67.656C11.8164 66.9483 11.1168 66.0791 10.6066 65.0989C10.0965 64.1188 9.78593 63.0471 9.693 61.946C9.59373 60.8463 9.71354 59.7379 10.0455 58.6848C10.3775 57.6318 10.915 56.655 11.627 55.811L21.369 44.218C22.161 43.2761 23.1498 42.5193 24.266 42.0009C25.3821 41.4826 26.5984 41.2154 27.829 41.218C29.448 41.218 31.073 41.687 32.491 42.63L30.293 45.227C29.2672 44.6533 28.0737 44.4546 26.9174 44.665C25.761 44.8754 24.714 45.4818 23.956 46.38L14.215 57.973C13.7874 58.4792 13.4646 59.0652 13.2651 59.6971C13.0656 60.3289 12.9935 60.9941 13.053 61.654C13.1088 62.3146 13.2953 62.9575 13.6015 63.5454C13.9078 64.1334 14.3277 64.6547 14.837 65.079L19.998 69.403C20.9055 70.165 22.053 70.5819 23.238 70.58C23.9756 70.5817 24.7045 70.4214 25.3734 70.1106C26.0422 69.7997 26.6347 69.3459 27.109 68.781L36.851 57.188C37.2786 56.6821 37.6016 56.0963 37.801 55.4646C38.0005 54.8328 38.0725 54.1678 38.013 53.508C37.9715 53.0257 37.8607 52.5518 37.684 52.101L40.03 49.331C40.7933 50.4937 41.2549 51.8282 41.373 53.214C41.4728 54.3137 41.3533 55.4222 41.0215 56.4753C40.6897 57.5284 40.1521 58.5052 39.44 59.349L29.695 70.943C26.708 74.495 21.384 74.96 17.826 71.979ZM37.278 42.181L41.644 37.024L42.73 35.742L43.818 34.457L45.991 31.891L47.079 30.606L47.396 30.232C47.5353 30.0615 47.7071 29.9203 47.9014 29.8168C48.0958 29.7133 48.3088 29.6494 48.528 29.629C48.586 29.623 48.644 29.61 48.702 29.61C49.075 29.61 49.449 29.731 49.759 29.984C50.108 30.266 50.327 30.667 50.373 31.113C50.375 31.133 50.372 31.153 50.374 31.174C50.403 31.594 50.28 32.004 50.017 32.334L49.654 32.763L48.567 34.047L46.394 36.614L45.305 37.9L44.219 39.182L39.853 44.339L38.767 45.622L37.681 46.905L35.505 49.476L34.419 50.759L33.332 52.04L33.269 52.115C33.0599 52.3735 32.7787 52.5641 32.4612 52.6627C32.1437 52.7613 31.804 52.7635 31.4853 52.6689C31.1665 52.5744 30.883 52.3874 30.6705 52.1316C30.4581 51.8758 30.3264 51.5627 30.292 51.232C30.2432 50.8016 30.3661 50.3694 30.634 50.029L30.758 49.883L31.844 48.601L32.93 47.318L35.107 44.747L36.193 43.464L37.278 42.181ZM57.423 13.444C57.827 13.444 58.196 13.579 58.498 13.829L63.675 18.165C64.044 18.485 64.264 18.938 64.264 19.442C64.264 19.846 64.129 20.216 63.877 20.535L54.129 32.113C53.979 32.294 53.791 32.432 53.585 32.531C53.824 31.5976 53.7899 30.6152 53.487 29.7005C53.184 28.7858 52.6249 27.9773 51.876 27.371C51.0605 26.7086 50.058 26.3179 49.0093 26.2539C47.9606 26.1899 46.9181 26.4557 46.028 27.014C46.0087 26.9168 45.998 26.8181 45.996 26.719C45.996 26.317 46.13 25.946 46.382 25.644C46.382 25.644 46.382 25.627 46.398 25.627L56.128 14.047C56.448 13.662 56.901 13.444 57.423 13.444ZM26.948 51.583C27.0154 52.242 27.2128 52.8812 27.5288 53.4634C27.8448 54.0456 28.2732 54.5594 28.789 54.975C29.3025 55.3933 29.8937 55.7056 30.5287 55.8939C31.1636 56.0822 31.8295 56.1427 32.488 56.072C32.871 56.0306 33.2481 55.9457 33.612 55.819L24.535 66.619C24.2463 66.9608 23.8341 67.1746 23.3884 67.2135C22.9427 67.2525 22.4996 67.1136 22.156 66.827L16.995 62.503C16.8251 62.3617 16.6851 62.1879 16.5831 61.9918C16.4811 61.7957 16.4192 61.5813 16.401 61.361C16.3811 61.1416 16.405 60.9204 16.4712 60.7103C16.5375 60.5002 16.6448 60.3053 16.787 60.137L26.53 48.544C26.6886 48.355 26.8868 48.2031 27.1106 48.0991C27.3343 47.995 27.5782 47.9414 27.825 47.942C27.881 47.942 27.937 47.951 27.992 47.956C27.1842 48.9826 26.8096 50.2841 26.948 51.583ZM52.314 6.25003C52.1617 5.83467 52.1801 5.37592 52.365 4.97403C52.549 4.55403 52.885 4.25203 53.306 4.09903C53.322 4.09903 53.322 4.08203 53.322 4.08203C53.7393 3.94136 54.1948 3.96789 54.5929 4.15604C54.9911 4.3442 55.3008 4.67933 55.457 5.09103C55.475 5.13703 55.483 5.18303 55.497 5.22903C55.611 5.61003 55.588 6.00803 55.423 6.36803C55.2421 6.76946 54.91 7.08322 54.499 7.24103H54.483C54.2965 7.32035 54.0957 7.36051 53.893 7.35903C53.5757 7.35692 53.2654 7.26534 52.9977 7.09482C52.7301 6.9243 52.516 6.68176 52.38 6.39503C52.357 6.34803 52.332 6.30103 52.314 6.25003ZM13.556 31.757C13.613 31.781 13.67 31.802 13.728 31.823C13.772 31.838 13.814 31.861 13.859 31.873C13.998 31.909 14.141 31.93 14.283 31.93C14.425 31.93 14.568 31.909 14.707 31.873C14.752 31.861 14.794 31.838 14.838 31.823C14.896 31.803 14.953 31.782 15.01 31.758C15.03 31.75 15.051 31.745 15.07 31.735L27.674 25.059C28.224 24.767 28.568 24.196 28.568 23.574V7.73603L28.567 7.72803L28.568 7.71003C28.5648 7.58519 28.5477 7.46109 28.517 7.34003L28.505 7.28803C28.4711 7.16857 28.4242 7.05321 28.365 6.94403L28.335 6.88903C28.2731 6.78265 28.1993 6.68367 28.115 6.59403L28.072 6.55003C27.9821 6.45998 27.8825 6.38016 27.775 6.31203C27.769 6.30903 27.765 6.30303 27.76 6.30003C27.751 6.29503 27.741 6.29303 27.731 6.28703C27.693 6.26403 27.656 6.24003 27.615 6.22003L15.011 0.165033C14.7839 0.0563913 14.5353 0 14.2835 0C14.0317 0 13.7831 0.0563913 13.556 0.165033L0.952 6.22103C0.911 6.24103 0.873999 6.26503 0.835999 6.28803C0.826999 6.29303 0.817 6.29503 0.807 6.30103L0.792 6.31303C0.684311 6.38048 0.584667 6.46 0.495 6.55003L0.452 6.59403C0.368 6.68503 0.295 6.78403 0.233 6.88903L0.203 6.94403C0.14425 7.0534 0.0973178 7.16872 0.0629997 7.28803L0.0509996 7.34003C0.0219996 7.46003 0.002 7.58303 0 7.71003L0.000999451 7.72803L0 7.73603V23.573C0 24.195 0.344 24.766 0.893 25.058L13.497 31.734C13.516 31.744 13.537 31.749 13.556 31.757ZM14.283 3.54403L23.13 7.79403L14.283 12.396L5.436 7.79403L14.283 3.54403ZM25.207 22.562L15.964 27.458V15.312L25.207 10.505V22.562ZM3.36 10.505L12.603 15.312V27.458L3.36 22.562V10.505ZM80.665 56.446C80.6619 56.3201 80.6445 56.195 80.613 56.073L80.602 56.026C80.5676 55.905 80.5203 55.788 80.461 55.677L80.434 55.626C80.3711 55.5189 80.2967 55.4189 80.212 55.328C80.199 55.313 80.184 55.299 80.171 55.286C80.0807 55.1957 79.9803 55.1158 79.872 55.048C79.866 55.044 79.863 55.039 79.857 55.036C79.848 55.03 79.838 55.029 79.829 55.023C79.79 55.001 79.754 54.976 79.713 54.957L67.109 48.901C66.882 48.7924 66.6336 48.736 66.382 48.736C66.1304 48.736 65.882 48.7924 65.655 48.901L53.051 54.957C53.01 54.976 52.973 55.001 52.934 55.023C52.925 55.029 52.915 55.03 52.906 55.036L52.891 55.048C52.7828 55.1161 52.6826 55.1959 52.592 55.286C52.578 55.3 52.564 55.313 52.551 55.328C52.466 55.419 52.391 55.519 52.329 55.626L52.301 55.677C52.2411 55.7877 52.1938 55.9048 52.16 56.026L52.149 56.073C52.119 56.194 52.1 56.318 52.097 56.446L52.098 56.465L52.097 56.473V72.31C52.097 72.932 52.442 73.503 52.991 73.795L65.595 80.471C65.614 80.481 65.634 80.485 65.653 80.493C65.709 80.516 65.765 80.537 65.822 80.557C65.868 80.573 65.912 80.597 65.958 80.609C66.097 80.645 66.238 80.666 66.381 80.666C66.523 80.666 66.665 80.645 66.805 80.609C66.851 80.597 66.895 80.574 66.941 80.557C66.998 80.537 67.055 80.516 67.11 80.493C67.129 80.485 67.149 80.481 67.167 80.471L79.771 73.795C80.321 73.503 80.665 72.932 80.665 72.31V56.472L80.664 56.464C80.664 56.458 80.666 56.452 80.665 56.446ZM77.304 71.298L68.061 76.194V64.048L77.304 59.241V71.298ZM66.381 52.28L75.229 56.53L66.381 61.133L57.534 56.531L66.381 52.28ZM55.457 59.241L64.7 64.048V76.194L55.457 71.298V59.241ZM6.721 50.416C6.50029 50.4162 6.28173 50.3728 6.07778 50.2884C5.87384 50.2041 5.68852 50.0803 5.53241 49.9243C5.37631 49.7683 5.25247 49.5831 5.16798 49.3792C5.08349 49.1753 5.04 48.9567 5.04 48.736V33.611C5.04 33.1653 5.21705 32.7379 5.53221 32.4227C5.84736 32.1076 6.2748 31.9305 6.7205 31.9305C7.1662 31.9305 7.59364 32.1076 7.90879 32.4227C8.22395 32.7379 8.401 33.1653 8.401 33.611V48.736C8.401 49.1816 8.224 49.6089 7.90894 49.924C7.59388 50.239 7.16656 50.416 6.721 50.416ZM73.943 30.249C74.1638 30.2489 74.3824 30.2923 74.5864 30.3767C74.7905 30.4612 74.9758 30.585 75.1319 30.7411C75.2881 30.8972 75.4119 31.0826 75.4963 31.2866C75.5807 31.4906 75.6241 31.7092 75.624 31.93V47.055C75.624 47.5007 75.4469 47.9282 75.1318 48.2433C74.8166 48.5585 74.3892 48.7355 73.9435 48.7355C73.4978 48.7355 73.0704 48.5585 72.7552 48.2433C72.4401 47.9282 72.263 47.5007 72.263 47.055V31.93C72.2629 31.7093 72.3062 31.4908 72.3906 31.2868C72.475 31.0829 72.5987 30.8976 72.7547 30.7414C72.9107 30.5853 73.096 30.4615 73.2999 30.377C73.5038 30.2925 73.7223 30.249 73.943 30.249ZM48.735 75.624C48.7351 75.8448 48.6917 76.0635 48.6073 76.2675C48.5229 76.4715 48.3991 76.6569 48.2429 76.813C48.0868 76.9691 47.9015 77.0929 47.6974 77.1773C47.4934 77.2618 47.2748 77.3052 47.054 77.305H36.971C36.5253 77.305 36.0979 77.128 35.7827 76.8128C35.4676 76.4977 35.2905 76.0702 35.2905 75.6245C35.2905 75.1788 35.4676 74.7514 35.7827 74.4362C36.0979 74.1211 36.5253 73.944 36.971 73.944H47.054C47.2747 73.9439 47.4933 73.9873 47.6972 74.0716C47.9012 74.156 48.0865 74.2797 48.2426 74.4357C48.3987 74.5918 48.5225 74.777 48.607 74.9809C48.6915 75.1848 48.735 75.4033 48.735 75.624ZM31.929 6.72203C31.9289 6.50124 31.9723 6.2826 32.0567 6.07859C32.1411 5.87458 32.2649 5.68921 32.4211 5.53309C32.5772 5.37697 32.7625 5.25316 32.9666 5.16872C33.1706 5.08429 33.3892 5.0409 33.61 5.04103H43.693C43.9137 5.04103 44.1322 5.0845 44.3361 5.16895C44.54 5.25341 44.7252 5.37719 44.8813 5.53324C45.0373 5.68929 45.1611 5.87455 45.2456 6.07843C45.33 6.28232 45.3735 6.50085 45.3735 6.72153C45.3735 6.94222 45.33 7.16074 45.2456 7.36463C45.1611 7.56852 45.0373 7.75378 44.8813 7.90983C44.7252 8.06588 44.54 8.18966 44.3361 8.27411C44.1322 8.35857 43.9137 8.40203 43.693 8.40203H33.61C33.3893 8.40217 33.1707 8.35881 32.9668 8.27444C32.7628 8.19007 32.5775 8.06634 32.4214 7.91033C32.2653 7.75431 32.1415 7.56906 32.057 7.36517C31.9725 7.16128 31.929 6.94274 31.929 6.72203Z" fill="#75C6E5"/>
</svg>
