<svg width="128" height="128" viewBox="0 0 128 128" fill="none" xmlns="http://www.w3.org/2000/svg">
<g clip-path="url(#clip0_52_175)">
<path d="M61.5 51.013V24L43.0833 33.6666L52.2583 53.3735C55.2769 52.3614 58.3658 51.5724 61.5 51.013Z" fill="#E1F2F4"/>
<path d="M62.6667 2.5V50.8121C66 50.2764 69.3705 50.0057 72.7466 50.0024C77.5855 49.924 82.4105 50.5423 87.0732 51.8384C87.603 52.0069 88.107 52.2475 88.5713 52.5532C90.7665 54.0337 92.6951 55.8754 94.2753 58H105.667V2.5H62.6667Z" fill="#00B2C3"/>
<path d="M105.75 25.75V57L111.5 58L122 33L105.75 25.75Z" fill="#E1F2F4"/>
<path d="M83.25 56.9999H112.977C112.977 56.9999 118.875 61.4999 117.25 67.3749C115.625 73.2499 113 72.1249 115.375 76.3749C117.75 80.6249 118.25 86.7499 115.125 89.9999C112 93.2499 110.579 90.545 112.25 96.4999C113.921 102.455 106.927 109.883 103.5 110.625C100.073 111.367 105.625 112.5 105 116.5C104.375 120.5 101.75 126.125 96.375 126.125H54.5L39.75 114.75H28.375V68.7499L35.625 67.3749C35.625 67.3749 56.75 55.0637 70.5 56.0318C84.25 56.9999 83.25 56.9999 83.25 56.9999Z" fill="#E1F2F4"/>
<path d="M121.59 30.1401L108 24.3701V5.90015C107.985 4.3228 107.344 2.81593 106.22 1.70993C105.095 0.603931 103.577 -0.0109334 102 0.000147208H66C64.4226 -0.0109334 62.9052 0.603931 61.7805 1.70993C60.6557 2.81593 60.0154 4.3228 60 5.90015V23.5201L44.41 30.1401C43.4482 30.55 42.6876 31.3236 42.2941 32.2922C41.9007 33.2608 41.9064 34.3457 42.31 35.3102L50.36 54.0401C51.62 53.5701 52.88 53.1401 54.16 52.7701L46 33.7501L60 27.8001V51.2801C61.32 51.0101 62.66 50.7801 64 50.6001V5.90015C64.0045 5.37384 64.2176 4.87081 64.5925 4.50146C64.9675 4.13212 65.4737 3.92664 66 3.93015H102C102.526 3.92834 103.031 4.13437 103.406 4.50335C103.78 4.87233 103.994 5.37438 104 5.90015V56.0301H92.64C92.85 56.2501 93.05 56.4801 93.24 56.7101C93.71 57.2501 94.16 57.8101 94.58 58.3902C94.99 58.9202 95.37 59.4702 95.74 60.0302H111.46C112.007 60.0661 112.533 60.253 112.98 60.5702C114.92 62.4902 115.85 64.4402 115.74 66.3802C115.56 69.7302 112.43 72.2602 112.41 72.2802C112.19 72.4479 112.007 72.6602 111.875 72.9032C111.742 73.1461 111.662 73.4143 111.64 73.6902C111.619 73.9663 111.656 74.2438 111.747 74.5053C111.838 74.7667 111.982 75.0067 112.17 75.2102C115.09 78.3702 116.35 81.4102 115.91 84.2402C115.18 88.9402 110.03 91.8902 109.98 91.9202C109.551 92.1577 109.225 92.5453 109.064 93.0086C108.904 93.4719 108.92 93.9782 109.11 94.4302C110.51 97.8102 110.62 100.77 109.43 103.22C107.28 107.65 101.57 109.31 101.52 109.32C101.205 109.408 100.917 109.572 100.68 109.796C100.443 110.021 100.264 110.3 100.16 110.61C100.055 110.92 100.028 111.25 100.081 111.572C100.133 111.895 100.263 112.2 100.46 112.46C102.37 114.97 103.06 117.22 102.51 119.14C101.72 121.91 98.58 123.55 97.59 124H84.39C83.7021 124.053 83.0108 123.962 82.3593 123.735C81.7079 123.508 81.1105 123.148 80.6045 122.68C80.0984 122.211 79.6947 121.642 79.4186 121.01C79.1426 120.378 79.0001 119.695 79.0001 119.005C79.0001 118.315 79.1426 117.633 79.4186 117.001C79.6947 116.368 80.0984 115.8 80.6045 115.331C81.1105 114.862 81.7079 114.503 82.3593 114.275C83.0108 114.048 83.7021 113.958 84.39 114.01H89C89.5304 114.01 90.0391 113.8 90.4142 113.424C90.7893 113.049 91 112.541 91 112.01C91 111.48 90.7893 110.971 90.4142 110.596C90.0391 110.221 89.5304 110.01 89 110.01H84.39C83.7018 110.062 83.0103 109.971 82.3589 109.743C81.7074 109.515 81.11 109.156 80.6041 108.686C80.0981 108.217 79.6945 107.648 79.4185 107.016C79.1425 106.383 79 105.7 79 105.01C79 104.32 79.1425 103.637 79.4185 103.005C79.6945 102.372 80.0981 101.804 80.6041 101.334C81.11 100.865 81.7074 100.505 82.3589 100.277C83.0103 100.049 83.7018 99.9585 84.39 100.01H93C93.5304 100.01 94.0391 99.7995 94.4142 99.4245C94.7893 99.0494 95 98.5407 95 98.0102C95 97.4798 94.7893 96.9711 94.4142 96.596C94.0391 96.221 93.5304 96.0102 93 96.0102H84.39C81.9525 95.9625 79.5954 96.8829 77.8353 98.5699C76.0752 100.257 75.0556 102.573 75 105.01C75.0086 106.367 75.3286 107.704 75.9354 108.918C76.5423 110.131 77.4197 111.189 78.5 112.01C77.4199 112.829 76.5425 113.885 75.9357 115.097C75.3288 116.309 75.0087 117.645 75 119C74.9978 120.792 75.5535 122.539 76.59 124H55.18C54.6223 123.94 54.0925 123.725 53.65 123.38L43.59 114.57C40.44 111.99 34.25 112.01 34 112.01H30V70.0301H33.02C36.2569 69.9242 39.3894 68.8592 42.02 66.9701C42.25 66.8201 42.45 66.6901 42.63 66.5801C42.98 66.3701 43.34 66.1601 43.69 65.9502C63.81 54.3902 82.08 58.7602 84.41 59.4002C88.77 62.3802 92.62 69.4902 95.87 80.5302C96.0984 81.578 95.946 82.6728 95.4402 83.6185C94.9344 84.5641 94.1083 85.2985 93.11 85.6902C90.76 86.5802 88.16 85.6502 85.18 82.8402C81.99 79.8402 78.37 76.1802 77.48 74.7602C77.2859 74.4563 77.0128 74.2108 76.69 74.0502C77.1665 72.9182 77.5771 71.7596 77.92 70.5802C78.0672 70.071 78.0061 69.5242 77.7501 69.06C77.4941 68.5959 77.0642 68.2524 76.555 68.1052C76.0458 67.958 75.499 68.0191 75.0348 68.2751C74.5706 68.5311 74.2272 68.961 74.08 69.4702C69.85 84.0101 58.52 84.0301 58.04 84.0201C57.7774 84.012 57.5159 84.0562 57.2706 84.1501C57.0253 84.2441 56.8011 84.386 56.6112 84.5675C56.4213 84.749 56.2695 84.9665 56.1646 85.2074C56.0596 85.4482 56.0037 85.7075 56 85.9701C55.9883 86.5002 56.1868 87.0133 56.5521 87.3974C56.9175 87.7815 57.4201 88.0054 57.95 88.0201H57.99C61.4113 87.8358 64.7338 86.8081 67.6615 85.0284C70.5893 83.2487 73.0313 80.7724 74.77 77.8201C77.1709 80.6098 79.7319 83.2576 82.44 85.7501C85.46 88.6001 88.44 90.0201 91.33 90.0201C92.4234 90.0163 93.5072 89.8165 94.53 89.4301C96.4615 88.6695 98.0507 87.2328 99.0018 85.3877C99.9529 83.5425 100.201 81.4146 99.7 79.4001C98.37 74.8601 94.31 61.0401 86.35 55.8801C86.1978 55.7817 86.033 55.7043 85.86 55.6502C85.01 55.3802 65.44 49.4801 42.98 61.7701C42.18 62.2201 41.38 62.6801 40.57 63.1601C40.36 63.2901 40.12 63.4301 39.87 63.6001C37.8684 65.0674 35.479 65.9126 33 66.0301H6C5.73734 66.0301 5.47723 66.0818 5.23455 66.1822C4.99187 66.2827 4.77136 66.43 4.58563 66.6158C4.3999 66.8015 4.25258 67.022 4.1521 67.2647C4.05161 67.5074 3.99993 67.7675 4 68.0301V116.01C4.00335 117.599 4.63688 119.123 5.76166 120.246C6.88644 121.368 8.41065 121.999 10 122H24C25.5894 121.999 27.1136 121.368 28.2383 120.246C29.3631 119.123 29.9967 117.599 30 116.01H34.01C34.03 116.01 34.06 116 34.08 116C35.74 116 39.51 116.4 41 117.62L50.99 126.37C52.1624 127.365 53.6338 127.939 55.17 128H98C98.2427 128.002 98.4835 127.958 98.71 127.87C98.96 127.77 104.85 125.48 106.35 120.26C106.698 118.905 106.766 117.493 106.549 116.11C106.333 114.728 105.836 113.404 105.09 112.22C107.52 111.09 111.13 108.86 113.01 105C113.771 103.355 114.196 101.574 114.26 99.7625C114.323 97.9508 114.024 96.1447 113.38 94.4501C115.46 92.9401 119.1 89.6601 119.86 84.8901C120.43 81.2801 119.26 77.6101 116.38 73.9801C118.29 71.9783 119.473 69.3938 119.74 66.6401C119.92 63.4901 118.59 60.4901 115.79 57.7301C115.456 57.4073 115.079 57.1315 114.67 56.9101L123.7 35.3001C124.098 34.3355 124.1 33.2526 123.705 32.2866C123.31 31.3205 122.55 30.5492 121.59 30.1401ZM26 116.01C25.9981 116.539 25.7864 117.046 25.4115 117.419C25.0365 117.792 24.5289 118.001 24 118H10C9.47108 118.001 8.96348 117.792 8.58854 117.419C8.21361 117.046 8.00195 116.539 8 116.01V70.0301H26V116.01ZM110.71 56.0301H108V28.6801L120 33.8001L110.71 56.0301Z" fill="#2D5256"/>
<path d="M26 70.0303V116.01C25.9981 116.539 25.7864 117.046 25.4115 117.419C25.0365 117.792 24.5289 118.001 24 118H10C9.47108 118.001 8.96348 117.792 8.58854 117.419C8.21361 117.046 8.00195 116.539 8 116.01V70.0303H26Z" fill="#5EEEFC"/>
<path d="M84 21C81.6266 21 79.3065 21.7038 77.3332 23.0224C75.3598 24.3409 73.8217 26.2151 72.9134 28.4078C72.0052 30.6005 71.7676 33.0133 72.2306 35.3411C72.6936 37.6689 73.8365 39.8071 75.5147 41.4853C77.1929 43.1635 79.3311 44.3064 81.6589 44.7694C83.9867 45.2324 86.3995 44.9948 88.5922 44.0866C90.7849 43.1783 92.6591 41.6402 93.9776 39.6668C95.2962 37.6935 96 35.3734 96 33C95.9975 29.8182 94.7324 26.7674 92.4825 24.5175C90.2326 22.2676 87.1818 21.0025 84 21ZM84 41C82.4177 41 80.871 40.5308 79.5554 39.6518C78.2398 38.7727 77.2145 37.5233 76.609 36.0615C76.0035 34.5997 75.845 32.9911 76.1537 31.4393C76.4624 29.8874 77.2243 28.462 78.3431 27.3431C79.462 26.2243 80.8874 25.4624 82.4393 25.1537C83.9911 24.845 85.5997 25.0035 87.0615 25.609C88.5233 26.2145 89.7727 27.2398 90.6518 28.5554C91.5308 29.871 92 31.4177 92 33C91.9972 35.1209 91.1534 37.1541 89.6537 38.6537C88.1541 40.1534 86.1209 40.9972 84 41Z" fill="#2D5256"/>
<path d="M92 33C92 34.5823 91.5308 36.129 90.6518 37.4446C89.7727 38.7602 88.5233 39.7855 87.0615 40.391C85.5997 40.9965 83.9911 41.155 82.4393 40.8463C80.8874 40.5376 79.462 39.7757 78.3431 38.6569C77.2243 37.538 76.4624 36.1126 76.1537 34.5607C75.845 33.0089 76.0035 31.4003 76.609 29.9385C77.2145 28.4767 78.2398 27.2273 79.5554 26.3482C80.871 25.4692 82.4177 25 84 25C86.1209 25.0028 88.1541 25.8466 89.6537 27.3463C91.1534 28.8459 91.9972 30.8791 92 33Z" fill="#E1F2F4"/>
<path d="M17 81.3555C18.1046 81.3555 19 80.46 19 79.3555C19 78.2509 18.1046 77.3555 17 77.3555C15.8954 77.3555 15 78.2509 15 79.3555C15 80.46 15.8954 81.3555 17 81.3555Z" fill="#2D5256"/>
<path opacity="0.5" d="M60 27.7998V29.7998L46.73 35.4398L46 33.7498L60 27.7998Z" fill="white"/>
<path opacity="0.3" d="M104 5.89973V7.89973C103.994 7.37396 103.78 6.87191 103.406 6.50292C103.031 6.13394 102.526 5.92792 102 5.92973H66C65.4737 5.92623 64.9675 6.1317 64.5925 6.50105C64.2176 6.87039 64.0045 7.37343 64 7.89973V5.89973C64.0045 5.37343 64.2176 4.87039 64.5925 4.50105C64.9675 4.1317 65.4737 3.92623 66 3.92973H102C102.526 3.92792 103.031 4.13394 103.406 4.50292C103.78 4.87191 103.994 5.37396 104 5.89973Z" fill="#D6F0F2"/>
<path opacity="0.5" d="M95.86 82.51C92.62 71.48 88.77 64.38 84.41 61.4C82.08 60.76 63.81 56.3901 43.69 67.95C43.34 68.16 42.98 68.37 42.63 68.58C42.45 68.69 42.25 68.82 42.02 68.97C39.3894 70.859 36.2569 71.9241 33.02 72.03H30V70.03H33.02C36.2569 69.9241 39.3894 68.859 42.02 66.97C42.25 66.82 42.45 66.69 42.63 66.58C42.98 66.37 43.34 66.16 43.69 65.95C63.81 54.39 82.08 58.76 84.41 59.4C88.77 62.38 92.62 69.49 95.87 80.53C96.0417 81.1793 96.0383 81.8625 95.86 82.51Z" fill="white"/>
<path opacity="0.5" d="M120 33.7997L119.29 35.4997L108 30.6797V28.6797L120 33.7997Z" fill="white"/>
<path opacity="0.5" d="M115.74 66.3803C115.728 66.6118 115.701 66.8423 115.66 67.0703C115.25 65.3308 114.314 63.7597 112.98 62.5703C112.533 62.2532 112.007 62.0662 111.46 62.0303H95.74C95.37 61.4703 94.99 60.9203 94.58 60.3903C94.16 59.8103 93.71 59.2503 93.24 58.7103C93.05 58.4803 92.85 58.2503 92.64 58.0303H94.3C94.4 58.1503 94.49 58.2703 94.58 58.3903C94.99 58.9203 95.37 59.4703 95.74 60.0303H111.46C112.007 60.0662 112.533 60.2531 112.98 60.5703C114.92 62.4903 115.85 64.4403 115.74 66.3803Z" fill="white"/>
<path opacity="0.5" d="M102.51 119.14C101.72 121.91 98.58 123.55 97.59 124H84.39C83.0131 124.049 81.6731 123.55 80.663 122.613C79.6529 121.676 79.055 120.377 79 119C79.0009 118.667 79.0378 118.335 79.11 118.01C79.4096 119.174 80.0947 120.202 81.0536 120.927C82.0124 121.652 83.1885 122.03 84.39 122H97.59C98.58 121.55 101.72 119.91 102.51 117.14C102.54 117.03 102.57 116.92 102.59 116.82C102.75 117.589 102.723 118.385 102.51 119.14Z" fill="#9FA9AA"/>
<path opacity="0.5" d="M26 114.01V116.01C25.9981 116.539 25.7864 117.045 25.4115 117.418C25.0365 117.791 24.5289 118 24 118H10C9.47108 118 8.96348 117.791 8.58854 117.418C8.21361 117.045 8.00195 116.539 8 116.01V114.01C8.00195 114.539 8.21361 115.045 8.58854 115.418C8.96348 115.791 9.47108 116 10 116H24C24.5289 116 25.0365 115.791 25.4115 115.418C25.7864 115.045 25.9981 114.539 26 114.01Z" fill="#3F9CA5"/>
<path opacity="0.5" d="M76.59 124H55.18C54.6223 123.939 54.0925 123.725 53.65 123.38L43.59 114.57C40.44 111.99 34.25 112.01 34 112.01H30V110.01H34C34.25 110.01 40.44 109.99 43.59 112.57L53.65 121.38C54.0925 121.725 54.6223 121.939 55.18 122H75.54C75.7993 122.71 76.1525 123.383 76.59 124Z" fill="#9FA9AA"/>
<path opacity="0.3" d="M26 70.0303H8V72.0303H26V70.0303Z" fill="#D7F6F9"/>
<path opacity="0.5" d="M92 33C92 35.1217 91.1571 37.1566 89.6569 38.6569C88.1566 40.1571 86.1217 41 84 41C81.8783 41 79.8434 40.1571 78.3431 38.6569C76.8429 37.1566 76 35.1217 76 33C75.9998 32.6658 76.0198 32.3318 76.06 32C76.3043 33.9335 77.2456 35.7113 78.7075 37.0001C80.1693 38.2889 82.0512 39 84 39C85.9488 39 87.8307 38.2889 89.2925 37.0001C90.7544 35.7113 91.6957 33.9335 91.94 32C91.9802 32.3318 92.0002 32.6658 92 33Z" fill="#9FA9AA"/>
<path opacity="0.5" d="M92 33C92.0002 33.3342 91.9802 33.6682 91.94 34C91.6957 32.0665 90.7544 30.2887 89.2925 28.9999C87.8307 27.7111 85.9488 27 84 27C82.0512 27 80.1693 27.7111 78.7075 28.9999C77.2456 30.2887 76.3043 32.0665 76.06 34C76.0198 33.6682 75.9998 33.3342 76 33C76 30.8783 76.8429 28.8434 78.3431 27.3431C79.8434 25.8429 81.8783 25 84 25C86.1217 25 88.1566 25.8429 89.6569 27.3431C91.1571 28.8434 92 30.8783 92 33Z" fill="white"/>
</g>
<defs>
<clipPath id="clip0_52_175">
<rect width="128" height="128" fill="white"/>
</clipPath>
</defs>
</svg>
