<svg width="68" height="68" viewBox="0 0 68 68" fill="none" xmlns="http://www.w3.org/2000/svg">
<path d="M45.82 12.227L42.735 11.413C42.5739 10.8957 42.365 10.3946 42.111 9.916L43.724 7.164C43.824 6.989 43.799 6.764 43.649 6.614L41.546 4.511C41.4751 4.43777 41.3815 4.39055 41.2805 4.37695C41.1795 4.36334 41.0768 4.38414 40.989 4.436L38.236 6.041C37.9109 5.86938 37.5748 5.71939 37.23 5.592C37.064 5.526 36.906 5.476 36.74 5.418L35.933 2.341C35.9067 2.24406 35.8495 2.15832 35.7701 2.09679C35.6907 2.03526 35.5934 2.00128 35.493 2H32.507C32.4064 2.00005 32.3086 2.03345 32.229 2.09497C32.1494 2.15648 32.0924 2.24266 32.067 2.34L31.967 2.715L31.834 3.231L31.26 5.418C30.7415 5.58241 30.238 5.79083 29.755 6.041L27.011 4.436C26.9232 4.38414 26.8205 4.36334 26.7195 4.37695C26.6185 4.39055 26.5249 4.43777 26.454 4.511L25.099 5.867L24.351 6.615C24.2798 6.68549 24.2339 6.7775 24.2203 6.87677C24.2067 6.97603 24.2263 7.077 24.276 7.164L25.88 9.916C25.63 10.39 25.423 10.896 25.265 11.421L22.18 12.227C21.98 12.277 21.84 12.46 21.84 12.668V15.645C21.84 15.861 21.98 16.035 22.18 16.085L25.265 16.901C25.423 17.416 25.631 17.923 25.889 18.397L24.276 21.149C24.2257 21.236 24.2058 21.3373 24.2194 21.4368C24.233 21.5364 24.2793 21.6286 24.351 21.699L26.454 23.81C26.604 23.952 26.828 23.985 27.011 23.877L29.755 22.272C30.2356 22.5275 30.7396 22.7365 31.26 22.896L32.067 25.98C32.117 26.18 32.299 26.321 32.507 26.321H35.492C35.5925 26.32 35.6899 26.2863 35.7695 26.2249C35.8491 26.1636 35.9065 26.0779 35.933 25.981L36.74 22.896C37.2561 22.7325 37.7567 22.5237 38.236 22.272L38.245 22.28L38.627 22.505L40.348 23.503L40.988 23.877C41.038 23.91 41.097 23.927 41.155 23.943C41.2257 23.9503 41.2972 23.9422 41.3646 23.9192C41.4319 23.8962 41.4934 23.859 41.545 23.81L43.649 21.698C43.7203 21.6276 43.7664 21.5356 43.78 21.4363C43.7935 21.337 43.7738 21.236 43.724 21.149L42.111 18.397C42.361 17.923 42.577 17.416 42.735 16.901L45.82 16.086C46.02 16.036 46.16 15.861 46.16 15.645V12.668C46.1601 12.5673 46.1268 12.4695 46.0652 12.3899C46.0037 12.3102 45.9174 12.2523 45.82 12.227ZM33.996 19.96C33.2275 19.9701 32.4646 19.8274 31.7516 19.5403C31.0387 19.2532 30.3898 18.8273 29.8428 18.2874C29.2957 17.7475 28.8614 17.1043 28.5649 16.3952C28.2685 15.6861 28.1158 14.9251 28.1158 14.1565C28.1158 13.3879 28.2685 12.6269 28.5649 11.9178C28.8614 11.2087 29.2957 10.5655 29.8428 10.0256C30.3898 9.4857 31.0387 9.05982 31.7516 8.7727C32.4646 8.48557 33.2275 8.34291 33.996 8.353C35.522 8.37303 36.9787 8.99329 38.0507 10.0795C39.1227 11.1657 39.7238 12.6304 39.7238 14.1565C39.7238 15.6826 39.1227 17.1473 38.0507 18.2335C36.9787 19.3197 35.522 19.94 33.996 19.96Z" fill="#4AC3F1"/>
<path d="M33.996 19.9605C37.2015 19.9605 39.8 17.362 39.8 14.1565C39.8 10.9511 37.2015 8.35254 33.996 8.35254C30.7905 8.35254 28.192 10.9511 28.192 14.1565C28.192 17.362 30.7905 19.9605 33.996 19.9605Z" fill="#4F8599"/>
<path d="M33.996 18.8427C36.584 18.8427 38.682 16.7447 38.682 14.1567C38.682 11.5687 36.584 9.4707 33.996 9.4707C31.408 9.4707 29.31 11.5687 29.31 14.1567C29.31 16.7447 31.408 18.8427 33.996 18.8427Z" fill="#E9F9FF"/>
<path d="M58.45 18.1741V48.9441H9.55V18.1741C9.55 17.6471 9.65384 17.1251 9.85557 16.6382C10.0573 16.1512 10.353 15.7088 10.7257 15.3362C11.0985 14.9635 11.541 14.6679 12.028 14.4663C12.515 14.2647 13.0369 14.161 13.564 14.1611H54.434C54.9611 14.161 55.483 14.2647 55.97 14.4663C56.457 14.6679 56.8995 14.9635 57.2723 15.3362C57.645 15.7088 57.9407 16.1512 58.1424 16.6382C58.3442 17.1251 58.448 17.6471 58.448 18.1741H58.45Z" fill="#4F8599"/>
<path d="M54.952 18.6651V48.9451H13.048V18.6651C13.048 18.1151 13.501 17.6621 14.052 17.6621H53.949C54.499 17.6621 54.952 18.1141 54.952 18.6651Z" fill="#E9F9FF"/>
<path d="M24.15 20.3574V21.2094C24.15 21.2637 24.1284 21.3159 24.09 21.3543C24.0515 21.3928 23.9994 21.4144 23.945 21.4144H16.11C16.0556 21.4144 16.0035 21.3928 15.965 21.3543C15.9266 21.3159 15.905 21.2637 15.905 21.2094V20.3574C15.905 20.2444 15.998 20.1514 16.11 20.1514H23.945C24.057 20.1514 24.15 20.2444 24.15 20.3574Z" fill="#4EC1ED"/>
<path d="M22.119 23.3467V24.1997C22.119 24.3047 22.024 24.3997 21.909 24.3997H16.11C15.994 24.3997 15.9 24.3047 15.9 24.1997V23.3467C15.9 23.2317 15.994 23.1367 16.11 23.1367H21.908C22.024 23.1367 22.119 23.2317 22.119 23.3467Z" fill="#2EC4FD"/>
<path d="M13.049 47.8525H54.952V48.9445H13.049V47.8525Z" fill="#CFF2FF"/>
<path d="M24.325 35.2332V44.7982C24.325 45.0552 24.121 45.2582 23.865 45.2582H20.118C20.0575 45.2586 19.9976 45.2469 19.9416 45.2239C19.8857 45.201 19.8349 45.1671 19.7922 45.1243C19.7495 45.0814 19.7157 45.0306 19.6928 44.9746C19.67 44.9186 19.6585 44.8586 19.659 44.7982V35.2332C19.659 34.9872 19.862 34.7852 20.118 34.7852H23.865C24.121 34.7852 24.325 34.9872 24.325 35.2332Z" fill="#75C6E5"/>
<path d="M32.1 29.8953V44.7983C32.1 45.0553 31.897 45.2583 31.641 45.2583H27.894C27.8335 45.2588 27.7734 45.2473 27.7173 45.2243C27.6613 45.2014 27.6104 45.1675 27.5675 45.1247C27.5247 45.0819 27.4909 45.031 27.4679 44.9749C27.445 44.9189 27.4335 44.8588 27.434 44.7983V29.8953C27.434 29.6503 27.638 29.4473 27.894 29.4473H31.641C31.897 29.4473 32.101 29.6503 32.101 29.8953H32.1Z" fill="#2EC4FD"/>
<path d="M39.876 35.2332V44.7982C39.876 45.0552 39.673 45.2582 39.416 45.2582H35.67C35.6094 45.2587 35.5494 45.2472 35.4933 45.2242C35.4373 45.2013 35.3864 45.1674 35.3435 45.1246C35.3007 45.0818 35.2669 45.0309 35.2439 44.9748C35.221 44.9188 35.2095 44.8587 35.21 44.7982V35.2332C35.21 34.9872 35.413 34.7852 35.67 34.7852H39.417C39.673 34.7852 39.876 34.9872 39.876 35.2332Z" fill="#4EC1ED"/>
<path d="M47.652 29.8953V44.7983C47.652 45.0553 47.449 45.2583 47.192 45.2583H43.445C43.3845 45.2587 43.3246 45.247 43.2686 45.224C43.2127 45.2011 43.1619 45.1672 43.1192 45.1244C43.0765 45.0816 43.0427 45.0307 43.0198 44.9747C42.997 44.9187 42.9855 44.8587 42.986 44.7983V29.8953C42.986 29.6503 43.189 29.4473 43.446 29.4473H47.193C47.449 29.4473 47.652 29.6503 47.652 29.8953Z" fill="#7BBDD6"/>
<path d="M37.544 32.1159C37.4099 32.1161 37.2806 32.0658 37.182 31.9749L29.768 25.1409L22.353 31.9749C22.2489 32.0708 22.111 32.1214 21.9696 32.1155C21.8282 32.1097 21.6949 32.048 21.599 31.9439C21.5031 31.8398 21.4525 31.7019 21.4583 31.5605C21.4642 31.4191 21.5259 31.2858 21.63 31.1899L29.406 24.0229C29.5046 23.9322 29.6336 23.8819 29.7675 23.8819C29.9014 23.8819 30.0304 23.9322 30.129 24.0229L37.542 30.8549L44.956 23.9789C45.0071 23.9296 45.0675 23.8909 45.1338 23.8652C45.2 23.8396 45.2707 23.8273 45.3417 23.8293C45.4127 23.8313 45.4825 23.8474 45.5472 23.8767C45.6119 23.906 45.6701 23.9479 45.7184 24C45.7667 24.0521 45.8041 24.1133 45.8285 24.18C45.8528 24.2468 45.8636 24.3177 45.8602 24.3886C45.8568 24.4596 45.8393 24.5291 45.8087 24.5932C45.7781 24.6573 45.735 24.7146 45.682 24.7619L37.906 31.9739C37.8076 32.0652 37.6783 32.1159 37.544 32.1159Z" fill="black"/>
<path d="M48.326 21.8916L47.214 26.1126C47.1945 26.1861 47.1561 26.2532 47.1024 26.3071C47.0488 26.361 46.982 26.3998 46.9086 26.4197C46.8352 26.4395 46.7579 26.4397 46.6844 26.4202C46.6109 26.4008 46.5439 26.3623 46.49 26.3086L43.38 23.1986C43.3264 23.1447 43.2879 23.0777 43.2684 23.0042C43.2489 22.9307 43.2491 22.8534 43.269 22.78C43.2888 22.7067 43.3277 22.6398 43.3815 22.5862C43.4354 22.5326 43.5025 22.4941 43.576 22.4746L47.798 21.3626C47.8711 21.3436 47.948 21.344 48.0209 21.3638C48.0938 21.3837 48.1603 21.4223 48.2137 21.4757C48.2671 21.5292 48.3055 21.5958 48.3252 21.6687C48.3449 21.7417 48.3452 21.8185 48.326 21.8916Z" fill="black"/>
<path d="M65.467 61.8232C65.4675 62.372 65.3598 62.9155 65.15 63.4226C64.9402 63.9296 64.6325 64.3904 64.2444 64.7784C63.8563 65.1663 63.3955 65.474 62.8884 65.6836C62.3813 65.8933 61.8378 66.0009 61.289 66.0002H6.71001C6.16133 66.0008 5.61793 65.8931 5.11092 65.6834C4.6039 65.4736 4.14322 65.166 3.75525 64.778C3.36727 64.39 3.05962 63.9293 2.84989 63.4223C2.64016 62.9153 2.53248 62.3719 2.53301 61.8232H65.467Z" fill="#CFF2FF"/>
<path d="M65.469 61.8244H2.53101L9.55101 48.9434H58.449L65.469 61.8244Z" fill="#E9F9FF"/>
<path d="M8.29099 57.4196L11.024 52.4056C11.1085 52.2504 11.2332 52.1209 11.3851 52.0306C11.5369 51.9403 11.7103 51.8926 11.887 51.8926H56.113C56.473 51.8926 56.804 52.0896 56.976 52.4056L59.709 57.4186C59.7908 57.5684 59.8321 57.7369 59.829 57.9075C59.8259 58.0781 59.7784 58.245 59.6912 58.3917C59.6041 58.5384 59.4802 58.6599 59.3318 58.7442C59.1834 58.8286 59.0157 58.8728 58.845 58.8726H9.15499C8.98433 58.8728 8.81656 58.8286 8.66818 58.7442C8.5198 58.6599 8.39592 58.5384 8.30874 58.3917C8.22156 58.245 8.17408 58.0781 8.17097 57.9075C8.16786 57.7369 8.20922 57.5694 8.29099 57.4196Z" fill="#CFF2FF"/>
<path d="M27.491 58.8734L28.778 55.7744H39.222L40.509 58.8734H27.491Z" fill="#E9F9FF"/>
<g opacity="0.2">
<path d="M43.256 48.9402H25.752L15.239 17.6572H32.734L43.256 48.9402ZM52.736 48.9402H47.76L37.238 17.6572H42.214L52.736 48.9402Z" fill="black"/>
</g>
</svg>
