<svg width="50" height="50" viewBox="0 0 50 50" fill="none" xmlns="http://www.w3.org/2000/svg">
<path d="M45.116 13.8736V41.3406C45.1149 41.9901 44.8565 42.6127 44.3972 43.0719C43.938 43.5311 43.3155 43.7896 42.666 43.7906H6.628C5.283 43.7906 4.167 42.6856 4.167 41.3406V17.1477C4.16687 16.8246 4.23041 16.5046 4.35399 16.2061C4.47757 15.9076 4.65877 15.6363 4.88722 15.4079C5.11568 15.1794 5.38692 14.9982 5.68544 14.8746C5.98396 14.7511 6.30391 14.6875 6.627 14.6876H24.563C25.596 14.6876 26.523 14.0306 26.878 13.0496L27.504 11.2986C27.6353 10.911 27.8852 10.5745 28.2183 10.3367C28.5513 10.099 28.9508 9.97194 29.36 9.97365H41.216C43.364 9.97365 45.116 11.7256 45.116 13.8736Z" fill="#82DCFD"/>
<path d="M40.83 36.9555V5.17547C40.8301 4.62471 40.7218 4.07931 40.5111 3.57042C40.3005 3.06153 39.9917 2.59911 39.6023 2.20957C39.213 1.82003 38.7507 1.51099 38.2419 1.3001C37.7331 1.08921 37.1878 0.9806 36.637 0.980469H12.657C11.5447 0.980469 10.4779 1.42234 9.69139 2.20886C8.90486 2.99539 8.463 4.06215 8.463 5.17447V36.9555H40.83Z" fill="#E2F7FF"/>
<path d="M45.116 19.4317V41.3407C45.1149 41.9901 44.8565 42.6127 44.3972 43.0719C43.938 43.5311 43.3155 43.7896 42.666 43.7907H6.628C5.283 43.7907 4.167 42.6857 4.167 41.3407V28.8687L13.093 28.7747C13.7771 28.7705 14.4502 28.6026 15.0561 28.2851C15.6621 27.9677 16.1832 27.5097 16.576 26.9497L20.643 21.1737C21.0232 20.6341 21.5278 20.1941 22.114 19.8909C22.7003 19.5877 23.351 19.4302 24.011 19.4317H45.116Z" fill="#75C6E5"/>
<path d="M40.83 19.9327V38.6287C40.83 39.5787 40.059 40.3387 39.13 40.3387H10.153C9.70231 40.3357 9.27121 40.154 8.95449 39.8333C8.63777 39.5127 8.46134 39.0794 8.464 38.6287V28.8267L13.094 28.7747C13.7781 28.7705 14.4512 28.6026 15.0571 28.2851C15.6631 27.9677 16.1842 27.5097 16.577 26.9497L20.644 21.1737C21.0242 20.6341 21.5288 20.1941 22.115 19.8909C22.7013 19.5877 23.352 19.4302 24.012 19.4317H40.748C40.8 19.5887 40.832 19.7547 40.832 19.9317L40.83 19.9327Z" fill="#75C6E5"/>
<path d="M1.071 33.6407L3.961 46.9577C4.08781 47.5421 4.41088 48.0653 4.87647 48.4405C5.34206 48.8157 5.92207 49.0201 6.52 49.0197H42.088C42.6981 49.0198 43.2891 48.8066 43.7587 48.4171C44.2284 48.0277 44.5472 47.4863 44.66 46.8867L48.947 24.1117C49.0305 23.6678 49.0151 23.2109 48.9019 22.7736C48.7887 22.3363 48.5806 21.9293 48.2922 21.5816C48.0039 21.2338 47.6425 20.9539 47.2337 20.7618C46.8249 20.5696 46.3787 20.4699 45.927 20.4697H24.009C23.009 20.4697 22.07 20.9567 21.495 21.7757L17.432 27.5547C16.9434 28.2496 16.2958 28.8176 15.5431 29.2112C14.7904 29.6049 13.9544 29.8128 13.105 29.8177L4.057 29.9157C3.59959 29.9184 3.14856 30.0232 2.73678 30.2224C2.325 30.4215 1.96286 30.7101 1.67676 31.067C1.39066 31.4239 1.18782 31.8402 1.08303 32.2854C0.978233 32.7307 0.974124 33.1937 1.071 33.6407Z" fill="white"/>
<path d="M48.943 24.1136L44.657 46.8876C44.5455 47.4861 44.2278 48.0265 43.7593 48.4151C43.2907 48.8037 42.7007 49.0158 42.092 49.0146H6.523C5.93223 49.0185 5.35766 48.8216 4.89358 48.456C4.4295 48.0904 4.10347 47.5779 3.969 47.0026H39.069C39.6804 47.0033 40.2728 46.7899 40.7431 46.3993C41.2135 46.0087 41.5323 45.4657 41.644 44.8646L45.93 22.0906C46.0331 21.5496 45.9861 20.9907 45.794 20.4746H45.93C46.3813 20.4748 46.8269 20.5745 47.2352 20.7667C47.6435 20.9588 48.0044 21.2387 48.2922 21.5863C48.5799 21.9339 48.7874 22.3408 48.8999 22.7778C49.0124 23.2148 49.0271 23.6703 48.943 24.1136Z" fill="#75C6E5"/>
<path opacity="0.3" d="M5.343 42.8621L5.081 41.7921C5.04188 41.6085 5.07583 41.4169 5.17562 41.2579C5.27542 41.0989 5.43322 40.985 5.61558 40.9404C5.79793 40.8958 5.99048 40.9239 6.15242 41.0189C6.31435 41.1139 6.43292 41.2682 6.483 41.4491L6.745 42.5181C6.78552 42.7022 6.75244 42.8949 6.65283 43.0549C6.55323 43.2149 6.39499 43.3296 6.21193 43.3745C6.02886 43.4195 5.83549 43.391 5.67313 43.2953C5.51077 43.1995 5.39228 43.0441 5.343 42.8621ZM4.622 39.9191L3.208 34.0491C3.17246 33.867 3.20842 33.6782 3.3084 33.5219C3.40838 33.3655 3.56471 33.2537 3.74494 33.2096C3.92518 33.1655 4.11549 33.1924 4.27638 33.2849C4.43726 33.3773 4.55638 33.5282 4.609 33.7061L6.023 39.5761C6.05853 39.7583 6.02258 39.9471 5.9226 40.1034C5.82262 40.2597 5.66629 40.3715 5.48605 40.4157C5.30581 40.4598 5.1155 40.4328 4.95462 40.3404C4.79373 40.2479 4.67462 40.0971 4.622 39.9191ZM5.584 23.5351V22.6801C5.584 22.5315 5.64305 22.3889 5.74816 22.2838C5.85328 22.1787 5.99584 22.1196 6.1445 22.1196C6.29315 22.1196 6.43572 22.1787 6.54083 22.2838C6.64594 22.3889 6.705 22.5315 6.705 22.6801V23.5351C6.705 23.6837 6.646 23.8261 6.54098 23.9311C6.43596 24.0361 6.29352 24.0951 6.145 24.0951C5.99648 24.0951 5.85404 24.0361 5.74902 23.9311C5.644 23.8261 5.584 23.6837 5.584 23.5351ZM5.584 20.6601V16.7841C5.584 16.6355 5.64305 16.4929 5.74816 16.3878C5.85328 16.2827 5.99584 16.2236 6.1445 16.2236C6.29315 16.2236 6.43572 16.2827 6.54083 16.3878C6.64594 16.4929 6.705 16.6355 6.705 16.7841V20.6601C6.705 20.8087 6.646 20.9511 6.54098 21.0561C6.43596 21.1611 6.29352 21.2201 6.145 21.2201C5.99648 21.2201 5.85404 21.1611 5.74902 21.0561C5.644 20.9511 5.584 20.8087 5.584 20.6601Z" fill="#75C6E5"/>
<path d="M36.092 9.82211H13.076C12.8686 9.82211 12.6697 9.73972 12.523 9.59307C12.3764 9.44641 12.294 9.24751 12.294 9.04011C12.294 8.83271 12.3764 8.63381 12.523 8.48715C12.6697 8.3405 12.8686 8.25811 13.076 8.25811H36.092C36.2994 8.25811 36.4983 8.3405 36.645 8.48715C36.7916 8.63381 36.874 8.83271 36.874 9.04011C36.874 9.24751 36.7916 9.44641 36.645 9.59307C36.4983 9.73972 36.2994 9.82211 36.092 9.82211ZM36.092 5.97711H13.076C12.8685 5.97711 12.6694 5.89467 12.5227 5.74792C12.3759 5.60117 12.2935 5.40214 12.2935 5.19461C12.2935 4.98708 12.3759 4.78805 12.5227 4.6413C12.6694 4.49455 12.8685 4.41211 13.076 4.41211H36.092C36.2995 4.41211 36.4986 4.49455 36.6453 4.6413C36.7921 4.78805 36.8745 4.98708 36.8745 5.19461C36.8745 5.40214 36.7921 5.60117 36.6453 5.74792C36.4986 5.89467 36.2995 5.97711 36.092 5.97711ZM36.092 13.6671H13.076C12.8686 13.6671 12.6697 13.5847 12.523 13.4381C12.3764 13.2914 12.294 13.0925 12.294 12.8851C12.294 12.6777 12.3764 12.4788 12.523 12.3322C12.6697 12.1855 12.8686 12.1031 13.076 12.1031H36.092C36.2994 12.1031 36.4983 12.1855 36.645 12.3322C36.7916 12.4788 36.874 12.6777 36.874 12.8851C36.874 13.0925 36.7916 13.2914 36.645 13.4381C36.4983 13.5847 36.2994 13.6671 36.092 13.6671ZM27.619 17.5121H13.076C12.8686 17.5121 12.6697 17.4297 12.523 17.2831C12.3764 17.1364 12.294 16.9375 12.294 16.7301C12.294 16.5227 12.3764 16.3238 12.523 16.1772C12.6697 16.0305 12.8686 15.9481 13.076 15.9481H27.619C27.8264 15.9481 28.0253 16.0305 28.172 16.1772C28.3186 16.3238 28.401 16.5227 28.401 16.7301C28.401 16.9375 28.3186 17.1364 28.172 17.2831C28.0253 17.4297 27.8264 17.5121 27.619 17.5121Z" fill="#75C6E5"/>
<path d="M39.366 36.138C39.366 40.078 36.166 43.278 32.226 43.278C29.446 43.278 27.036 41.688 25.856 39.358H24.966C24.666 39.358 24.366 39.268 24.116 39.098L23.096 38.408L22.246 38.978C21.986 39.158 21.696 39.248 21.386 39.248C21.076 39.248 20.786 39.158 20.536 38.978L19.676 38.408L18.816 38.988C18.566 39.158 18.266 39.248 17.966 39.248C17.656 39.248 17.366 39.158 17.106 38.988L16.256 38.408L15.236 39.098C14.976 39.268 14.686 39.358 14.376 39.358H13.806C13.336 39.358 12.866 39.158 12.536 38.818L11.136 37.368C10.8093 37.0401 10.6259 36.596 10.6259 36.133C10.6259 35.6701 10.8093 35.226 11.136 34.898L12.536 33.458C12.876 33.118 13.336 32.928 13.806 32.928H25.856C26.4493 31.747 27.3591 30.7541 28.4839 30.0601C29.6088 29.3662 30.9043 28.9985 32.226 28.998C36.166 28.998 39.366 32.198 39.366 36.138Z" fill="#75C6E5"/>
<path d="M32.226 29.998C29.616 29.998 27.386 31.628 26.506 33.928H13.806C13.596 33.928 13.396 34.008 13.256 34.158L11.846 35.598C11.556 35.898 11.556 36.378 11.846 36.678L13.256 38.118C13.396 38.268 13.596 38.358 13.806 38.358H14.376C14.486 38.358 14.586 38.318 14.676 38.268L15.956 37.398C16.136 37.278 16.366 37.278 16.546 37.398L17.666 38.158C17.846 38.278 18.086 38.278 18.266 38.158L19.386 37.398C19.566 37.278 19.796 37.278 19.976 37.398L21.086 38.158C21.266 38.278 21.506 38.278 21.686 38.158L22.796 37.398C22.976 37.278 23.216 37.278 23.396 37.398L24.666 38.268C24.756 38.318 24.856 38.358 24.966 38.358H26.506C27.396 40.658 29.616 42.278 32.226 42.278C35.616 42.278 38.366 39.528 38.366 36.138C38.366 32.748 35.616 29.998 32.226 29.998ZM35.406 38.328C34.636 38.328 33.996 37.348 33.996 36.138C33.996 34.938 34.636 33.958 35.406 33.958C36.186 33.958 36.816 34.938 36.816 36.138C36.816 37.348 36.186 38.328 35.406 38.328Z" fill="#75C6E5"/>
<path d="M32.226 29.998C29.616 29.998 27.386 31.628 26.506 33.928H13.806C13.596 33.928 13.396 34.008 13.256 34.158L11.846 35.598C11.556 35.898 11.556 36.378 11.846 36.678L13.256 38.118C13.396 38.268 13.596 38.358 13.806 38.358H14.376C14.486 38.358 14.586 38.318 14.676 38.268L15.956 37.398C16.136 37.278 16.366 37.278 16.546 37.398L17.666 38.158C17.846 38.278 18.086 38.278 18.266 38.158L19.386 37.398C19.566 37.278 19.796 37.278 19.976 37.398L21.086 38.158C21.266 38.278 21.506 38.278 21.686 38.158L22.796 37.398C22.976 37.278 23.216 37.278 23.396 37.398L24.666 38.268C24.756 38.318 24.856 38.358 24.966 38.358H26.506C27.396 40.658 29.616 42.278 32.226 42.278C35.616 42.278 38.366 39.528 38.366 36.138C38.366 32.748 35.616 29.998 32.226 29.998ZM35.406 38.328C34.636 38.328 33.996 37.348 33.996 36.138C33.996 34.938 34.636 33.958 35.406 33.958C36.186 33.958 36.816 34.938 36.816 36.138C36.816 37.348 36.186 38.328 35.406 38.328Z" fill="#75C6E5"/>
<path d="M38.336 35.5176C38.016 38.6076 35.406 41.0276 32.226 41.0276C29.616 41.0276 27.396 39.4076 26.506 37.1076H24.966C24.8599 37.1037 24.7567 37.0728 24.666 37.0176L23.396 36.1476C23.307 36.0889 23.2027 36.0576 23.096 36.0576C22.9894 36.0576 22.885 36.0889 22.796 36.1476L21.686 36.9076C21.506 37.0276 21.266 37.0276 21.086 36.9076L19.976 36.1476C19.8888 36.0888 19.7861 36.0575 19.681 36.0575C19.5759 36.0575 19.4732 36.0888 19.386 36.1476L18.266 36.9076C18.086 37.0276 17.846 37.0276 17.666 36.9076L16.546 36.1476C16.4588 36.089 16.3561 36.0577 16.251 36.0577C16.1459 36.0577 16.0432 36.089 15.956 36.1476L14.676 37.0176C14.5854 37.0728 14.4821 37.1037 14.376 37.1076H13.806C13.596 37.1076 13.396 37.0176 13.256 36.8676L11.926 35.5176L11.846 35.5976C11.556 35.8976 11.556 36.3776 11.846 36.6776L13.256 38.1176C13.396 38.2676 13.596 38.3576 13.806 38.3576H14.376C14.486 38.3576 14.586 38.3176 14.676 38.2676L15.956 37.3976C16.136 37.2776 16.366 37.2776 16.546 37.3976L17.666 38.1576C17.846 38.2776 18.086 38.2776 18.266 38.1576L19.386 37.3976C19.566 37.2776 19.796 37.2776 19.976 37.3976L21.086 38.1576C21.266 38.2776 21.506 38.2776 21.686 38.1576L22.796 37.3976C22.976 37.2776 23.216 37.2776 23.396 37.3976L24.666 38.2676C24.756 38.3176 24.856 38.3576 24.966 38.3576H26.506C27.396 40.6576 29.616 42.2776 32.226 42.2776C33.0847 42.2776 33.9338 42.0976 34.7186 41.7491C35.5034 41.4006 36.2063 40.8914 36.7821 40.2544C37.3579 39.6173 37.7937 38.8666 38.0613 38.0507C38.329 37.2348 38.4226 36.3719 38.336 35.5176Z" fill="#75C6E5"/>
</svg>
