<svg width="98" height="98" viewBox="0 0 98 98" fill="none" xmlns="http://www.w3.org/2000/svg">
<path d="M26.4352 60.5225C24.0718 60.4716 21.7253 60.0982 19.4703 59.3887C14.3358 57.7733 5.69132 54.2456 3.21624 48.2668C-0.374585 39.5929 0.276549 30.8313 6.0791 23.0678C11.1025 16.3468 17.9205 11.8872 25.5206 8.45358C31.6302 5.69337 37.8791 3.35566 44.3937 1.86623C53.8873 -0.304311 63.3167 -0.115726 72.3049 4.07518C78.5142 6.97038 83.5722 11.3394 87.5915 16.9348C92.8516 24.2577 95.7375 32.4057 96.7954 41.3324C97.2299 44.9986 97.0473 48.4758 95.5552 51.8134C95.0019 53.0508 93.9242 54.2897 92.6189 55.4519C87.9498 59.6092 81.8034 61.7153 75.5532 61.5807L26.4352 60.5225Z" fill="#F5F5F5"/>
<path d="M79.1825 22.2672C79.1667 20.7802 77.9578 19.5794 76.4671 19.5794C76.1129 19.5794 75.7726 19.6493 75.4604 19.7751C74.9664 17.9623 73.312 16.6248 71.3407 16.6248C69.225 16.6248 67.468 18.1627 67.1325 20.1759C66.6711 19.8031 66.0793 19.5794 65.4361 19.5794C63.9454 19.5794 62.7365 20.7802 62.7207 22.2672H79.1825ZM47.9748 13.6542C47.959 12.1667 46.7497 10.9654 45.2584 10.9654C44.9041 10.9654 44.5637 11.0354 44.2514 11.1612C43.7572 9.34777 42.1022 8.00977 40.1303 8.00977C38.0137 8.00977 36.2562 9.54823 35.9205 11.5622C35.459 11.1892 34.8669 10.9654 34.2236 10.9654C32.7323 10.9654 31.5229 12.1667 31.5071 13.6542H47.9748Z" fill="white"/>
<path d="M66.15 88.528L55.983 86.861L52.343 96.499L37.388 70.596L51.195 62.625L66.15 88.528Z" fill="#75C6E5"/>
<path d="M4.62399 88.528L14.791 86.861L18.431 96.499L33.386 70.596L19.579 62.625L4.62399 88.528Z" fill="#75C6E5"/>
<path d="M67.7382 50.5545C68.2961 51.5849 67.9528 52.8728 66.9224 53.474L61.3257 56.6963C60.4054 57.2262 59.8382 58.2073 59.8382 59.2693V65.7531C59.8382 66.9387 58.8771 67.8998 57.6915 67.8998H51.2076C50.1457 67.8998 49.1646 68.467 48.6347 69.3874L45.4124 74.9841C44.8112 76.0145 43.5232 76.358 42.4929 75.7998L36.8972 72.5441C35.9766 72.0085 34.8397 72.0071 33.9178 72.5403L28.2816 75.7998C27.251 76.358 25.963 76.0145 25.3619 74.9841L22.1398 69.3874C21.6099 68.4671 20.6288 67.8998 19.5668 67.8998H13.0828C11.8972 67.8998 10.936 66.9387 10.936 65.7531V59.2692C10.936 58.2073 10.3688 57.2262 9.44854 56.6963L3.85205 53.474C2.82141 52.8728 2.47813 51.5849 3.03629 50.5545L6.29572 44.918C6.82885 43.9961 6.82735 42.8593 6.29179 41.9387L3.03629 36.3433C2.47813 35.3129 2.82141 34.0246 3.85205 33.4238L9.44854 30.2014C10.3688 29.6715 10.936 28.6905 10.936 27.6285V21.1444C10.936 19.9588 11.8972 18.9977 13.0828 18.9977H20.1783C20.862 18.9977 21.4936 18.6325 21.8347 18.04L25.3619 11.9137C25.963 10.8833 27.251 10.5397 28.2816 11.0979L33.9178 14.3575C34.8397 14.8907 35.9766 14.8892 36.8972 14.3536L42.4929 11.0979C43.5232 10.5397 44.8112 10.8833 45.4124 11.9137L48.6347 17.5102C49.1646 18.4305 50.1457 18.9977 51.2076 18.9977H57.6915C58.8771 18.9977 59.8382 19.9588 59.8382 21.1444V27.6285C59.8382 28.6904 60.4054 29.6715 61.3257 30.2014L66.9224 33.4238C67.9528 34.0246 68.2961 35.3129 67.7382 36.3433L64.4825 41.9387C63.9469 42.8592 63.9454 43.9962 64.4786 44.9181L67.7382 50.5545Z" fill="#A0E5FF"/>
<path d="M67.7352 50.5538C68.2952 51.5839 67.9552 52.8738 66.9252 53.4739L61.3253 56.6938C60.4052 57.2239 59.8352 58.2039 59.8352 59.2639V65.7538C59.8352 66.9338 58.8753 67.9039 57.6953 67.9039H51.2052C50.1452 67.9039 49.1652 68.4639 48.6353 69.3839L45.4152 74.9838C44.8153 76.0139 43.5252 76.3539 42.4953 75.8038L36.8952 72.5438C35.9752 72.0038 34.8352 72.0038 33.9152 72.5438L28.2852 75.8038C27.2553 76.3539 25.9652 76.0139 25.3652 74.9838L22.6152 70.2139C22.6353 70.2039 22.6452 70.1938 22.6652 70.1838L28.3053 66.9238C29.2252 66.3939 30.3552 66.3939 31.2852 66.9238L36.8753 70.1838C37.9052 70.7438 39.1953 70.3939 39.7952 69.3638L43.0153 63.7739C43.5452 62.8539 44.5252 62.2839 45.5952 62.2839H52.0753C53.2653 62.2839 54.2252 61.3239 54.2252 60.1339V53.6539C54.2252 52.5939 54.7852 51.6138 55.7052 51.0839L61.3053 47.8539C62.3352 47.2538 62.6752 45.9639 62.1253 44.9338L58.8652 39.3038C58.3253 38.3839 58.3352 37.2438 58.8652 36.3239L62.1253 30.7239C62.1353 30.7039 62.1452 30.6938 62.1452 30.6738L66.9252 33.4238C67.9552 34.0239 68.2952 35.3138 67.7352 36.3439L64.4852 41.9338C63.9453 42.8539 63.9453 43.9938 64.4752 44.9139L67.7352 50.5538Z" fill="#77D9FF"/>
<path d="M35.388 63.7301C46.59 63.7301 55.671 54.6491 55.671 43.4471C55.671 32.2451 46.59 23.1641 35.388 23.1641C24.186 23.1641 15.105 32.2451 15.105 43.4471C15.105 54.6491 24.186 63.7301 35.388 63.7301Z" fill="white"/>
<path d="M42.0952 46.6745C41.9552 46.8045 41.8952 46.9845 41.9253 47.1745L43.2453 54.6945C43.3352 55.1645 42.8452 55.5145 42.4253 55.2945L35.6753 51.7345C35.5053 51.6545 35.3153 51.6545 35.1452 51.7345L28.3452 55.3045C27.9253 55.5245 27.4453 55.1645 27.5252 54.7045L28.8452 47.1745C28.8753 46.9845 28.8153 46.8045 28.6853 46.6745L23.2152 41.3445C22.8753 41.0145 23.0553 40.4445 23.5252 40.3745L31.0553 39.2745C31.2352 39.2445 31.3952 39.1345 31.4752 38.9645L34.8952 32.0845C35.1052 31.6645 35.7052 31.6645 35.9152 32.0845L39.2952 38.9645C39.3753 39.1345 39.5352 39.2445 39.7252 39.2745L47.2553 40.3745C47.7152 40.4445 47.8952 41.0145 47.5653 41.3445L42.0952 46.6745Z" fill="#5EA3BE"/>
<path d="M93.9183 72.8545V93.6301C93.9183 95.2084 92.6373 96.4894 91.059 96.4894H59.2237C57.6454 96.4894 56.3644 95.2084 56.3644 93.6301V72.8545H93.9183Z" fill="#75C6E5"/>
<path d="M93.9187 72.851V93.6258C93.9187 95.2124 92.6401 96.491 91.0629 96.491H59.2195C57.6516 96.491 56.3823 95.2311 56.3636 93.6632H88.2351C89.8123 93.6632 91.0909 92.3846 91.0909 90.8074V72.851H93.9187ZM96.4852 67.1394V71.4138C96.4852 72.2071 95.8413 72.851 95.048 72.851H55.225C54.4317 72.851 53.7878 72.2071 53.7878 71.4138V67.1394C53.7878 66.3461 54.4317 65.7021 55.225 65.7021H95.048C95.8413 65.7021 96.4852 66.3461 96.4852 67.1394Z" fill="#00ABEC"/>
<path d="M79.05 65.7041H71.231V72.8541H79.05V65.7041Z" fill="white"/>
<path d="M78.118 72.8516H72.162V96.4906H78.118V72.8516Z" fill="white"/>
<path d="M69.3685 52.8105H68.8881C65.457 52.8105 62.6892 55.5954 62.6892 59.0151V59.507C62.6892 62.9267 65.457 65.7058 68.8881 65.7058H75.5674V59.0151C75.5674 55.5954 72.7881 52.8105 69.3685 52.8105ZM72.1363 62.2747H68.8881C67.3612 62.2747 66.1203 61.0338 66.1203 59.507V59.0151C66.1203 57.4883 67.3612 56.2417 68.8881 56.2417H69.3685C70.8953 56.2417 72.1363 57.4883 72.1363 59.0151V62.2747ZM82.2467 52.8105H81.7663C78.3466 52.8105 75.5674 55.5954 75.5674 59.0151V65.7058H82.2467C85.6778 65.7058 88.4456 62.9267 88.4456 59.507V59.0151C88.4456 55.5954 85.6778 52.8105 82.2467 52.8105ZM85.0145 59.507C85.0145 61.0338 83.7735 62.2747 82.2467 62.2747H78.9986V59.0151C78.9986 57.4883 80.2395 56.2417 81.7663 56.2417H82.2467C83.7735 56.2417 85.0145 57.4883 85.0145 59.0151V59.507Z" fill="#A0E5FF"/>
<path d="M90.386 78.6661L86.842 75.8071L83.298 78.6661V65.7041H90.386V78.6661Z" fill="#5EA3BE"/>
<path d="M97.9993 96.5013C97.9993 95.9512 97.5493 95.5013 96.9993 95.5013H94.4393C94.7493 94.9413 94.9193 94.3012 94.9193 93.6312V73.8512H95.0493C96.3892 73.8512 97.4893 72.7612 97.4893 71.4112V67.1412C97.4893 65.8012 96.3892 64.7012 95.0493 64.7012H87.2292C88.5992 63.3912 89.4492 61.5512 89.4492 59.5112V59.0112C89.4492 55.0412 86.2192 51.8112 82.2493 51.8112H81.7692C79.1293 51.8112 76.8193 53.2412 75.5693 55.3712C74.3193 53.2412 72.0093 51.8112 69.3693 51.8112H68.9893C69.0392 51.2312 68.9193 50.6312 68.6193 50.0812C68.6093 50.0712 68.6093 50.0612 68.5992 50.0512L65.3392 44.4212C64.9893 43.8112 64.9893 43.0512 65.3492 42.4412L68.6193 36.8212C69.4393 35.3012 68.9193 33.4312 67.4193 32.5612L61.8292 29.3312C61.2192 28.9812 60.8392 28.3312 60.8392 27.6312V21.1412C60.8392 19.4112 59.4293 18.0013 57.6893 18.0013H51.2092C50.5093 18.0013 49.8492 17.6212 49.4993 17.0112L46.2792 11.4112C45.4092 9.92123 43.5392 9.3912 41.9893 10.2312L36.3992 13.4912C35.7792 13.8412 35.0292 13.8412 34.4193 13.4912L28.7593 10.2212C27.2393 9.3912 25.3693 9.92123 24.4993 11.4112L20.9692 17.5412C20.8093 17.8212 20.4993 18.0013 20.1793 18.0013H13.0792C11.3492 18.0013 9.93927 19.4112 9.93927 21.1412V27.6312C9.93927 28.3312 9.55927 28.9812 8.94922 29.3312L3.34924 32.5612C1.85925 33.4312 1.32922 35.3012 2.16925 36.8412L5.42926 42.4412C5.77924 43.0512 5.77924 43.8112 5.42926 44.4212L2.15924 50.0812C1.32922 51.6012 1.85925 53.4712 3.34924 54.3412L8.94922 57.5612C9.55927 57.9112 9.93927 58.5712 9.93927 59.2712V65.7512C9.93927 67.4912 11.3492 68.9012 13.0792 68.9012H14.7993L3.75928 88.0312C3.55927 88.3612 3.57922 88.7812 3.79926 89.0912C4.01923 89.4112 4.39923 89.5812 4.78925 89.5112L14.1492 87.9812L16.9893 95.5013H9.99927C9.44922 95.5013 8.99927 95.9512 8.99927 96.5013C8.99927 97.0512 9.44922 97.5013 9.99927 97.5013H18.3392C18.3492 97.5013 18.3492 97.5013 18.3492 97.5013C33.3908 97.5013 79.8863 97.5013 96.9993 97.5013C97.5493 97.5013 97.9993 97.0512 97.9993 96.5013ZM91.3892 66.7012H95.0493C95.2892 66.7012 95.4893 66.9012 95.4893 67.1412V71.4112C95.4893 71.6512 95.2892 71.8512 95.0493 71.8512H91.3892V66.7012ZM89.3892 66.7012V76.5712L87.4692 75.0312C87.1402 74.757 86.6041 74.7195 86.2092 75.0312L84.2993 76.5712V66.7012H89.3892ZM76.5693 59.0112C76.5693 56.1412 78.8992 53.8112 81.7692 53.8112H82.2493C85.1093 53.8112 87.4492 56.1412 87.4492 59.0112V59.5112C87.4492 62.3112 85.2092 64.6112 82.4293 64.7012H76.5693V59.0112ZM82.2993 66.7112V71.8512H80.0493V66.7112H82.2993ZM68.8892 53.8112H69.3693C72.2393 53.8112 74.5693 56.1412 74.5693 59.0112V64.7012H68.7092C65.9193 64.6112 63.6893 62.3112 63.6893 59.5112V59.0112C63.6893 56.4277 65.5706 54.2933 68.0192 53.8912C68.2993 53.8412 68.5892 53.8112 68.8892 53.8112ZM63.9092 64.7012H60.8392V59.2712C60.8392 58.5712 61.2192 57.9112 61.8292 57.5612H61.8392C61.7393 58.0312 61.6893 58.5112 61.6893 59.0112V59.5112C61.6893 61.5512 62.5392 63.3912 63.9092 64.7012ZM68.7092 66.7012C68.7692 66.7112 68.8292 66.7112 68.8892 66.7112H70.2292V71.8512H55.2292C54.9792 71.8512 54.7892 71.6512 54.7892 71.4112V67.1412C54.7892 67.0712 54.8093 67.0012 54.8392 66.9412C54.8492 66.9212 54.8492 66.9112 54.8693 66.9012C54.9393 66.7812 55.0693 66.7012 55.2292 66.7012H68.7092ZM13.0792 66.9012C12.4492 66.9012 11.9393 66.3812 11.9393 65.7512V59.2712C11.9393 57.8512 11.1793 56.5312 9.94922 55.8312L4.35925 52.6112C3.79926 52.2912 3.60925 51.5912 3.89923 51.0512L7.15924 45.4212C7.86926 44.1912 7.86926 42.6612 7.15924 41.4312L3.91925 35.8712C3.60925 35.3012 3.79926 34.6112 4.34924 34.2912L9.94922 31.0712C11.1793 30.3612 11.9393 29.0412 11.9393 27.6312V21.1412C11.9393 20.5112 12.4492 20.0013 13.0792 20.0013H20.1793C21.2192 20.0013 22.1793 19.4413 22.6992 18.5412L26.2292 12.4212C26.5493 11.8712 27.2393 11.6712 27.7792 11.9612L33.4193 15.2212C34.6492 15.9312 36.1693 15.9312 37.3992 15.2212L42.9692 11.9812C43.5292 11.6712 44.2292 11.8612 44.5493 12.4112L47.7692 18.0112C48.4792 19.2312 49.7892 20.0013 51.2092 20.0013H57.6893C58.3193 20.0013 58.8392 20.5112 58.8392 21.1412V27.6312C58.8392 29.0412 59.5992 30.3612 60.8292 31.0712L66.4193 34.2912C66.9692 34.6112 67.1592 35.3012 66.8693 35.8412L63.6193 41.4312C62.8992 42.6612 62.8992 44.1912 63.6093 45.4212L66.8593 51.0412C67.0392 51.3812 67.0392 51.7812 66.8793 52.1012C65.5192 52.4912 64.3193 53.2812 63.4293 54.3312L60.8292 55.8312C59.5992 56.5312 58.8392 57.8512 58.8392 59.2712V64.7012H55.2292C54.7092 64.7012 54.2092 64.8712 53.8093 65.1612C53.2493 65.5512 52.8693 66.1812 52.7993 66.9012H51.2092C49.7892 66.9012 48.4792 67.6612 47.7692 68.8912L44.5493 74.4812C44.2292 75.0312 43.5292 75.2212 42.9993 74.9312L40.0693 73.2312L37.3992 71.6812C37.1693 71.5412 36.9193 71.4312 36.6693 71.3512C36.2593 71.2112 35.8292 71.1412 35.3992 71.1412C34.9592 71.1412 34.5093 71.2212 34.0892 71.3712C33.8593 71.4412 33.6293 71.5512 33.4193 71.6712L30.6992 73.2512L27.8093 74.9212C27.2393 75.2312 26.5493 75.0312 26.2292 74.4812L23.0093 68.8912C22.2993 67.6612 20.9792 66.9012 19.5693 66.9012H13.0792ZM15.7292 86.5112C15.5792 86.1112 15.1992 85.8612 14.7892 85.8612C14.7393 85.8612 14.6793 85.8612 14.6293 85.8712L6.54926 87.2012L17.1193 68.9012H19.5693C20.2692 68.9012 20.9193 69.2812 21.2692 69.8912L24.4993 75.4912C25.3593 76.9612 27.1793 77.4812 28.7092 76.6913L18.6193 94.1712L15.7292 86.5112ZM20.1693 95.5013L32.1693 74.7012L34.4193 73.4012C35.0292 73.0512 35.7792 73.0512 36.3992 73.4112L38.5992 74.6913L50.6093 95.5013H20.1693ZM52.1492 94.1712L42.0693 76.7012C42.5392 76.9512 43.0392 77.0712 43.5392 77.0712C44.6293 77.0712 45.6893 76.5013 46.2792 75.4812L49.4993 69.8812C49.8492 69.2812 50.5093 68.9012 51.2092 68.9012H52.7892V71.4112C52.7892 72.7612 53.8793 73.8512 55.2292 73.8512H55.3593V86.0812C55.2192 86.1913 55.1093 86.3412 55.0493 86.5112L52.1492 94.1712ZM53.7892 95.5013L55.3593 91.3412V93.6312C55.3593 94.3012 55.5392 94.9413 55.8492 95.5013H53.7892ZM71.1592 95.4912H59.2192C58.1992 95.4912 57.3593 94.6512 57.3593 93.6312V73.8512H71.1592V95.4912ZM77.1193 95.4912H73.1592V73.8512H77.1193V95.4912ZM78.0493 71.8512H72.2292V66.7112H78.0493V71.8512ZM92.9193 93.6312C92.9193 94.6512 92.0892 95.4912 91.0593 95.4912H79.1193V73.8512H82.2993V78.6712C82.2993 79.0512 82.5192 79.4012 82.8693 79.5712C83.0093 79.6312 83.1492 79.6712 83.2993 79.6712C83.5192 79.6712 83.7493 79.5912 83.9293 79.4413L86.8392 77.0912L89.7593 79.4413C90.0593 79.6812 90.4692 79.7312 90.8193 79.5712C91.1592 79.4012 91.3892 79.0512 91.3892 78.6712V73.8512H92.9193V93.6312ZM1.00073 97.4995H5.48315C6.03589 97.4995 6.48315 97.0522 6.48315 96.4995C6.48315 95.9467 6.03589 95.4995 5.48315 95.4995H1.00073C0.447998 95.4995 0.000732422 95.9467 0.000732422 96.4995C0.000732422 97.0522 0.447998 97.4995 1.00073 97.4995Z" fill="#09394B"/>
<path d="M65.1193 59.5112C65.1193 61.5812 66.8093 63.2712 68.8892 63.2712H72.1392C72.6893 63.2712 73.1392 62.8312 73.1392 62.2712V59.0112C73.1392 56.9312 71.4492 55.2412 69.3693 55.2412H68.8892C66.8093 55.2412 65.1193 56.9312 65.1193 59.0112V59.5112ZM67.1193 59.0112C67.1193 58.0412 67.9092 57.2412 68.8892 57.2412H69.3693C70.3392 57.2412 71.1392 58.0412 71.1392 59.0112V61.2712H68.8892C67.9092 61.2712 67.1193 60.4812 67.1193 59.5112V59.0112ZM86.0192 59.5112V59.0112C86.0192 56.9312 84.3193 55.2412 82.2493 55.2412H81.7692C79.6893 55.2412 77.9993 56.9312 77.9993 59.0112V62.2712C77.9993 62.8312 78.4492 63.2712 78.9993 63.2712H82.2493C84.3193 63.2712 86.0192 61.5812 86.0192 59.5112ZM84.0192 59.5112C84.0192 60.4812 83.2192 61.2712 82.2493 61.2712H79.9993V59.0112C79.9993 58.0412 80.7892 57.2412 81.7692 57.2412H82.2493C83.2192 57.2412 84.0192 58.0412 84.0192 59.0112V59.5112Z" fill="#09394B"/>
</svg>
