<svg width="64" height="64" viewBox="0 0 64 64" fill="none" xmlns="http://www.w3.org/2000/svg">
<path d="M44 15V60H12L4 52V15H44Z" fill="#F0F0F0"/>
<path d="M44 31V60H42.88V58.12C40.55 57.55 38.48 56.33 36.87 54.66L35.25 55.6C34.77 55.87 34.16 55.71 33.89 55.23L31.89 51.77C31.61 51.29 31.77 50.68 32.25 50.4L33.87 49.47C33.56 48.36 33.38 47.2 33.38 46C33.38 44.8 33.56 43.64 33.87 42.53L32.25 41.6C31.77 41.32 31.61 40.71 31.89 40.23L33.89 36.77C34.16 36.29 34.77 36.13 35.25 36.4L36.87 37.34C38.48 35.67 40.55 34.45 42.88 33.88V32C42.88 31.45 43.32 31 43.88 31H44Z" fill="#D2D2D2"/>
<path d="M4 9V15H44V9C44 8.448 43.552 8 43 8H5C4.448 8 4 8.448 4 9Z" fill="#75C6E5"/>
<path d="M10 8V12C10 12.83 9.33 13.5 8.5 13.5C7.67 13.5 7 12.83 7 12V8H10ZM17 8V12C17 12.83 16.33 13.5 15.5 13.5C14.67 13.5 14 12.83 14 12V8H17ZM34 8V12C34 12.83 33.33 13.5 32.5 13.5C31.67 13.5 31 12.83 31 12V8H34ZM41 8V12C41 12.83 40.33 13.5 39.5 13.5C38.67 13.5 38 12.83 38 12V8H41Z" fill="#00C9DC"/>
<path d="M7 5.5V11C7 11.828 7.672 12.5 8.5 12.5C9.328 12.5 10 11.828 10 11V5.5C10 4.672 9.328 4 8.5 4C7.672 4 7 4.672 7 5.5ZM14 5.5V11C14 11.828 14.672 12.5 15.5 12.5C16.328 12.5 17 11.828 17 11V5.5C17 4.672 16.328 4 15.5 4C14.672 4 14 4.672 14 5.5ZM31 5.5V11C31 11.828 31.672 12.5 32.5 12.5C33.328 12.5 34 11.828 34 11V5.5C34 4.672 33.328 4 32.5 4C31.672 4 31 4.672 31 5.5ZM38 5.5V11C38 11.828 38.672 12.5 39.5 12.5C40.328 12.5 41 11.828 41 11V5.5C41 4.672 40.328 4 39.5 4C38.672 4 38 4.672 38 5.5Z" fill="#0A6E78"/>
<path d="M12 53V60L4 52H11C11.552 52 12 52.448 12 53Z" fill="#D2D2D2"/>
<path d="M37 46H18C14.141 46 11 42.86 11 39C11 35.14 14.141 32 18 32H30C32.206 32 34 30.206 34 28C34 25.794 32.206 24 30 24H12C11.447 24 11 23.552 11 23C11 22.448 11.447 22 12 22H30C33.309 22 36 24.691 36 28C36 31.309 33.309 34 30 34H18C15.243 34 13 36.243 13 39C13 41.757 15.243 44 18 44H37C37.553 44 38 44.448 38 45C38 45.552 37.553 46 37 46Z" fill="#0A6E78"/>
<path d="M59.5 49.402L57.878 48.466C58.196 47.364 58.375 46.204 58.375 45C58.375 43.796 58.195 42.636 57.878 41.534L59.5 40.598C59.978 40.322 60.142 39.71 59.866 39.232L57.866 35.768C57.59 35.29 56.978 35.126 56.5 35.402L54.876 36.339C53.268 34.668 51.2 33.451 48.875 32.877V31C48.875 30.448 48.427 30 47.875 30H43.875C43.323 30 42.875 30.448 42.875 31V32.878C40.55 33.452 38.482 34.669 36.874 36.34L35.25 35.403C34.772 35.127 34.16 35.291 33.884 35.769L31.884 39.233C31.608 39.711 31.772 40.323 32.25 40.599L33.872 41.535C33.554 42.637 33.375 43.797 33.375 45.001C33.375 46.205 33.555 47.365 33.872 48.467L32.25 49.403C31.772 49.679 31.608 50.291 31.884 50.769L33.884 54.233C34.16 54.711 34.772 54.875 35.25 54.599L36.874 53.662C38.482 55.333 40.55 56.55 42.875 57.124V59C42.875 59.552 43.323 60 43.875 60H47.875C48.427 60 48.875 59.552 48.875 59V57.122C51.2 56.548 53.268 55.331 54.876 53.66L56.5 54.597C56.978 54.873 57.59 54.709 57.866 54.231L59.866 50.767C60.142 50.29 59.978 49.678 59.5 49.402Z" fill="#00B2C3"/>
<path d="M45.875 55.5C51.1217 55.5 55.375 51.2467 55.375 46C55.375 40.7533 51.1217 36.5 45.875 36.5C40.6283 36.5 36.375 40.7533 36.375 46C36.375 51.2467 40.6283 55.5 45.875 55.5Z" fill="#009BAA"/>
<path d="M45.875 54.5C51.1217 54.5 55.375 50.2467 55.375 45C55.375 39.7533 51.1217 35.5 45.875 35.5C40.6283 35.5 36.375 39.7533 36.375 45C36.375 50.2467 40.6283 54.5 45.875 54.5Z" fill="#0A6E78"/>
<path d="M45.875 52.5C50.0171 52.5 53.375 49.1421 53.375 45C53.375 40.8579 50.0171 37.5 45.875 37.5C41.7329 37.5 38.375 40.8579 38.375 45C38.375 49.1421 41.7329 52.5 45.875 52.5Z" fill="#F0F0F0"/>
<path d="M53.375 45C53.375 45.17 53.365 45.33 53.345 45.5C53.105 41.59 49.845 38.5 45.875 38.5C41.905 38.5 38.645 41.59 38.405 45.5C38.385 45.33 38.375 45.17 38.375 45C38.375 40.86 41.735 37.5 45.875 37.5C50.015 37.5 53.375 40.86 53.375 45Z" fill="#D2D2D2"/>
<path d="M43.918 48.9573L41.918 46.9573C41.527 46.5663 41.527 45.9343 41.918 45.5433C42.309 45.1523 42.941 45.1523 43.332 45.5433L44.625 46.8362L48.418 43.0432C48.809 42.6522 49.441 42.6522 49.832 43.0432C50.223 43.4342 50.223 44.0663 49.832 44.4573L45.332 48.9573C44.941 49.3483 44.309 49.3483 43.918 48.9573Z" fill="#D2D2D2"/>
<path d="M44.625 48.2503C44.369 48.2503 44.113 48.1523 43.918 47.9573L41.918 45.9573C41.527 45.5663 41.527 44.9343 41.918 44.5433C42.309 44.1523 42.941 44.1523 43.332 44.5433L44.625 45.8362L48.418 42.0432C48.809 41.6522 49.441 41.6522 49.832 42.0432C50.223 42.4342 50.223 43.0663 49.832 43.4573L45.332 47.9573C45.137 48.1523 44.881 48.2503 44.625 48.2503Z" fill="#00B2C3"/>
<path d="M12 26C13.6569 26 15 24.6569 15 23C15 21.3431 13.6569 20 12 20C10.3431 20 9 21.3431 9 23C9 24.6569 10.3431 26 12 26Z" fill="#0AB7C8"/>
<path d="M12 25C12.5523 25 13 24.5523 13 24C13 23.4477 12.5523 23 12 23C11.4477 23 11 23.4477 11 24C11 24.5523 11.4477 25 12 25Z" fill="#0092A0"/>
<path d="M12 24C12.5523 24 13 23.5523 13 23C13 22.4477 12.5523 22 12 22C11.4477 22 11 22.4477 11 23C11 23.5523 11.4477 24 12 24Z" fill="#75C6E5"/>
<path d="M12 42C13.6569 42 15 40.6569 15 39C15 37.3431 13.6569 36 12 36C10.3431 36 9 37.3431 9 39C9 40.6569 10.3431 42 12 42Z" fill="#0AB7C8"/>
<path d="M12 41C12.5523 41 13 40.5523 13 40C13 39.4477 12.5523 39 12 39C11.4477 39 11 39.4477 11 40C11 40.5523 11.4477 41 12 41Z" fill="#0092A0"/>
<path d="M12 40C12.5523 40 13 39.5523 13 39C13 38.4477 12.5523 38 12 38C11.4477 38 11 38.4477 11 39C11 39.5523 11.4477 40 12 40Z" fill="#75C6E5"/>
<path d="M35 31C36.6569 31 38 29.6569 38 28C38 26.3431 36.6569 25 35 25C33.3431 25 32 26.3431 32 28C32 29.6569 33.3431 31 35 31Z" fill="#0AB7C8"/>
<path d="M35 30C35.5523 30 36 29.5523 36 29C36 28.4477 35.5523 28 35 28C34.4477 28 34 28.4477 34 29C34 29.5523 34.4477 30 35 30Z" fill="#0092A0"/>
<path d="M35 29C35.5523 29 36 28.5523 36 28C36 27.4477 35.5523 27 35 27C34.4477 27 34 27.4477 34 28C34 28.5523 34.4477 29 35 29Z" fill="#75C6E5"/>
<path d="M52.586 18.0003L51.172 19.4143C50.781 19.8053 50.782 20.4383 51.172 20.8283C51.562 21.2183 52.195 21.2193 52.586 20.8283L54 19.4143C54.391 19.0233 54.39 18.3903 54 18.0003C53.61 17.6093 52.977 17.6093 52.586 18.0003Z" fill="#75C6E5"/>
<path d="M46.929 17V19C46.929 19.552 47.377 20 47.929 20C48.481 20 48.929 19.553 48.929 19V17C48.929 16.448 48.481 16 47.929 16C47.377 16 46.929 16.447 46.929 17Z" fill="#00B2C3"/>
<path d="M52 24.0713C52 24.6233 52.447 25.0713 53 25.0713H55C55.552 25.0713 56 24.6243 56 24.0713C56 23.5183 55.553 23.0713 55 23.0713H53C52.448 23.0713 52 23.5193 52 24.0713Z" fill="#0AB7C8"/>
</svg>
