<svg width="264" height="264" viewBox="0 0 264 264" fill="none" xmlns="http://www.w3.org/2000/svg">
<g filter="url(#filter0_d_3797_1160)">
<circle cx="132" cy="131" r="129" fill="#5932F3"/>
<circle cx="132" cy="131" r="128.5" stroke="#0E1E2A" stroke-opacity="0.17"/>
</g>
<path fill-rule="evenodd" clip-rule="evenodd" d="M123.024 101.199C126.352 99.2853 130.265 98.5858 134.07 99.2243C137.875 99.8629 141.326 101.798 143.812 104.688C146.298 107.578 147.659 111.235 147.653 115.012L147.653 115.024C147.653 118.776 144.669 122.687 139.033 126.363C136.463 128.039 133.836 129.33 131.818 130.208C130.821 130.641 130.001 130.962 129.45 131.167C129.206 131.258 128.96 131.346 128.713 131.431C124.436 132.831 122.126 137.357 123.552 141.544C124.98 145.734 129.609 147.998 133.891 146.602L135.27 146.113C136.059 145.819 137.156 145.389 138.457 144.823C141.037 143.701 144.54 141.994 148.1 139.671C154.723 135.351 163.996 127.269 164 115.031C164.01 107.479 161.289 100.166 156.318 94.3878C151.346 88.6086 144.443 84.7376 136.833 83.4605C129.224 82.1834 121.398 83.5826 114.741 87.4102C108.085 91.2378 103.028 97.2469 100.465 104.373C98.9674 108.539 101.205 113.105 105.463 114.571C109.722 116.036 114.388 113.847 115.886 109.681C117.167 106.118 119.696 103.113 123.024 101.199ZM131.96 163.006C127.446 163.006 123.787 166.586 123.787 171.003C123.787 175.42 127.446 179 131.96 179H132.042C136.556 179 140.215 175.42 140.215 171.003C140.215 166.586 136.556 163.006 132.042 163.006H131.96Z" fill="#FCFCFD"/>
<defs>
<filter id="filter0_d_3797_1160" x="0" y="0" width="264" height="264" filterUnits="userSpaceOnUse" color-interpolation-filters="sRGB">
<feFlood flood-opacity="0" result="BackgroundImageFix"/>
<feColorMatrix in="SourceAlpha" type="matrix" values="0 0 0 0 0 0 0 0 0 0 0 0 0 0 0 0 0 0 127 0" result="hardAlpha"/>
<feOffset dy="1"/>
<feGaussianBlur stdDeviation="1.5"/>
<feColorMatrix type="matrix" values="0 0 0 0 0 0 0 0 0 0 0 0 0 0 0 0 0 0 0.04 0"/>
<feBlend mode="normal" in2="BackgroundImageFix" result="effect1_dropShadow_3797_1160"/>
<feBlend mode="normal" in="SourceGraphic" in2="effect1_dropShadow_3797_1160" result="shape"/>
</filter>
</defs>
</svg>
