<svg width="33" height="33" viewBox="0 0 33 33" fill="none" xmlns="http://www.w3.org/2000/svg">
<path d="M25.7477 4.5L17.8456 13.0368L17.5627 13.3424L17.8121 13.6759L27.0017 25.963H21.1088L14.6627 17.3442L14.3032 16.8635L13.8954 17.304L5.88011 25.963H5.14418L13.6916 16.7294L13.9745 16.4237L13.7251 16.0902L5.05683 4.5H10.9497L16.8744 12.4219L17.234 12.9027L17.6418 12.4621L25.0117 4.5H25.7477ZM7.14467 5.04583H6.14635L6.74427 5.8453L21.2321 25.2164L21.3821 25.417H21.6325H24.9134H25.9117L25.3138 24.6175L10.826 5.24637L10.676 5.04583H10.4256H7.14467Z" fill="#98E1E3" stroke="#5CE1E6"/>
</svg>
