<svg width="32" height="33" viewBox="0 0 32 33" fill="none" xmlns="http://www.w3.org/2000/svg">
<path d="M15.6651 12.6508C13.4328 12.6508 11.611 14.4995 11.611 16.7649C11.611 19.0303 13.4328 20.879 15.6651 20.879C17.8975 20.879 19.7193 19.0303 19.7193 16.7649C19.7193 14.4995 17.8975 12.6508 15.6651 12.6508ZM27.8247 16.7649C27.8247 15.0612 27.8399 13.373 27.7456 11.6724C27.6513 9.69709 27.2072 7.94403 25.7839 6.49961C24.3575 5.0521 22.633 4.60458 20.6865 4.5089C19.0076 4.41322 17.344 4.42865 15.6682 4.42865C13.9893 4.42865 12.3257 4.41322 10.6499 4.5089C8.70339 4.60458 6.97587 5.05519 5.5525 6.49961C4.12609 7.94712 3.68508 9.69709 3.5908 11.6724C3.49652 13.3761 3.51172 15.0643 3.51172 16.7649C3.51172 18.4655 3.49652 20.1568 3.5908 21.8574C3.68508 23.8327 4.12913 25.5858 5.5525 27.0302C6.97892 28.4777 8.70339 28.9252 10.6499 29.0209C12.3287 29.1166 13.9924 29.1011 15.6682 29.1011C17.347 29.1011 19.0107 29.1166 20.6865 29.0209C22.633 28.9252 24.3605 28.4746 25.7839 27.0302C27.2103 25.5827 27.6513 23.8327 27.7456 21.8574C27.8429 20.1568 27.8247 18.4686 27.8247 16.7649ZM15.6651 23.095C12.2132 23.095 9.42724 20.2679 9.42724 16.7649C9.42724 13.2619 12.2132 10.4347 15.6651 10.4347C19.1171 10.4347 21.9031 13.2619 21.9031 16.7649C21.9031 20.2679 19.1171 23.095 15.6651 23.095ZM22.1585 11.6539C21.3526 11.6539 20.7017 10.9934 20.7017 10.1755C20.7017 9.35759 21.3526 8.69711 22.1585 8.69711C22.9645 8.69711 23.6154 9.35759 23.6154 10.1755C23.6156 10.3697 23.5781 10.562 23.505 10.7415C23.4318 10.921 23.3245 11.0841 23.1892 11.2214C23.0539 11.3587 22.8932 11.4676 22.7163 11.5418C22.5395 11.616 22.3499 11.6541 22.1585 11.6539Z" fill="#5CE1E6"/>
</svg>
