<svg width="32" height="33" viewBox="0 0 32 33" fill="none" xmlns="http://www.w3.org/2000/svg">
<path d="M16 5C13.1506 5.00012 10.3942 6.01413 8.22399 7.8606C6.05381 9.70706 4.61146 12.2655 4.15502 15.0781C3.69858 17.8907 4.25784 20.774 5.73273 23.212C7.20762 25.65 9.50189 27.4836 12.205 28.3848C12.805 28.4898 13.03 28.1299 13.03 27.8148C13.03 27.5298 13.015 26.5848 13.015 25.5799C10 26.1348 9.22003 24.8449 8.98003 24.1699C8.71372 23.5134 8.29156 22.9316 7.75004 22.4749C7.33004 22.2499 6.73004 21.6949 7.73503 21.6799C8.11877 21.7215 8.48682 21.8551 8.80799 22.0692C9.12916 22.2833 9.39398 22.5717 9.58002 22.9099C9.74415 23.2047 9.96484 23.4643 10.2294 23.6737C10.4941 23.8831 10.7974 24.0382 11.1221 24.1301C11.4467 24.2221 11.7863 24.2491 12.1215 24.2096C12.4566 24.1701 12.7806 24.0648 13.075 23.8999C13.1269 23.2898 13.3988 22.7194 13.84 22.2949C11.17 21.9949 8.38003 20.9599 8.38003 16.37C8.36317 15.1773 8.80325 14.0235 9.61002 13.145C9.24316 12.1084 9.28609 10.9709 9.73002 9.965C9.73002 9.965 10.735 9.64999 13.03 11.195C14.9935 10.655 17.0664 10.655 19.03 11.195C21.3249 9.635 22.3299 9.965 22.3299 9.965C22.7739 10.9709 22.8169 12.1085 22.4499 13.145C23.2591 14.022 23.6996 15.1768 23.6799 16.37C23.6799 20.9749 20.8749 21.9949 18.205 22.2949C18.4913 22.5852 18.7119 22.9337 18.8517 23.3167C18.9914 23.6998 19.0471 24.1084 19.015 24.5149C19.015 26.1199 18.9999 27.4099 18.9999 27.8149C18.9999 28.1299 19.2249 28.5049 19.8249 28.3849C22.5233 27.4763 24.811 25.6384 26.2796 23.1991C27.7482 20.7599 28.3022 17.8781 27.8426 15.0682C27.3829 12.2583 25.9397 9.70321 23.7705 7.85899C21.6013 6.01477 18.8472 5.00148 16 5Z" fill="#5CE1E6"/>
</svg>
