<svg width="20" height="16" viewBox="0 0 20 16" fill="none" xmlns="http://www.w3.org/2000/svg">
<path d="M19.209 2.41736H20V0.0839844H12.5198L10.0339 9.25061H9.96594L7.50269 0.0839844H0V2.4173H0.76837C0.945999 2.44621 1.1108 2.52796 1.2413 2.65188C1.3718 2.77581 1.46195 2.93617 1.5 3.11206V12.9424C1.4596 13.112 1.36749 13.2648 1.23642 13.3798C1.10534 13.4947 0.941782 13.5661 0.76837 13.584H0V15.9174H6V13.584H4.5V3.25067H4.58752L8.0451 15.9174H10.7571L14.2599 3.25067H14.3334V13.584H12.8334V15.9174H20V13.584H19.209C19.0396 13.5619 18.8809 13.4887 18.7542 13.374C18.6275 13.2594 18.5388 13.1088 18.5 12.9424V3.11212C18.5367 2.93942 18.6236 2.78138 18.7497 2.6578C18.8759 2.53423 19.0356 2.45059 19.209 2.41736Z" fill="#5CE1E6"/>
</svg>
