<svg width="31" height="31" viewBox="0 0 31 31" fill="none" xmlns="http://www.w3.org/2000/svg">
<path d="M18.8962 22.3584C17.9349 23.0633 16.744 23.3815 15.5592 23.25C14.3759 23.3818 13.1864 23.064 12.2264 22.3597C11.9618 22.097 11.6039 21.9498 11.231 21.9503C10.8581 21.9508 10.5006 22.0991 10.2367 22.3626C9.97284 22.6261 9.82411 22.9834 9.82307 23.3563C9.82203 23.7292 9.96875 24.0873 10.2311 24.3523C10.9597 24.9795 11.8065 25.4544 12.7216 25.7491C13.6367 26.0438 14.6015 26.1523 15.5592 26.0682C16.517 26.1519 17.4818 26.0434 18.3971 25.749C19.3123 25.4545 20.1594 24.9801 20.8887 24.3536C21.0202 24.2229 21.1246 24.0675 21.196 23.8964C21.2673 23.7253 21.3042 23.5417 21.3046 23.3563C21.3049 23.1709 21.2686 22.9872 21.1979 22.8159C21.1272 22.6445 21.0233 22.4887 20.8923 22.3575C20.7613 22.2263 20.6057 22.1223 20.4344 22.0513C20.2631 21.9803 20.0795 21.9438 19.8941 21.9439C19.7086 21.944 19.5251 21.9806 19.3538 22.0517C19.1826 22.1229 19.0271 22.227 18.8962 22.3584ZM11.5553 19.7296C11.834 19.7296 12.1064 19.6468 12.3381 19.4919C12.5698 19.337 12.7503 19.1169 12.8569 18.8594C12.9634 18.6019 12.9913 18.3186 12.9368 18.0453C12.8824 17.7719 12.7481 17.5209 12.551 17.3239C12.3538 17.1269 12.1027 16.9928 11.8294 16.9385C11.556 16.8842 11.2727 16.9122 11.0153 17.0189C10.7578 17.1256 10.5378 17.3063 10.383 17.5381C10.2283 17.7698 10.1457 18.0423 10.1458 18.321C10.1462 18.6946 10.2949 19.0528 10.5591 19.3169C10.8234 19.581 11.1817 19.7295 11.5553 19.7296ZM20.0098 16.9115C19.7311 16.9114 19.4587 16.994 19.2269 17.1487C18.9951 17.3035 18.8145 17.5235 18.7077 17.7809C18.601 18.0384 18.573 18.3217 18.6273 18.595C18.6816 18.8684 18.8157 19.1195 19.0127 19.3166C19.2097 19.5138 19.4608 19.648 19.7341 19.7025C20.0074 19.7569 20.2907 19.7291 20.5482 19.6226C20.8057 19.516 21.0259 19.3354 21.1808 19.1038C21.3357 18.8721 21.4184 18.5997 21.4185 18.321C21.4181 17.9474 21.2696 17.5893 21.0055 17.3251C20.7414 17.0608 20.3834 16.9121 20.0098 16.9115ZM31 15.1905C31.0026 14.073 30.6528 12.9831 30.0004 12.0758C29.3481 11.1684 28.4263 10.4899 27.3661 10.1365C26.306 9.78308 25.1614 9.77287 24.0951 10.1073C23.0288 10.4417 22.0951 11.1037 21.4267 11.9993C20.0183 11.6407 18.5794 11.415 17.1289 11.325L18.3347 3.2862L21.2762 4.28642C21.2897 5.40541 21.7467 6.47332 22.5469 7.25558C23.3472 8.03784 24.4252 8.47048 25.5442 8.45847C26.6632 8.44646 27.7317 7.99078 28.515 7.19152C29.2982 6.39227 29.7322 5.3148 29.7216 4.19577V4.1641C29.6947 3.05729 29.2387 2.00426 28.45 1.22733C27.6613 0.450392 26.6015 0.0103628 25.4944 0.000141029C24.8592 0.00488792 24.2333 0.153846 23.6641 0.435775C23.0948 0.717704 22.597 1.12524 22.2083 1.62763L17.6453 0.0758229C17.45 0.0089961 17.2424 -0.0140682 17.0372 0.00826401C16.8321 0.0305962 16.6343 0.0977786 16.4579 0.205051C16.2816 0.312324 16.131 0.457062 16.0168 0.629012C15.9027 0.800962 15.8277 0.995915 15.7973 1.20006L14.2804 11.3109C12.6922 11.3804 11.1151 11.6111 9.57342 11.9993C8.7571 10.8982 7.54652 10.1555 6.19505 9.92667C4.84359 9.69784 3.45599 10.0006 2.32269 10.7716C1.18938 11.5426 0.398211 12.7221 0.114764 14.0631C-0.168683 15.4042 0.0775654 16.8029 0.801969 17.9666C0.282761 18.943 0.00763198 20.0306 8.64928e-05 21.1364C8.64928e-05 26.6668 6.80879 31 15.5 31C24.1913 31 31 26.6668 31 21.1364C30.9925 20.0309 30.7175 18.9437 30.1987 17.9675C30.7164 17.1333 30.9937 16.1723 31 15.1905ZM25.4944 2.81831C25.7731 2.81831 26.0455 2.90095 26.2772 3.05578C26.5089 3.21062 26.6895 3.43068 26.7962 3.68816C26.9028 3.94564 26.9307 4.22896 26.8764 4.50229C26.822 4.77563 26.6878 5.0267 26.4907 5.22377C26.2937 5.42083 26.0426 5.55503 25.7693 5.6094C25.4959 5.66377 25.2126 5.63587 24.9551 5.52922C24.6977 5.42257 24.4776 5.24196 24.3227 5.01024C24.1679 4.77852 24.0853 4.50609 24.0853 4.22739C24.0913 3.85558 24.2417 3.50068 24.5047 3.23773C24.7676 2.97478 25.1225 2.82438 25.4944 2.81831ZM5.32681 12.6819C5.76473 12.6873 6.19341 12.8086 6.56923 13.0335C5.20911 13.6184 3.9499 14.4144 2.83813 15.3921C2.83249 15.3247 2.81826 15.2583 2.81826 15.1905C2.81911 14.5254 3.08368 13.8878 3.55394 13.4176C4.0242 12.9473 4.66176 12.6828 5.32681 12.6819ZM15.5 28.1818C8.62523 28.1818 2.81826 24.955 2.81826 21.1364C2.81826 17.3178 8.62523 14.091 15.5 14.091C22.3748 14.091 28.1818 17.3178 28.1818 21.1364C28.1818 24.955 22.3748 28.1818 15.5 28.1818ZM28.1619 15.3922C27.0502 14.4144 25.791 13.6184 24.4308 13.0335C24.8067 12.8086 25.2353 12.6873 25.6733 12.6819C26.3383 12.6828 26.9759 12.9473 27.4461 13.4176C27.9164 13.8878 28.181 14.5254 28.1818 15.1905C28.1818 15.2582 28.1676 15.3248 28.1619 15.3922Z" fill="#5CE1E6"/>
</svg>
