<svg width="36" height="25" viewBox="0 0 36 25" fill="none" xmlns="http://www.w3.org/2000/svg">
<path d="M35.9917 8.81079C36.0726 6.4975 35.5607 4.20153 34.5036 2.13605C33.7863 1.28853 32.7909 0.716594 31.6908 0.519891C27.1405 0.111852 22.5714 -0.0553899 18.0031 0.018882C13.4514 -0.0587609 8.8987 0.103084 4.3644 0.50373C3.46794 0.664888 2.63834 1.08044 1.97681 1.69969C0.505016 3.0411 0.341483 5.33604 0.17795 7.27543C-0.0593167 10.7624 -0.0593167 14.2612 0.17795 17.7481C0.225261 18.8397 0.389715 19.9232 0.668549 20.9805C0.86573 21.7967 1.26467 22.5519 1.82963 23.1784C2.49565 23.8305 3.34458 24.2697 4.26628 24.439C7.79192 24.8691 11.3443 25.0474 14.8959 24.9724C20.6196 25.0532 25.6401 24.9724 31.5763 24.5198C32.5206 24.3609 33.3935 23.9211 34.0784 23.2592C34.5362 22.8066 34.8782 22.2525 35.0759 21.6431C35.6608 19.8695 35.948 18.0134 35.9263 16.1481C35.9917 15.2431 35.9917 9.78048 35.9917 8.81079ZM14.3072 17.1178V7.11382L23.9884 12.1401C21.2737 13.6269 17.6923 15.3077 14.3072 17.1178Z" fill="#5CE1E6"/>
</svg>
