<svg width="453" height="357" viewBox="0 0 453 357" fill="none" xmlns="http://www.w3.org/2000/svg">
<path d="M12.4753 134.056C9.27179 134.056 6.09905 132.854 3.66559 130.421C1.29374 128.049 0 124.938 0 121.611C0 118.285 1.29374 115.143 3.66559 112.802C8.53251 107.935 16.449 107.935 21.3159 112.802C23.6877 115.173 24.9815 118.285 24.9815 121.611C24.9815 124.938 23.6877 128.08 21.3159 130.421C18.8516 132.854 15.6789 134.056 12.4753 134.056ZM12.4753 114.865C10.7504 114.865 9.02537 115.512 7.73163 116.837C6.46869 118.1 5.76022 119.794 5.76022 121.58C5.76022 123.367 6.46869 125.061 7.73163 126.324C10.3499 128.942 14.6316 128.942 17.2498 126.324C18.5128 125.061 19.2213 123.367 19.2213 121.58C19.2213 119.794 18.5128 118.1 17.2498 116.837C15.9253 115.512 14.2003 114.865 12.4753 114.865ZM47.6835 169.264C44.48 169.264 41.3072 168.063 38.8738 165.629C34.0068 160.762 34.0068 152.846 38.8738 147.979C43.7407 143.112 51.6571 143.112 56.5241 147.979C61.391 152.846 61.391 160.762 56.5241 165.629C54.0906 168.063 50.8871 169.264 47.6835 169.264ZM47.6835 150.074C45.9585 150.074 44.2335 150.72 42.9398 152.045C40.3215 154.663 40.3215 158.945 42.9398 161.563C45.5581 164.181 49.8397 164.181 52.458 161.563C55.0763 158.945 55.0763 154.663 52.458 152.045C51.1335 150.751 49.4085 150.074 47.6835 150.074Z" fill="#00F6FF"/>
<path d="M54.4542 112.771L3.64618 163.551L7.71813 167.625L58.5261 116.845L54.4542 112.771Z" fill="#00F6FF"/>
<path d="M308.433 37.6726C316.974 37.6726 323.897 30.7495 323.897 22.2093C323.897 13.6692 316.974 6.74609 308.433 6.74609C299.893 6.74609 292.97 13.6692 292.97 22.2093C292.97 30.7495 299.893 37.6726 308.433 37.6726Z" fill="#00F6FF"/>
<path d="M376.693 181.616C376.693 181.616 359.875 159.9 348.601 163.412C337.327 166.923 345.089 183.403 374.876 182.294M379.404 181.616C379.404 181.616 396.223 159.9 407.497 163.412C418.771 166.923 411.008 183.403 381.222 182.294" stroke="#00DAE2" stroke-width="1.924" stroke-miterlimit="10"/>
<path d="M363.633 159.161L377.279 181.431" stroke="#00DAE2" stroke-width="1.924" stroke-miterlimit="10"/>
<path d="M392.465 159.161L378.819 181.431" stroke="#00DAE2" stroke-width="1.924" stroke-miterlimit="10"/>
<path d="M423.515 179.583H332.583V316.997H423.515V179.583Z" fill="#00D9E1"/>
<path d="M428.782 179.583H327.285V204.041H428.782V179.583Z" fill="#00D9E1"/>
<path d="M385.565 179.583H370.564V316.997H385.565V179.583Z" fill="white"/>
<path opacity="0.2" d="M332.583 204.041H423.515V225.326L332.583 210.232V204.041Z" fill="black"/>
<path d="M330.981 342.533C333.785 342.533 336.095 344.843 336.095 347.646C336.095 350.45 333.785 352.76 330.981 352.76C328.178 352.76 325.868 350.45 325.868 347.646C325.837 344.843 328.148 342.533 330.981 342.533ZM330.981 338.313C325.837 338.313 321.648 342.502 321.648 347.646C321.648 352.791 325.837 356.98 330.981 356.98C336.126 356.98 340.315 352.791 340.315 347.646C340.284 342.502 336.126 338.313 330.981 338.313Z" fill="#999999"/>
<path d="M341.116 334.185L333.107 348.786C331.967 350.88 328.794 350.049 328.794 347.677V334.185H341.116Z" fill="#2E4344"/>
<path d="M415.475 342.533C418.278 342.533 420.588 344.843 420.588 347.646C420.588 350.45 418.278 352.76 415.475 352.76C412.672 352.76 410.362 350.45 410.362 347.646C410.362 344.843 412.641 342.533 415.475 342.533ZM415.475 338.313C410.331 338.313 406.141 342.502 406.141 347.646C406.141 352.791 410.331 356.98 415.475 356.98C420.619 356.98 424.808 352.791 424.808 347.646C424.808 342.502 420.619 338.313 415.475 338.313Z" fill="#999999"/>
<path d="M425.609 334.186L417.6 348.786C416.461 350.881 413.288 350.049 413.288 347.677V334.186H425.609ZM429.121 320.109H325.837C324.852 320.109 323.989 319.431 323.773 318.476L302.673 223.879C302.519 223.263 302.673 222.616 303.074 222.092C303.474 221.6 304.09 221.292 304.706 221.292H450.159C450.806 221.292 451.422 221.6 451.792 222.092C452.192 222.585 452.346 223.232 452.192 223.879L431.092 318.476C430.969 319.431 430.106 320.109 429.121 320.109ZM327.531 315.888H427.427L447.572 225.481H307.355L327.531 315.888Z" fill="#2E4344"/>
<path d="M304.891 226.096C303.936 226.096 303.043 225.419 302.827 224.464L298.268 203.98C296.513 196.156 289.705 190.673 281.665 190.673H256.653C255.483 190.673 254.558 189.718 254.558 188.578C254.558 187.438 255.513 186.483 256.653 186.483H281.665C291.676 186.483 300.178 193.291 302.365 203.086L306.924 223.571C307.17 224.71 306.462 225.819 305.322 226.096C305.199 226.066 305.045 226.096 304.891 226.096Z" fill="#2E4344"/>
<path d="M434.049 336.28H324.482C318.845 336.28 314.286 331.69 314.286 326.084C314.286 320.478 318.876 315.888 324.482 315.888H429.121C430.291 315.888 431.215 316.843 431.215 317.983C431.215 319.153 430.26 320.077 429.121 320.077H324.482C321.186 320.077 318.475 322.757 318.475 326.053C318.475 329.349 321.155 332.06 324.482 332.06H434.049C435.22 332.06 436.144 333.015 436.144 334.155C436.144 335.356 435.22 336.28 434.049 336.28Z" fill="#2E4344"/>
<path d="M325.406 318.507C325.129 318.507 324.882 318.291 324.882 317.983V223.386C324.882 223.109 325.098 222.862 325.406 222.862C325.683 222.862 325.93 223.078 325.93 223.386V317.983C325.899 318.291 325.683 318.507 325.406 318.507ZM351.466 318.507C351.188 318.507 350.942 318.291 350.942 317.983V223.386C350.942 223.109 351.158 222.862 351.466 222.862C351.743 222.862 351.989 223.078 351.989 223.386V317.983C351.989 318.291 351.743 318.507 351.466 318.507ZM377.525 318.507C377.248 318.507 377.002 318.291 377.002 317.983V223.386C377.002 223.109 377.217 222.862 377.525 222.862C377.802 222.862 378.049 223.078 378.049 223.386V317.983C378.049 318.291 377.802 318.507 377.525 318.507ZM403.585 318.507C403.308 318.507 403.061 318.291 403.061 317.983V223.386C403.061 223.109 403.277 222.862 403.585 222.862C403.862 222.862 404.108 223.078 404.108 223.386V317.983C404.108 318.291 403.893 318.507 403.585 318.507ZM429.644 318.507C429.367 318.507 429.121 318.291 429.121 317.983V223.386C429.121 223.109 429.336 222.862 429.644 222.862C429.922 222.862 430.168 223.078 430.168 223.386V317.983C430.168 318.291 429.952 318.507 429.644 318.507Z" fill="#2E4344"/>
<path d="M446.648 239.558H308.403C308.125 239.558 307.879 239.342 307.879 239.034C307.879 238.757 308.095 238.51 308.403 238.51H446.648C446.925 238.51 447.171 238.726 447.171 239.034C447.171 239.342 446.925 239.558 446.648 239.558ZM441.781 265.648H313.239C312.961 265.648 312.715 265.432 312.715 265.124C312.715 264.847 312.931 264.601 313.239 264.601H441.781C442.058 264.601 442.305 264.816 442.305 265.124C442.305 265.402 442.089 265.648 441.781 265.648ZM436.39 291.708H318.66C318.383 291.708 318.136 291.492 318.136 291.184C318.136 290.907 318.352 290.66 318.66 290.66H436.39C436.668 290.66 436.914 290.876 436.914 291.184C436.914 291.461 436.668 291.708 436.39 291.708Z" fill="#2E4344"/>
<path opacity="0.2" d="M418.648 46.5127H343.026C338.528 46.5127 334.893 50.1475 334.893 54.6448V121.18C334.893 125.677 338.528 129.312 343.026 129.312H368.099C371.58 129.312 374.722 131.376 376.139 134.549L380.821 145.052L385.503 134.549C386.92 131.376 390.062 129.312 393.543 129.312H418.617C423.114 129.312 426.749 125.677 426.749 121.18V54.6448C426.78 50.1475 423.145 46.5127 418.648 46.5127Z" fill="black"/>
<path d="M415.752 46.5127H340.13C335.633 46.5127 331.998 50.1475 331.998 54.6448V121.18C331.998 125.677 335.633 129.312 340.13 129.312H365.204C368.685 129.312 371.827 131.376 373.244 134.549L377.926 145.052L382.608 134.549C384.025 131.376 387.167 129.312 390.647 129.312H415.721C420.219 129.312 423.853 125.677 423.853 121.18V54.6448C423.884 50.1475 420.249 46.5127 415.752 46.5127Z" fill="#00CBD3"/>
<path d="M365.111 58.5264H394.744V77.0391C394.744 81.3824 397.363 85.2636 401.398 86.8962L407.374 89.2989C411.532 90.993 414.243 94.9975 414.243 99.4639V109.044H384.117L380.421 104.392L375.862 109.044H365.142L365.111 58.5264Z" fill="#4BF8FF"/>
<path d="M365.111 101.62V109.074H375.831L380.39 104.423L384.086 109.074H414.212V101.62H365.111Z" fill="white"/>
<path d="M378.788 101.62C378.788 94.0423 372.689 87.3888 365.111 87.3271M402.445 87.3271C402.445 87.3271 396.746 90.2843 396.746 101.62" stroke="white" stroke-width="1.755" stroke-miterlimit="10"/>
<path d="M388.553 58.5264V82.1833" stroke="white" stroke-width="1.755" stroke-miterlimit="10"/>
<path d="M344.381 65.981H374.014V84.4937C374.014 88.837 376.632 92.7182 380.667 94.3508L386.643 96.7535C390.801 98.4476 393.512 102.452 393.512 106.919V116.498H363.386L359.69 111.847L355.131 116.498H344.412L344.381 65.981Z" fill="#72FAFF"/>
<path d="M344.381 109.074V116.529H355.1L359.659 111.877L363.356 116.529H393.481V109.074H344.381Z" fill="white"/>
<path d="M358.057 109.074C358.057 101.497 351.958 94.8433 344.381 94.7817M381.714 94.7817C381.714 94.7817 376.016 97.7389 376.016 109.074" stroke="white" stroke-width="1.755" stroke-miterlimit="10"/>
<path d="M367.822 65.981V89.6379" stroke="white" stroke-width="1.755" stroke-miterlimit="10"/>
<path d="M120.533 355.809H140.001L98.8785 0.0307617H79.4109C73.8663 0.0307617 69.8618 4.52804 70.5087 10.1034L109.29 345.798C109.968 351.312 114.989 355.809 120.533 355.809Z" fill="#00CBD3"/>
<path d="M288.288 355.809H142.157C136.366 355.809 131.13 351.096 130.452 345.305L91.7322 10.5039C91.0545 4.71291 95.213 0 101.035 0H247.196C252.987 0 258.224 4.71291 258.902 10.5039L297.591 345.305C298.268 351.127 294.11 355.809 288.288 355.809Z" fill="#2E4344"/>
<path d="M287.056 336.68H138.954L102.267 19.1592H250.369L287.056 336.68Z" fill="url(#paint0_linear_262_722)"/>
<path d="M129.004 250.461H277.23L287.056 336.68H138.954L129.004 250.461Z" fill="white"/>
<path d="M97.3692 155.618C94.7509 155.618 92.4099 153.493 92.1018 150.905L83.2921 74.6978C82.9841 72.0795 84.8631 69.9849 87.4813 69.9849C90.0996 69.9849 92.4407 72.1103 92.7487 74.6978L101.558 150.905C101.866 153.493 99.9875 155.618 97.3692 155.618Z" stroke="white" stroke-width="1.755" stroke-miterlimit="10"/>
<path d="M89.884 74.6055C90.0072 75.6528 89.2679 76.4537 88.2514 76.4537C87.2041 76.4537 86.28 75.622 86.1876 74.6055C86.0644 73.5582 86.8037 72.7573 87.8202 72.7573C88.8367 72.7573 89.7608 73.589 89.884 74.6055Z" stroke="white" stroke-width="1.755" stroke-miterlimit="10"/>
<path d="M183.711 11.2431H157.158C156.111 11.2431 155.187 10.4115 155.095 9.39495C154.971 8.34764 155.711 7.54675 156.727 7.54675H183.28C184.327 7.54675 185.251 8.37844 185.343 9.39495C185.497 10.3807 184.758 11.2431 183.711 11.2431ZM195.293 9.36415C195.508 11.1199 194.246 12.5369 192.49 12.5369C190.734 12.5369 189.132 11.1199 188.947 9.36415C188.732 7.60836 189.995 6.19141 191.75 6.19141C193.506 6.19141 195.108 7.60836 195.293 9.36415Z" fill="#00CBD3"/>
<path d="M243.993 319.584H178.074C168.556 319.584 159.962 311.883 158.853 302.365C157.744 292.847 164.582 285.146 174.1 285.146H240.019C249.537 285.146 258.132 292.847 259.241 302.365C260.349 311.883 253.511 319.584 243.993 319.584Z" stroke="#00DAE2" stroke-width="2.07" stroke-miterlimit="10"/>
<path d="M200.129 305.723C200.437 308.403 198.404 310.004 194.215 310.004H185.775L183.957 294.418H191.935C196.032 294.418 198.219 296.081 198.527 298.484C198.712 299.963 198.096 301.164 196.833 301.872C198.65 302.519 199.883 303.844 200.129 305.723ZM188.701 297.591L189.04 300.609H192.089C193.568 300.609 194.246 300.086 194.153 299.1C194.03 298.114 193.229 297.622 191.751 297.622L188.701 297.591ZM195.601 305.261C195.478 304.183 194.615 303.69 193.106 303.69H189.409L189.779 306.863H193.476C194.985 306.832 195.724 306.308 195.601 305.261ZM201.762 303.074L200.776 294.418H205.181L206.166 302.95C206.474 305.63 207.707 306.708 209.555 306.708C211.372 306.708 212.358 305.63 212.081 302.95L211.064 294.418H215.407L216.393 303.074C216.917 307.725 214.514 310.343 209.894 310.343C205.304 310.312 202.285 307.725 201.762 303.074ZM227.482 304.429L228.129 310.035H223.724L223.077 304.367L215.962 294.449H220.613L225.018 300.64L228.006 294.449H232.288L227.482 304.429Z" fill="#00CBD3"/>
<path d="M158.699 100.234H228.345L202.994 59.0188C198.65 51.9957 188.424 51.9957 184.081 59.0188L158.699 100.234Z" stroke="#00787D" stroke-width="2.404" stroke-miterlimit="10"/>
<path d="M168.186 159.407C168.186 159.407 168.894 141.202 180.107 141.202C191.319 141.202 194.646 159.407 194.646 159.407" stroke="white" stroke-width="1.445" stroke-miterlimit="10"/>
<path d="M222.862 250.462H140.001L150.505 155.156H212.358L222.862 250.462Z" fill="white"/>
<path d="M204.257 155.156L193.753 250.462H222.862L212.358 155.156H204.257Z" fill="#4BF8FF"/>
<path d="M190.611 159.407C190.611 159.407 189.902 141.202 178.69 141.202C167.477 141.202 164.151 159.407 164.151 159.407" stroke="white" stroke-width="1.445" stroke-miterlimit="10"/>
<path d="M232.565 199.944C232.565 199.944 222.862 187.407 216.362 189.44C209.863 191.473 214.329 200.992 231.518 200.345M234.136 199.944C234.136 199.944 243.839 187.407 250.338 189.44C256.838 191.473 252.371 200.992 235.183 200.345" stroke="white" stroke-width="1.71" stroke-miterlimit="10"/>
<path d="M225.018 187.007L232.904 199.852" stroke="white" stroke-width="1.71" stroke-miterlimit="10"/>
<path d="M241.652 187.007L233.797 199.852" stroke="white" stroke-width="1.71" stroke-miterlimit="10"/>
<path d="M259.579 198.804H207.121V250.461H259.579V198.804Z" fill="#00F6FF"/>
<path d="M262.629 198.804H204.072V212.912H262.629V198.804Z" fill="#00F6FF"/>
<path d="M237.678 198.804H229.022V250.461H237.678V198.804Z" fill="white"/>
<path opacity="0.2" d="M207.121 212.912H259.549V225.172L207.121 216.454V212.912Z" fill="black"/>
<path d="M236.847 125.924H150.197C148.472 125.924 147.086 124.507 147.086 122.813V98.9095C147.086 97.1845 148.503 95.7983 150.197 95.7983H236.847C238.572 95.7983 239.958 97.2153 239.958 98.9095V122.813C239.958 124.507 238.572 125.924 236.847 125.924Z" fill="white"/>
<path d="M160.547 117.391L161.84 114.557C163.227 115.574 165.26 116.252 167.231 116.252C169.449 116.252 170.373 115.512 170.373 114.496C170.373 111.446 160.886 113.541 160.886 107.473C160.886 104.7 163.103 102.39 167.755 102.39C169.819 102.39 171.913 102.883 173.423 103.838L172.252 106.703C170.743 105.84 169.172 105.409 167.724 105.409C165.506 105.409 164.613 106.241 164.613 107.257C164.613 110.276 174.1 108.181 174.1 114.188C174.1 116.929 171.852 119.24 167.169 119.24C164.613 119.27 161.995 118.5 160.547 117.391ZM189.163 115.482H181.585L180.138 118.962H176.287L183.557 102.667H187.284L194.584 118.962H190.611L189.163 115.482ZM187.992 112.648L185.405 106.395L182.818 112.648H187.992ZM198.034 102.667H201.823V115.913H209.986V118.993H198.034V102.667ZM226.466 115.974V118.993H213.836V102.698H226.158V105.748H217.594V109.29H225.172V112.216H217.594V116.005L226.466 115.974Z" fill="#4BF8FF"/>
<path d="M157.128 45.6808H135.997L102.267 19.1592H123.429L157.128 45.6808Z" fill="#2FC0C5"/>
<path d="M178.289 45.6808H157.128L123.429 19.1592H144.56L178.289 45.6808Z" fill="#64E0E5"/>
<path d="M199.421 45.6808H178.289L144.56 19.1592H165.722L199.421 45.6808Z" fill="#2FC0C5"/>
<path d="M220.582 45.6808H199.42L165.722 19.1592H186.853L220.582 45.6808Z" fill="#64E0E5"/>
<path d="M241.744 45.6808H220.582L186.853 19.1592H208.015L241.744 45.6808Z" fill="#2FC0C5"/>
<path d="M262.875 45.6808H241.744L208.015 19.1592H229.146L262.875 45.6808Z" fill="#64E0E5"/>
<path d="M284.037 45.6808H262.875L229.146 19.1592H250.308L284.037 45.6808Z" fill="#2FC0C5"/>
<path d="M146.562 66.843C140.709 66.843 135.997 62.0993 135.997 56.2774V45.7119H157.158V56.2774C157.128 62.0993 152.415 66.843 146.562 66.843Z" fill="#4BF8FF"/>
<path d="M167.693 66.843C161.84 66.843 157.128 62.0993 157.128 56.2774V45.7119H178.289V56.2774C178.289 62.0993 173.546 66.843 167.693 66.843Z" fill="#82FAFF"/>
<path d="M188.855 66.843C183.002 66.843 178.289 62.0993 178.289 56.2774V45.7119H199.451V56.2774C199.42 62.0993 194.708 66.843 188.855 66.843Z" fill="#4BF8FF"/>
<path d="M210.017 66.843C204.164 66.843 199.451 62.0993 199.451 56.2774V45.7119H220.613V56.2774C220.582 62.0993 215.839 66.843 210.017 66.843Z" fill="#82FAFF"/>
<path d="M235.614 66.843H226.681C223.324 66.843 220.582 64.1015 220.582 60.7439V45.7119H241.744V60.7439C241.744 64.1015 239.003 66.843 235.614 66.843Z" fill="#4BF8FF"/>
<path d="M252.31 66.843C246.457 66.843 241.744 62.0993 241.744 56.2774V45.7119H262.906V56.2774C262.875 62.0993 258.132 66.843 252.31 66.843Z" fill="#82FAFF"/>
<path d="M273.472 66.843C267.619 66.843 262.906 62.0993 262.906 56.2774V45.7119H284.068V56.2774C284.037 62.0993 279.293 66.843 273.472 66.843Z" fill="#4BF8FF"/>
<path d="M106.549 56.2772H135.997V45.6808L102.267 19.1592L106.549 56.2772Z" fill="#229296"/>
<path opacity="0.2" d="M173.392 305.261H47.8683C45.0652 305.261 42.7857 302.982 42.7857 300.178V225.881C42.7857 223.078 45.0652 220.798 47.8683 220.798H173.423C176.226 220.798 178.505 223.078 178.505 225.881V300.178C178.474 302.982 176.195 305.261 173.392 305.261Z" fill="black"/>
<path d="M169.973 301.595H44.4492C41.6461 301.595 39.3666 299.316 39.3666 296.513V222.215C39.3666 219.412 41.6461 217.133 44.4492 217.133H170.003C172.806 217.133 175.086 219.412 175.086 222.215V296.513C175.055 299.316 172.776 301.595 169.973 301.595Z" fill="#4BF8FF"/>
<path d="M175.055 252.772H39.3666V270.884H175.055V252.772Z" fill="#2E4344"/>
<path d="M77.347 234.876C77.347 241.406 72.0797 246.673 65.5494 246.673C59.0191 246.673 53.7517 241.406 53.7517 234.876C53.7517 228.345 59.0191 223.078 65.5494 223.078C72.0489 223.078 77.347 228.376 77.347 234.876Z" fill="white"/>
<path d="M93.6728 234.876C93.6728 241.406 88.4054 246.673 81.8751 246.673C75.3448 246.673 70.0775 241.406 70.0775 234.876C70.0775 228.345 75.3448 223.078 81.8751 223.078C88.4054 223.078 93.6728 228.376 93.6728 234.876Z" fill="#A4FCFF"/>
<path d="M70.1082 234.876C70.1082 238.202 71.5252 241.221 73.743 243.347C75.9609 241.19 77.3778 238.202 77.3778 234.876C77.3778 231.549 75.9609 228.53 73.743 226.405C71.4944 228.53 70.1082 231.549 70.1082 234.876Z" fill="#4BF8FF"/>
<path d="M138.676 282.806H105.224C103.715 282.806 102.483 281.574 102.483 280.064C102.483 278.555 103.715 277.323 105.224 277.323H138.676C140.186 277.323 141.418 278.555 141.418 280.064C141.449 281.574 140.186 282.806 138.676 282.806ZM161.04 293.402H105.224C103.715 293.402 102.483 292.17 102.483 290.661C102.483 289.151 103.715 287.919 105.224 287.919H161.04C162.549 287.919 163.781 289.151 163.781 290.661C163.781 292.17 162.549 293.402 161.04 293.402Z" stroke="#A4FCFF" stroke-width="2.353" stroke-miterlimit="10"/>
<defs>
<linearGradient id="paint0_linear_262_722" x1="102.265" y1="177.922" x2="287.062" y2="177.922" gradientUnits="userSpaceOnUse">
<stop stop-color="#9FFCFF"/>
<stop offset="0.922" stop-color="#5CE1E6"/>
</linearGradient>
</defs>
</svg>
