<svg width="426" height="426" viewBox="0 0 426 426" fill="none" xmlns="http://www.w3.org/2000/svg">
<mask id="mask0_252_1196" style="mask-type:luminance" maskUnits="userSpaceOnUse" x="0" y="0" width="426" height="426">
<path d="M426 0H0V426H426V0Z" fill="white"/>
</mask>
<g mask="url(#mask0_252_1196)">
<path d="M327.405 213C327.405 275.849 276.515 327.404 213 327.404C150.041 327.404 98.5954 276.474 98.5954 213C98.5954 163.322 130.176 121.383 173.842 105.459C186.063 101.039 199.219 98.5952 213 98.5952C226.781 98.5952 239.937 101.039 252.158 105.459C296.812 121.715 327.405 164.326 327.405 213Z" fill="#097275"/>
<path d="M317.004 213C317.004 228.549 313.572 243.317 307.436 256.578C290.951 292.251 254.862 317.004 213 317.004C171.034 317.004 134.841 292.147 118.46 256.318C112.376 243.161 108.996 228.445 108.996 213C108.996 201.144 110.972 189.755 114.664 179.147C124.389 150.858 145.917 128.081 173.479 116.796C185.647 111.752 199.011 108.996 213 108.996C226.989 108.996 240.353 111.752 252.521 116.796C280.031 128.081 301.559 150.754 311.284 178.991C314.976 189.651 317.004 201.092 317.004 213Z" fill="#04ECF4"/>
<path d="M254.601 197.398H249.401V183.831C249.401 180.279 245.928 177.772 242.558 178.896L218.2 187.013H176.599C173.728 187.013 171.398 189.343 171.398 192.213V192.198H166.198C163.338 192.198 160.998 194.538 160.998 197.398V218.199C160.998 221.111 163.338 223.399 166.198 223.399H171.398V223.414C171.398 226.285 173.728 228.615 176.599 228.615H181.799V254.6C181.799 257.512 184.139 259.8 186.999 259.8H197.399C200.26 259.8 202.6 257.512 202.6 254.6V228.615H218.2L242.558 236.737C245.928 237.861 249.401 235.354 249.401 231.802V218.199H254.601C260.322 218.199 265.002 213.571 265.002 207.798C265.002 202.078 260.322 197.398 254.601 197.398Z" fill="#1ABBC0"/>
<path d="M218.194 222.282H176.644C173.777 222.282 171.45 219.955 171.45 217.088V185.926C171.45 183.059 173.777 180.732 176.644 180.732H218.194V222.282Z" fill="#26A6AA"/>
<path d="M202.613 222.267V248.235C202.613 251.144 200.275 253.429 197.419 253.429H187.032C184.175 253.429 181.838 251.144 181.838 248.235V222.267H202.613Z" fill="#097275"/>
<path d="M171.45 185.911V217.073H166.257C163.4 217.073 161.063 214.788 161.063 211.879V191.104C161.063 188.248 163.4 185.911 166.257 185.911H171.45Z" fill="#097275"/>
<path d="M202.613 222.267V227.46H181.838V222.267H202.613Z" fill="#00585B"/>
<path d="M218.194 222.282L242.521 230.389C245.886 231.511 249.356 229.013 249.356 225.466V177.549C249.356 174.002 245.886 171.503 242.521 172.625L218.194 180.733V222.282Z" fill="#097275"/>
<path d="M264.937 201.492C264.937 207.257 260.263 211.879 254.55 211.879H249.356V191.104H254.55C260.263 191.104 264.937 195.779 264.937 201.492Z" fill="#26A6AA"/>
<path d="M254.55 191.104V211.879H249.356V191.104H254.55Z" fill="#2A7073"/>
<g opacity="0.2">
<path d="M252.781 112.584C252.781 134.482 235.044 152.365 213 152.365C191.066 152.365 173.219 134.544 173.219 112.584C173.219 90.5453 191.315 72.8022 213 72.8022C234.966 72.8022 252.781 90.6181 252.781 112.584Z" fill="black"/>
</g>
<g opacity="0.2">
<path d="M357.696 218.407C357.696 240.305 339.958 258.189 317.914 258.189C295.98 258.189 278.133 240.368 278.133 218.407C278.133 196.369 296.229 178.626 317.914 178.626C339.88 178.626 357.696 196.442 357.696 218.407Z" fill="black"/>
</g>
<g opacity="0.2">
<path d="M146.957 218.407C146.957 240.305 129.219 258.189 107.176 258.189C85.2413 258.189 67.3942 240.368 67.3942 218.407C67.3942 196.369 85.4909 178.626 107.176 178.626C129.141 178.626 146.957 196.442 146.957 218.407Z" fill="black"/>
</g>
<path d="M252.781 107.175C252.781 129.073 235.044 146.957 213 146.957C191.066 146.957 173.219 129.136 173.219 107.175C173.219 85.1371 191.315 67.394 213 67.394C234.966 67.394 252.781 85.2099 252.781 107.175Z" fill="#5CE1E6"/>
<path d="M244.201 107.176C244.201 115.735 240.774 123.468 235.142 129.157C229.511 134.846 221.669 138.377 213 138.377C204.331 138.377 196.599 134.846 190.967 129.266C185.278 123.577 181.799 115.735 181.799 107.176C181.799 89.8903 195.99 75.9746 213 75.9746C230.228 75.9746 244.201 89.9475 244.201 107.176Z" fill="#EFEFEF"/>
<path d="M357.696 212.999C357.696 234.897 339.958 252.781 317.914 252.781C295.98 252.781 278.133 234.96 278.133 212.999C278.133 190.961 296.229 173.218 317.914 173.218C339.88 173.218 357.696 191.034 357.696 212.999Z" fill="#5CE1E6"/>
<path d="M349.115 212.999C349.115 221.559 345.688 229.292 340.057 234.981C334.425 240.67 326.583 244.201 317.914 244.201C309.245 244.201 301.513 240.67 295.881 235.09C290.192 229.401 286.713 221.559 286.713 212.999C286.713 195.714 300.904 181.798 317.914 181.798C335.142 181.798 349.115 195.771 349.115 212.999Z" fill="#EFEFEF"/>
<path d="M146.957 212.999C146.957 234.897 129.219 252.781 107.176 252.781C85.2412 252.781 67.3942 234.96 67.3942 212.999C67.3942 190.961 85.4908 173.218 107.176 173.218C129.141 173.218 146.957 191.034 146.957 212.999Z" fill="#5CE1E6"/>
<path d="M138.377 212.999C138.377 221.559 134.95 229.292 129.318 234.981C123.686 240.67 115.844 244.201 107.176 244.201C98.5069 244.201 90.7742 240.67 85.1424 235.09C79.4534 229.401 75.9745 221.559 75.9745 212.999C75.9745 195.714 90.1658 181.798 107.176 181.798C124.404 181.798 138.377 195.771 138.377 212.999Z" fill="#EFEFEF"/>
<path d="M252.781 318.824C252.781 340.722 235.044 358.606 213 358.606C191.066 358.606 173.219 340.785 173.219 318.824C173.219 296.786 191.315 279.043 213 279.043C234.966 279.043 252.781 296.859 252.781 318.824Z" fill="#5CE1E6"/>
<path d="M244.201 318.824C244.201 327.384 240.774 335.116 235.142 340.805C229.511 346.494 221.669 350.025 213 350.025C204.331 350.025 196.599 346.494 190.967 340.915C185.278 335.226 181.799 327.384 181.799 318.824C181.799 301.539 195.99 287.623 213 287.623C230.228 287.623 244.201 301.596 244.201 318.824Z" fill="#EFEFEF"/>
<path d="M235.148 118.221V129.157C229.516 134.846 221.669 138.377 213 138.377C204.331 138.377 196.599 134.846 190.967 129.266V118.221C190.967 112.147 195.938 107.176 202.012 107.176H224.102C230.176 107.176 235.148 112.147 235.148 118.221Z" fill="#26A6AA"/>
<path d="M213.057 107.175C206.957 107.175 202.012 102.23 202.012 96.1303V90.6077C202.012 84.5079 206.957 79.5625 213.057 79.5625C219.157 79.5625 224.102 84.5079 224.102 90.6077V96.1303C224.102 102.23 219.157 107.175 213.057 107.175Z" fill="#9DEDEF"/>
<path d="M340.062 224.045V234.981C334.43 240.67 326.583 244.201 317.914 244.201C309.245 244.201 301.513 240.67 295.881 235.09V224.045C295.881 217.971 300.852 213 306.926 213H329.017C335.09 213 340.062 217.971 340.062 224.045Z" fill="#26A6AA"/>
<path d="M317.971 213C311.871 212.996 306.929 208.047 306.933 201.948L306.937 196.425C306.941 190.325 311.889 185.383 317.989 185.387C324.089 185.391 329.031 190.34 329.027 196.439L329.024 201.962C329.02 208.062 324.071 213.004 317.971 213Z" fill="#9DEDEF"/>
<path d="M129.323 224.045V234.981C123.691 240.67 115.844 244.201 107.176 244.201C98.5069 244.201 90.7742 240.67 85.1424 235.09V224.045C85.1424 217.971 90.1138 213 96.1876 213H118.278C124.352 213 129.323 217.971 129.323 224.045Z" fill="#26A6AA"/>
<path d="M107.241 213C101.142 213.102 96.1145 208.24 96.0123 202.141L95.9198 196.619C95.8175 190.52 100.679 185.493 106.778 185.391C112.877 185.288 117.905 190.15 118.007 196.249L118.1 201.771C118.202 207.87 113.34 212.897 107.241 213Z" fill="#9DEDEF"/>
<path d="M235.148 329.869V340.805C229.516 346.494 221.669 350.025 213 350.025C204.331 350.025 196.599 346.494 190.967 340.915V329.869C190.967 323.796 195.938 318.824 202.012 318.824H224.102C230.176 318.824 235.148 323.796 235.148 329.869Z" fill="#26A6AA"/>
<path d="M213.051 318.824C206.968 318.375 202.4 313.079 202.849 306.996L203.256 301.488C203.705 295.405 209 290.837 215.084 291.286C221.167 291.735 225.735 297.031 225.286 303.114L224.88 308.622C224.431 314.705 219.135 319.273 213.051 318.824Z" fill="#9DEDEF"/>
</g>
</svg>
