<svg width="338" height="304" viewBox="0 0 338 304" fill="none" xmlns="http://www.w3.org/2000/svg">
<path d="M225.286 45.6486C209.908 45.8931 195.1 39.3231 185.17 28.2081C177.503 19.6266 167.654 12.4101 155.842 7.36111C119.68 -8.09638 77.6905 2.71261 56.098 32.9961C41.4775 53.5011 39.4495 78.0336 47.755 99.4401C52.966 112.871 47.335 127.844 33.844 134.219C24.202 138.776 15.79 145.736 9.74051 154.838C-5.3675 177.571 -0.855508 207.391 19.504 227.021C21.7075 229.147 24.001 231.041 26.3665 232.726C37.738 240.827 53.5555 243.385 55.81 256.436C59.188 275.986 66.8545 288.623 88.1425 296.887C130.543 313.345 147.73 296.695 169.301 279.46C179.767 271.099 202.834 269.549 216.264 273.326C218.34 273.91 220.221 274.336 221.746 274.517C249.57 277.831 277.763 265.817 292.198 241.952C303.225 223.72 303.798 202.55 295.76 184.3C289.186 169.37 288.379 152.815 294.635 138.02C295.189 136.711 295.704 135.37 296.174 133.996C306.127 105.005 293.375 72.5826 265.213 56.1111C252.672 48.7761 238.816 45.4341 225.286 45.6486Z" fill="#DCFCFD"/>
<path d="M277.28 136.042L287.721 136.036C288.516 136.036 289.161 135.393 289.161 134.598L289.199 68.7057C289.199 67.9092 288.555 67.2642 287.759 67.2642L277.317 67.2702C276.522 67.2702 275.877 67.9137 275.877 68.7087L275.84 134.601C275.84 135.397 276.483 136.042 277.28 136.042Z" fill="#DAF4F5"/>
<path d="M277.278 136.416C276.794 136.416 276.339 136.228 275.997 135.885C275.654 135.541 275.466 135.087 275.466 134.602L275.505 68.7086C275.505 67.7096 276.318 66.8966 277.317 66.8966L287.76 66.8906C288.244 66.8906 288.699 67.0796 289.043 67.4231C289.386 67.7666 289.574 68.2211 289.574 68.7056L289.535 134.599C289.535 135.598 288.722 136.411 287.722 136.411L277.28 136.416H277.278ZM287.76 67.6376L277.317 67.6436C276.729 67.6436 276.252 68.1206 276.252 68.7086L276.213 134.602C276.212 134.887 276.324 135.156 276.525 135.357C276.726 135.558 276.994 135.669 277.278 135.669H277.28L287.722 135.663C288.311 135.663 288.787 135.187 288.787 134.599L288.826 68.7056C288.828 68.4206 288.715 68.1521 288.514 67.9511C288.314 67.7486 288.045 67.6376 287.76 67.6376Z" fill="#90BEC0"/>
<path d="M238.74 111.936V104.994C238.74 104.346 238.213 103.819 237.565 103.819H187.354C186.706 103.819 186.18 104.346 186.18 104.994V111.936C186.18 112.584 186.706 113.11 187.354 113.11H237.565C238.213 113.11 238.74 112.584 238.74 111.936Z" fill="#DAF4F5"/>
<path d="M237.566 113.484H187.355C186.501 113.484 185.807 112.789 185.807 111.936V104.992C185.807 104.139 186.501 103.446 187.355 103.446H237.566C238.419 103.446 239.115 104.139 239.115 104.992V111.936C239.115 112.789 238.419 113.484 237.566 113.484ZM187.355 104.193C186.914 104.193 186.554 104.551 186.554 104.992V111.936C186.554 112.377 186.914 112.737 187.355 112.737H237.566C238.008 112.737 238.367 112.377 238.367 111.936V104.992C238.367 104.551 238.008 104.193 237.566 104.193H187.355Z" fill="#90BEC0"/>
<path d="M241.522 126.398V114.248C241.522 113.574 240.976 113.028 240.303 113.028H184.617C183.943 113.028 183.397 113.574 183.397 114.248V126.398C183.397 127.071 183.943 127.617 184.617 127.617H240.303C240.976 127.617 241.522 127.071 241.522 126.398Z" fill="#D9F5F6"/>
<path d="M235.957 127.005V113.64C235.957 113.301 235.683 113.028 235.345 113.028H224.821C224.484 113.028 224.209 113.301 224.209 113.64V127.005C224.209 127.344 224.482 127.617 224.821 127.617H235.345C235.683 127.617 235.957 127.344 235.957 127.005Z" fill="#C0EAEB"/>
<path d="M290.106 130.051L300.945 130.072C301.452 130.074 301.865 129.663 301.866 129.156L302.054 73.5912C302.055 73.0887 301.649 72.6807 301.146 72.6792L290.307 72.6582C289.8 72.6567 289.388 73.0677 289.386 73.5747L289.199 129.139C289.197 129.642 289.604 130.05 290.106 130.051Z" fill="#D9F5F6"/>
<path d="M302 89.4789L289.332 89.4549L289.343 86.3589L302.01 86.3829L302 89.4789Z" fill="#C0EAEB"/>
<path d="M289.222 122.273L289.233 119.177L301.9 119.201L301.89 122.297L289.222 122.273Z" fill="#C0EAEB"/>
<path d="M300.948 130.447C300.946 130.447 300.945 130.447 300.943 130.447L290.106 130.425C289.762 130.423 289.441 130.29 289.198 130.047C288.957 129.804 288.823 129.481 288.825 129.139L289.012 73.5731C289.014 72.8621 289.594 72.2847 290.305 72.2847C290.304 72.2847 290.307 72.2847 290.305 72.2847L301.146 72.3056C301.489 72.3056 301.81 72.4406 302.052 72.6837C302.295 72.9281 302.428 73.2506 302.427 73.5926L302.239 129.159C302.238 129.87 301.659 130.447 300.948 130.447ZM290.305 73.0316C290.005 73.0316 289.761 73.2747 289.759 73.5746L289.572 129.141C289.57 129.283 289.627 129.418 289.728 129.52C289.828 129.621 289.963 129.678 290.107 129.678L300.945 129.7C300.945 129.7 300.945 129.7 300.946 129.7C301.246 129.7 301.491 129.456 301.492 129.156L301.678 73.5912C301.68 73.4472 301.623 73.3122 301.522 73.2101C301.422 73.1096 301.287 73.0527 301.144 73.0527L290.305 73.0316Z" fill="#90BEC0"/>
<path d="M265.225 130.054L274.854 130.072C275.305 130.074 275.671 129.709 275.673 129.258L275.839 79.8896C275.841 79.4426 275.479 79.0796 275.032 79.0781L265.402 79.0601C264.951 79.0586 264.586 79.4231 264.585 79.8746L264.418 129.243C264.417 129.69 264.778 130.053 265.225 130.054Z" fill="#C2FCFE"/>
<path d="M275.791 94.0049L264.536 93.9839L264.547 91.2329L275.801 91.2539L275.791 94.0049Z" fill="#5CE1E6"/>
<path d="M264.439 123.143L264.449 120.392L275.704 120.413L275.695 123.164L264.439 123.143Z" fill="#5CE1E6"/>
<path d="M274.858 130.447C274.857 130.447 274.855 130.447 274.854 130.447L265.224 130.428C264.571 130.426 264.043 129.895 264.045 129.243L264.21 79.873C264.211 79.219 264.745 78.6865 265.401 78.6865C265.401 78.6865 265.402 78.6865 265.404 78.6865L275.034 78.706C275.349 78.706 275.646 78.8305 275.868 79.0541C276.09 79.2775 276.214 79.5745 276.213 79.891L276.046 129.261C276.045 129.577 275.92 129.876 275.695 130.101C275.472 130.324 275.173 130.447 274.858 130.447ZM265.227 129.681L274.855 129.7C274.854 129.7 274.857 129.7 274.855 129.7C275.1 129.7 275.298 129.502 275.299 129.258L275.466 79.8881C275.467 79.7711 275.421 79.663 275.338 79.5805C275.257 79.498 275.149 79.453 275.032 79.453L265.402 79.4335C265.158 79.4335 264.96 79.6315 264.958 79.876L264.792 129.246C264.79 129.361 264.837 129.471 264.918 129.553C265 129.636 265.11 129.681 265.227 129.681Z" fill="#90BEC0"/>
<path d="M240.303 127.991H184.617C183.738 127.991 183.024 127.277 183.024 126.398V114.25C183.024 113.371 183.738 112.655 184.617 112.655H240.303C241.182 112.655 241.896 113.371 241.896 114.25V126.398C241.896 127.277 241.182 127.991 240.303 127.991ZM184.617 113.402C184.151 113.402 183.771 113.782 183.771 114.25V126.398C183.771 126.865 184.151 127.244 184.617 127.244H240.303C240.77 127.244 241.149 126.865 241.149 126.398V114.25C241.149 113.782 240.77 113.402 240.303 113.402H184.617Z" fill="#90BEC0"/>
<path d="M179.379 138.253H335.397C336.62 138.253 337.611 137.263 337.611 136.04V129.965C337.611 128.743 336.62 127.753 335.397 127.753H179.379C178.157 127.753 177.165 128.743 177.165 129.965V136.04C177.165 137.263 178.157 138.253 179.379 138.253Z" fill="#D6F3F4"/>
<path d="M335.397 138.628H179.379C177.953 138.628 176.792 137.467 176.792 136.04V129.965C176.792 128.539 177.953 127.379 179.379 127.379H335.397C336.824 127.379 337.985 128.539 337.985 129.965V136.04C337.985 137.467 336.824 138.628 335.397 138.628ZM179.379 128.126C178.365 128.126 177.539 128.951 177.539 129.965V136.04C177.539 137.054 178.365 137.881 179.379 137.881H335.397C336.411 137.881 337.238 137.054 337.238 136.04V129.965C337.238 128.951 336.411 128.126 335.397 128.126H179.379Z" fill="#90BEC0"/>
<path d="M214.864 63.1324C214.658 63.1324 214.489 62.9666 214.487 62.7598C214.486 62.5519 214.652 62.3822 214.86 62.3803L218.567 62.3462C218.756 62.3428 218.945 62.5113 218.947 62.7192C218.949 62.9271 218.782 63.0968 218.574 63.0987L214.867 63.1324C214.866 63.1324 214.865 63.1324 214.864 63.1324Z" fill="white"/>
<path d="M116.751 73.0288H100.133C99.5185 73.0288 99.0196 72.5299 99.0196 71.9153C99.0196 71.3006 99.5185 70.8018 100.133 70.8018H116.751C117.366 70.8018 117.865 71.3006 117.865 71.9153C117.865 72.5299 117.366 73.0288 116.751 73.0288Z" fill="white"/>
<path d="M72.3235 52.2627H69.3908C69.1774 52.2627 69.0043 52.0896 69.0043 51.8762C69.0043 51.6629 69.1774 51.4897 69.3908 51.4897H72.3235C72.5369 51.4897 72.71 51.6629 72.71 51.8762C72.71 52.0896 72.5369 52.2627 72.3235 52.2627Z" fill="white"/>
<path d="M124.817 62.1925H113.769C113.556 62.1925 113.384 62.0199 113.384 61.8072C113.384 61.5945 113.556 61.4219 113.769 61.4219H124.817C125.03 61.4219 125.202 61.5945 125.202 61.8072C125.202 62.0199 125.03 62.1925 124.817 62.1925Z" fill="white"/>
<path d="M249.452 196.2C249.24 196.2 249.067 196.029 249.065 195.817C249.063 195.604 249.234 195.429 249.448 195.427L253.265 195.392C253.486 195.391 253.653 195.562 253.655 195.775C253.657 195.988 253.486 196.163 253.273 196.165L249.455 196.2C249.454 196.2 249.453 196.2 249.452 196.2Z" fill="white"/>
<path d="M289.892 206.705C289.282 206.705 288.784 206.213 288.779 205.602C288.773 204.987 289.268 204.484 289.882 204.478L312.032 204.275C312.035 204.275 312.039 204.275 312.042 204.275C312.652 204.275 313.15 204.768 313.156 205.379C313.161 205.994 312.667 206.497 312.052 206.502L289.902 206.705C289.899 206.705 289.896 206.705 289.892 206.705Z" fill="white"/>
<path d="M51.6736 100.871L52.6543 97.8748C53.0546 97.8128 53.4545 97.7336 53.8541 97.6253C54.4044 97.4757 54.9283 97.2751 55.434 97.051L57.6566 99.0218C58.0075 99.3325 58.5282 99.3508 58.8994 99.0645L60.7697 97.6202C61.1408 97.3338 61.2566 96.8257 61.045 96.4074L59.6761 93.7066C60.3003 92.8915 60.8072 91.9926 61.184 91.0373L63.9677 90.8692C64.435 90.841 64.8166 90.4834 64.8764 90.0195L65.1785 87.6769C65.2383 87.213 64.9597 86.7716 64.5148 86.6257L61.8686 85.7588C61.806 85.2303 61.7185 84.6999 61.5753 84.1715C61.4213 83.6035 61.2135 83.0642 60.9794 82.544L62.6656 80.6427C62.9764 80.2918 62.9948 79.7697 62.7085 79.3986L61.2655 77.5284C60.9792 77.1573 60.4696 77.0427 60.0513 77.2543L57.7476 78.4221C56.8155 77.6917 55.7729 77.1108 54.6566 76.7119L54.5131 74.3316C54.4849 73.8643 54.1287 73.4816 53.6649 73.4218L51.3209 73.1195C50.8571 73.0597 50.4154 73.3396 50.2696 73.7844L49.4836 76.1822C49.029 76.2451 48.5743 76.3292 48.12 76.4516C47.4041 76.6459 46.7244 76.9083 46.0849 77.2274L44.2866 75.6336C43.9356 75.3229 43.4149 75.3046 43.0438 75.5909L41.1723 77.0338C40.8012 77.3201 40.6867 77.8284 40.8983 78.2467L42.1018 80.6223C41.4408 81.5383 40.9255 82.5537 40.5714 83.6295L37.9757 83.7849C37.5084 83.8131 37.1269 84.1694 37.0669 84.6346L36.7649 86.9772C36.7051 87.4411 36.9835 87.8838 37.4283 88.0297L40.1886 88.9338C40.2459 89.2582 40.3124 89.5824 40.4002 89.9055C40.59 90.605 40.8468 91.2668 41.1557 91.8931L39.2775 94.0127C38.9668 94.3636 38.9485 94.8844 39.2348 95.2555L40.6778 97.1257C40.9642 97.4968 41.4725 97.6112 41.8908 97.3997L44.6661 95.9954C45.4629 96.5565 46.3325 97.0042 47.2497 97.3377L47.43 100.324C47.4583 100.791 47.8146 101.173 48.2785 101.232L50.6211 101.534C51.0863 101.594 51.5277 101.316 51.6736 100.871ZM46.9891 86.5229C47.2738 84.3154 49.2951 82.7558 51.5026 83.0405C53.7101 83.3251 55.2697 85.3464 54.985 87.554C54.7004 89.7615 52.6791 91.321 50.4716 91.0364C48.2641 90.7517 46.7045 88.7304 46.9891 86.5229Z" fill="white"/>
<path d="M36.1308 86.8955L36.4328 84.5529C36.5317 83.7863 37.1641 83.1942 37.9362 83.1484L40.1087 83.0178C40.4288 82.1542 40.8476 81.3338 41.3595 80.5703L40.3289 78.534C39.978 77.8441 40.1699 77.001 40.7829 76.5293L42.6518 75.0861C43.2635 74.6141 44.129 74.6425 44.7074 75.1556L46.1904 76.4696C46.7615 76.2104 47.3515 75.9985 47.9524 75.8356C48.2754 75.7478 48.6204 75.6747 48.9984 75.6112L49.6626 73.5847C49.9027 72.8496 50.6346 72.3878 51.4011 72.4867L53.7451 72.7889C54.5117 72.8878 55.1038 73.5202 55.1495 74.2922L55.2669 76.261C56.165 76.6198 57.0181 77.0931 57.8125 77.6724L59.7626 76.6861C60.4524 76.3352 61.2955 76.5271 61.7687 77.139L63.2117 79.0092C63.6835 79.6222 63.6538 80.4875 63.1409 81.0646L61.7247 82.6639C61.9203 83.1343 62.072 83.5765 62.1885 84.005C62.2948 84.3991 62.3792 84.8102 62.4471 85.2774L64.7118 86.0198C65.447 86.2599 65.9087 86.9918 65.8099 87.7584L65.5078 90.101C65.4089 90.8676 64.7765 91.4597 64.0045 91.5055L61.6188 91.6496C61.294 92.3963 60.8933 93.1068 60.4223 93.7686L61.6117 96.1199C61.9628 96.8085 61.7707 97.6529 61.1575 98.126L59.2886 99.5691C58.6769 100.041 57.8116 100.011 57.2332 99.4982L55.3115 97.7961C54.8581 97.9834 54.4339 98.1281 54.0204 98.2412C53.7276 98.3197 53.4324 98.386 53.1389 98.4393L52.278 101.069C52.0379 101.804 51.3048 102.266 50.5382 102.167L48.1955 101.865C47.4289 101.766 46.8381 101.134 46.7924 100.362L46.6371 97.7859C45.9228 97.4969 45.2459 97.1428 44.6172 96.7329L42.1779 97.9691C41.488 98.32 40.6435 98.1292 40.1719 97.5149L38.7289 95.6447C38.2582 95.0332 38.2865 94.169 38.7983 93.5904L40.3982 91.785C40.1467 91.2255 39.9406 90.6521 39.7828 90.073C39.7236 89.8566 39.6763 89.6392 39.6316 89.4221L37.2287 88.6354C36.4935 88.3953 36.0319 87.6621 36.1308 86.8955ZM42.8446 80.6799L42.6177 80.9954C41.9951 81.8595 41.5104 82.8115 41.1759 83.8277L41.0398 84.2382L38.0123 84.4224C37.8499 84.4318 37.7191 84.555 37.6984 84.7161L37.3963 87.0587C37.3755 87.2198 37.4706 87.3734 37.6253 87.4238L40.7495 88.4461L40.8158 88.8232C40.8689 89.1285 40.9325 89.434 41.0147 89.7391C41.1866 90.3729 41.425 91.0033 41.7257 91.6114L41.9151 91.9964L39.7526 94.436C39.646 94.5556 39.6396 94.7384 39.7381 94.866L41.1824 96.7364C41.2807 96.8653 41.4567 96.9039 41.6007 96.8313L44.7183 95.252L45.0332 95.4735C45.7694 95.9925 46.5877 96.4176 47.467 96.7384L47.8606 96.8816L48.0652 100.284C48.0746 100.447 48.1976 100.579 48.3587 100.599L50.7014 100.902C50.8625 100.922 51.0162 100.826 51.0666 100.671L52.169 97.3051L52.5558 97.2453C52.9332 97.187 53.3112 97.1129 53.6876 97.0108C54.149 96.8854 54.6355 96.7077 55.1737 96.468L55.5491 96.3011L58.0775 98.5438C58.1998 98.6507 58.3812 98.6569 58.5089 98.5585L60.3791 97.1155C60.508 97.0172 60.5467 96.8399 60.4741 96.6958L58.9256 93.6364L59.1687 93.3177C59.7564 92.5507 60.234 91.7048 60.588 90.8034L60.7385 90.4252L63.9281 90.2328C64.0905 90.2234 64.2228 90.0991 64.2436 89.938L64.5457 87.5954C64.5664 87.4342 64.4698 87.2818 64.3152 87.2315L61.2811 86.2379L61.2329 85.8328C61.1659 85.2561 61.078 84.7798 60.958 84.3377C60.8294 83.8601 60.6456 83.3596 60.3961 82.8057L60.2279 82.43L62.1879 80.2192C62.2959 80.0984 62.2997 79.9153 62.2012 79.7877L60.7596 77.9176C60.6613 77.7887 60.4827 77.7498 60.3386 77.8224L57.6719 79.1733L57.3527 78.9234C56.4612 78.2259 55.4823 77.6836 54.4419 77.3117L54.0441 77.1693L53.8755 74.3697C53.866 74.2073 53.743 74.0752 53.5819 74.0544L51.238 73.7522C51.0769 73.7314 50.9244 73.828 50.8741 73.9827L49.9639 76.7594L49.5698 76.8143C49.0856 76.8813 48.6643 76.963 48.2851 77.066C47.6281 77.2441 46.9835 77.4899 46.3679 77.7976L45.9825 77.9896L43.8618 76.1099C43.7396 76.003 43.5594 75.997 43.4318 76.0954L41.5616 77.5384C41.4327 77.6367 41.3927 77.8139 41.4665 77.9581L42.8446 80.6799ZM46.3563 86.4414C46.6855 83.8883 49.0297 82.0784 51.5828 82.4076C54.136 82.7368 55.9457 85.0823 55.6164 87.6354C55.2872 90.1886 52.9419 91.997 50.3888 91.6677C47.8357 91.3385 46.0271 88.9945 46.3563 86.4414ZM54.3522 87.4724C54.5915 85.617 53.275 83.9124 51.4197 83.6731C49.5642 83.4339 47.8598 84.749 47.6206 86.6044C47.3813 88.4598 48.6964 90.1643 50.5518 90.4035C52.4072 90.6428 54.113 89.3278 54.3522 87.4724Z" fill="#6D9091"/>
<path d="M111.644 30.4543L113.214 30.8188C113.263 31.0197 113.322 31.2199 113.395 31.4184C113.496 31.692 113.621 31.9489 113.759 32.1965L112.856 33.4172C112.714 33.6094 112.728 33.8761 112.89 34.052L113.71 34.9392C113.872 35.1151 114.137 35.1507 114.34 35.024L115.653 34.2052C116.097 34.4861 116.577 34.7037 117.08 34.8522L117.291 36.2622C117.327 36.4991 117.526 36.6775 117.765 36.6871L118.972 36.7351C119.211 36.7446 119.423 36.5825 119.477 36.3493L119.799 34.9628C120.065 34.9074 120.332 34.8384 120.594 34.7414C120.876 34.6372 121.141 34.5079 121.395 34.365L122.44 35.1378C122.632 35.2803 122.899 35.2653 123.075 35.1029L123.962 34.2841C124.138 34.1217 124.173 33.8576 124.047 33.6541L123.349 32.5329C123.678 32.0252 123.927 31.4688 124.08 30.8824L125.286 30.7018C125.522 30.6663 125.7 30.4676 125.71 30.2286L125.758 29.0222C125.767 28.7832 125.606 28.5709 125.373 28.5167L124.116 28.2245C124.063 27.9961 124 27.7684 123.917 27.5428C123.786 27.1867 123.622 26.8527 123.43 26.5414L124.161 25.5539C124.303 25.3611 124.289 25.0944 124.126 24.9185L123.307 24.0313C123.144 23.8554 122.88 23.8198 122.677 23.9465L121.522 24.6664C121.025 24.3714 120.486 24.1549 119.922 24.0233L119.725 22.7083C119.69 22.4714 119.491 22.2935 119.252 22.284L118.045 22.2359C117.806 22.2264 117.594 22.388 117.539 22.6212L117.203 24.068C117.041 24.1116 116.879 24.1603 116.718 24.2193C116.371 24.347 116.045 24.508 115.74 24.6938L114.577 23.8332C114.384 23.6908 114.118 23.7052 113.942 23.8676L113.055 24.6869C112.879 24.8494 112.843 25.1135 112.97 25.3169L113.81 26.6662C113.561 27.0969 113.372 27.5607 113.243 28.0423L111.731 28.2687C111.494 28.3042 111.316 28.5029 111.307 28.7419L111.259 29.9489C111.249 30.1879 111.411 30.4001 111.644 30.4543ZM118.738 27.4218C119.875 27.4671 120.76 28.4252 120.715 29.5623C120.67 30.6994 119.711 31.5846 118.574 31.5394C117.437 31.4941 116.552 30.5355 116.598 29.3984C116.643 28.2613 117.601 27.3766 118.738 27.4218Z" fill="white"/>
<path d="M118.056 21.9596L119.263 22.0076C119.634 22.0224 119.944 22.3003 119.999 22.6675L120.168 23.8001C120.639 23.9257 121.091 24.1081 121.516 24.3444L122.53 23.7122C122.845 23.5149 123.258 23.5712 123.51 23.8439L124.329 24.7311C124.581 25.0038 124.604 25.4192 124.383 25.718L123.762 26.5581C123.925 26.8433 124.064 27.141 124.177 27.4469C124.239 27.6154 124.293 27.7921 124.344 27.9943L125.434 28.247C125.797 28.3307 126.049 28.6621 126.034 29.0333L125.986 30.2397C125.972 30.611 125.694 30.9206 125.326 30.9753L124.298 31.1294C124.154 31.6189 123.945 32.0899 123.675 32.5341L124.282 33.5078C124.478 33.8227 124.423 34.235 124.149 34.4873L123.263 35.3066C122.99 35.559 122.575 35.5806 122.276 35.36L121.372 34.6923C121.134 34.8187 120.909 34.9201 120.69 35.0012C120.488 35.0756 120.275 35.1376 120.029 35.1949L119.746 36.4124C119.663 36.7741 119.332 37.0265 118.961 37.0117L117.754 36.9636C117.382 36.9489 117.073 36.671 117.018 36.3032L116.833 35.0648C116.421 34.9302 116.026 34.7507 115.655 34.5306L114.486 35.2585C114.171 35.4547 113.758 35.4001 113.507 35.1269L112.687 34.2396C112.435 33.9669 112.413 33.5515 112.634 33.2527L113.432 32.1734C113.31 31.9406 113.214 31.7275 113.135 31.514C113.079 31.3599 113.03 31.205 112.988 31.0498L111.581 30.7237C111.219 30.6394 110.967 30.3092 110.982 29.938L111.03 28.731C111.045 28.3598 111.322 28.0507 111.69 27.9954L113.026 27.795C113.144 27.4011 113.299 27.0258 113.489 26.674L112.735 25.4629C112.538 25.1475 112.594 24.7352 112.867 24.4834L113.754 23.6647C114.027 23.4123 114.442 23.3896 114.741 23.6107L115.758 24.3631C116.037 24.2042 116.328 24.0685 116.622 23.9597C116.738 23.9171 116.854 23.8797 116.971 23.8457L117.27 22.5589C117.354 22.1972 117.685 21.9448 118.056 21.9596ZM121.525 24.9902L121.38 24.9048C120.908 24.6239 120.396 24.4181 119.859 24.2927L119.676 24.2496L119.452 22.7492C119.436 22.6434 119.347 22.5642 119.241 22.56L118.034 22.512C117.928 22.5077 117.833 22.5801 117.809 22.6838L117.435 24.2917L117.276 24.3348C117.122 24.3765 116.967 24.422 116.814 24.4785C116.495 24.596 116.182 24.7479 115.884 24.9299L115.725 25.0265L114.412 24.0554C114.327 23.9934 114.208 23.9989 114.129 24.0708L113.242 24.8901C113.164 24.962 113.148 25.0808 113.204 25.1712L114.133 26.6609L114.049 26.8049C113.816 27.2067 113.635 27.6475 113.51 28.1139L113.463 28.2889L111.772 28.5422C111.667 28.558 111.587 28.6463 111.583 28.7531L111.535 29.96C111.531 30.0667 111.603 30.1611 111.707 30.1852L113.442 30.5874L113.482 30.7522C113.529 30.9435 113.585 31.1339 113.655 31.3231C113.74 31.5563 113.85 31.7909 114 32.0624L114.087 32.2183L113.078 33.5814C113.015 33.667 113.022 33.7861 113.093 33.864L113.913 34.7513C113.985 34.8298 114.103 34.8453 114.194 34.7897L115.655 33.879L115.801 33.9719C116.222 34.2388 116.679 34.4463 117.159 34.5871L117.328 34.637L117.565 36.2215C117.581 36.3273 117.67 36.4065 117.776 36.4107L118.983 36.4588C119.089 36.463 119.184 36.3906 119.208 36.2869L119.569 34.728L119.743 34.6923C120.037 34.6306 120.277 34.564 120.498 34.4818C120.739 34.3936 120.987 34.2761 121.26 34.1238L121.416 34.0368L122.604 34.9154C122.69 34.9785 122.809 34.973 122.887 34.8999L123.774 34.0806C123.853 34.0087 123.868 33.8911 123.812 33.8007L123.021 32.5302L123.117 32.3828C123.435 31.8922 123.669 31.3642 123.812 30.8133L123.858 30.636L125.244 30.4285C125.349 30.4128 125.429 30.3244 125.433 30.2177L125.481 29.0113C125.486 28.9046 125.413 28.8096 125.31 28.7856L123.885 28.4553L123.846 28.2872C123.788 28.0353 123.728 27.8288 123.658 27.6378C123.536 27.3083 123.38 26.9882 123.194 26.6857L123.097 26.5271L123.939 25.3893C124.002 25.3037 123.996 25.1846 123.923 25.1067L123.104 24.2195C123.031 24.1404 122.913 24.1249 122.823 24.181L121.525 24.9902ZM118.749 27.1455C120.037 27.1968 121.043 28.2859 120.992 29.5734C120.94 30.861 119.851 31.8672 118.563 31.816C117.275 31.7647 116.27 30.675 116.321 29.3875C116.372 28.0999 117.461 27.0942 118.749 27.1455ZM118.585 31.263C119.568 31.3022 120.399 30.5347 120.439 29.5514C120.478 28.5687 119.71 27.737 118.727 27.6979C117.744 27.6588 116.913 28.4268 116.874 29.4095C116.835 30.3927 117.602 31.2239 118.585 31.263Z" fill="#6D9091"/>
<path d="M88.697 107.628L85.1735 116.888C85.0715 117.158 85.0835 117.456 85.2095 117.716C87.8045 123.092 116.057 179.591 157.124 178.878C200.242 178.13 231.053 124.47 229.235 116.66C227.417 108.849 187.597 69.2687 161.518 72.0347C136.571 74.6807 92.8235 104.555 89.0705 107.145C88.8965 107.265 88.772 107.43 88.697 107.628Z" fill="#7CCCCE"/>
<path d="M156.349 179.917C115.274 179.921 87.3475 124.519 84.28 118.163C84.0325 117.653 84.0055 117.053 84.208 116.521L87.7315 107.26C87.8815 106.865 88.1395 106.532 88.4815 106.295C93.3115 102.962 136.382 73.6613 161.409 71.0063C188.342 68.1548 228.263 107.929 230.239 116.425C231.242 120.739 224.729 133.643 215.72 145.195C205.769 157.952 184.925 179.426 157.141 179.909C156.879 179.914 156.611 179.917 156.349 179.917ZM89.662 107.993L86.1385 117.253C89.1685 123.539 116.822 178.541 157.106 177.844C184.032 177.377 204.367 156.392 214.091 143.924C223.84 131.428 228.893 119.758 228.227 116.893C226.565 109.745 187.573 70.3238 161.628 73.0598C137.108 75.6609 94.441 104.693 89.6575 107.995C89.659 107.995 89.6605 107.993 89.662 107.993Z" fill="#6D9091"/>
<path d="M179.289 145.762V127.282H134.186V145.762C134.186 156.022 125.868 164.338 115.61 164.338H103.106C92.846 164.338 84.53 172.656 84.53 182.914V236.872H228.944V182.914C228.944 172.656 220.628 164.338 210.368 164.338H197.865C187.605 164.338 179.289 156.022 179.289 145.762Z" fill="#D6F3F4"/>
<path d="M228.944 237.904H84.53C83.96 237.904 83.498 237.442 83.498 236.872V182.914C83.498 172.102 92.294 163.306 103.106 163.306H115.609C125.282 163.306 133.153 155.436 133.153 145.762V127.283C133.153 126.713 133.615 126.25 134.185 126.25H179.29C179.86 126.25 180.322 126.713 180.322 127.283V145.762C180.322 155.436 188.191 163.306 197.864 163.306H210.368C221.18 163.306 229.976 172.102 229.976 182.914V236.872C229.976 237.442 229.514 237.904 228.944 237.904ZM85.5635 235.84H227.911V182.914C227.911 173.24 220.042 165.371 210.368 165.371H197.864C187.052 165.371 178.256 156.574 178.256 145.762V128.315H135.218V145.762C135.218 156.574 126.421 165.371 115.609 165.371H103.106C93.4325 165.371 85.5635 173.24 85.5635 182.914V235.84Z" fill="#6D9091"/>
<path d="M155.94 147.509C135.267 147.509 118.508 130.75 118.508 110.077V79.6088C118.508 58.9358 135.267 42.1763 155.94 42.1763C176.613 42.1763 193.373 58.9358 193.373 79.6088V110.077C193.373 130.75 176.613 147.509 155.94 147.509Z" fill="#D6F3F4"/>
<path d="M122.888 94.3925C125.098 98.819 124.187 103.758 120.853 105.422C117.518 107.085 113.026 104.846 110.816 100.419C108.607 95.993 109.517 91.0535 112.852 89.39C116.186 87.7265 120.679 89.966 122.888 94.3925Z" fill="#D6F3F4"/>
<path d="M189.599 94.3925C187.389 98.819 188.3 103.758 191.634 105.422C194.969 107.085 199.461 104.846 201.671 100.419C203.88 95.993 202.97 91.0535 199.635 89.39C196.301 87.7265 191.808 89.966 189.599 94.3925Z" fill="#D6F3F4"/>
<path d="M155.94 148.43C134.792 148.43 117.588 131.225 117.588 110.078V106.808C114.57 106.434 111.662 104.175 109.992 100.83C108.834 98.511 108.429 95.979 108.851 93.702C109.289 91.3275 110.564 89.5035 112.44 88.5675C114.386 87.5955 116.696 87.7245 118.941 88.9305C119.39 89.1705 119.558 89.7285 119.318 90.1755C119.078 90.624 118.521 90.792 118.073 90.552C116.367 89.637 114.657 89.5185 113.262 90.2145C111.915 90.8865 110.99 92.244 110.66 94.0365C110.312 95.9235 110.66 98.0445 111.639 100.008C113.144 103.023 115.911 105.108 118.502 105.023C118.805 105.045 118.982 105.117 119.156 105.29C119.33 105.462 119.427 105.698 119.427 105.942V110.078C119.427 130.211 135.807 146.591 155.94 146.591C176.073 146.591 192.453 130.211 192.453 110.078V105.899C192.453 105.636 192.564 105.386 192.761 105.212C192.956 105.036 193.217 104.958 193.479 104.984C196.208 105.318 199.227 103.253 200.847 100.008C201.827 98.0445 202.175 95.9235 201.827 94.0365C201.495 92.244 200.571 90.8865 199.224 90.2145C197.682 89.4435 195.729 89.6895 193.871 90.888C193.445 91.161 192.875 91.041 192.599 90.612C192.324 90.1845 192.447 89.6175 192.875 89.3415C195.293 87.7845 197.907 87.4995 200.046 88.5675C201.923 89.5035 203.198 91.3275 203.636 93.702C204.056 95.979 203.651 98.511 202.494 100.83C200.727 104.372 197.465 106.721 194.292 106.85V110.078C194.292 131.225 177.089 148.43 155.94 148.43Z" fill="#6D9091"/>
<path d="M181.721 91.5136C181.574 91.5136 181.426 91.4791 181.288 91.4056C173.537 87.2506 166.507 89.4721 166.438 89.4961C165.953 89.6566 165.436 89.3926 165.277 88.9096C165.118 88.4281 165.379 87.9091 165.86 87.7501C166.177 87.6466 173.683 85.2436 182.156 89.7841C182.605 90.0241 182.773 90.5821 182.533 91.0291C182.368 91.3396 182.05 91.5136 181.721 91.5136Z" fill="#6D9091"/>
<path d="M132.224 91.5145C131.896 91.5145 131.578 91.339 131.413 91.0285C131.173 90.5815 131.341 90.0235 131.789 89.7835C140.263 85.2445 147.77 87.646 148.085 87.7495C148.567 87.9085 148.826 88.429 148.669 88.9105C148.508 89.392 147.992 89.653 147.508 89.497C147.439 89.473 140.408 87.2515 132.658 91.405C132.52 91.4785 132.371 91.5145 132.224 91.5145Z" fill="#6D9091"/>
<path d="M157.202 123.459C157.097 123.459 156.99 123.445 156.884 123.415C155.735 123.097 149.982 121.354 149.487 118.141C149.258 116.653 150.12 115.264 152.052 114.012C155.948 111.487 156.233 100.266 156.014 96.1556C155.979 95.4986 156.48 94.9391 157.137 94.9046C157.796 94.8596 158.355 95.3726 158.39 96.0281C158.478 97.6811 159.092 112.285 153.347 116.008C152.318 116.676 151.769 117.321 151.839 117.778C152.024 118.983 155.256 120.493 157.518 121.122C158.151 121.297 158.523 121.953 158.348 122.586C158.202 123.114 157.724 123.459 157.202 123.459Z" fill="#6D9091"/>
<path d="M163.525 135.852H147.796C147.287 135.852 146.876 135.441 146.876 134.932C146.876 134.424 147.287 134.013 147.796 134.013H163.525C164.033 134.013 164.444 134.424 164.444 134.932C164.444 135.441 164.033 135.852 163.525 135.852Z" fill="#6D9091"/>
<path d="M197.451 93.0845H115.038V96.551H126.937C127.32 103.587 133.129 109.179 140.262 109.179H141.46C147.805 109.179 153.102 104.754 154.465 98.825C154.765 97.5185 155.86 96.551 157.201 96.551C158.542 96.551 159.636 97.5185 159.936 98.825C161.299 104.754 166.597 109.179 172.941 109.179H174.139C181.272 109.179 187.083 103.587 187.465 96.551H197.451V93.0845Z" fill="#CEE2E2"/>
<g opacity="0.5">
<path d="M229.234 116.659C227.416 108.848 176.721 86.0828 150.642 88.8488C125.695 91.4948 92.824 104.554 89.071 107.144C88.8955 107.264 88.771 107.429 88.696 107.627L85.174 116.887C85.072 117.157 85.084 117.455 85.21 117.715C85.507 118.331 86.1445 119.624 87.0985 121.423C87.7555 122.662 133.726 99.6638 157.162 98.5658C175.81 97.6913 217.594 106.87 227.157 124.751C228.819 120.961 229.561 118.061 229.234 116.659Z" fill="#6D9091"/>
</g>
<path d="M174.138 110.101H172.94C166.253 110.101 160.538 105.55 159.039 99.032C158.828 98.114 158.07 97.472 157.199 97.472C156.327 97.472 155.571 98.114 155.36 99.032C153.861 105.55 148.145 110.101 141.458 110.101H140.261C132.978 110.101 126.914 104.621 126.09 97.472H115.035C114.527 97.472 114.116 97.0611 114.116 96.5525V93.0845C114.116 92.576 114.527 92.165 115.035 92.165H197.45C197.958 92.165 198.369 92.576 198.369 93.0845V96.5525C198.369 97.0611 197.958 97.472 197.45 97.472H188.309C187.485 104.621 181.421 110.101 174.138 110.101ZM157.199 95.6315C158.933 95.6315 160.427 96.8615 160.832 98.621C162.137 104.297 167.115 108.26 172.94 108.26H174.138C180.737 108.26 186.186 103.094 186.545 96.5015C186.572 96.014 186.975 95.6315 187.464 95.6315H196.53V94.0041H115.955V95.6315H126.935C127.424 95.6315 127.826 96.014 127.853 96.5015C128.211 103.094 133.662 108.26 140.261 108.26H141.458C147.282 108.26 152.262 104.297 153.567 98.621C153.972 96.8615 155.465 95.6315 157.199 95.6315Z" fill="#6D9091"/>
<path d="M157.078 94.2078C181.942 94.2078 213.244 102.996 229.271 116.66C219.092 66.4518 183.94 32.3223 157.078 32.3223C134.356 32.3223 96.0505 66.7473 85.0525 117.306C102.128 103.272 135.805 94.2078 157.078 94.2078Z" fill="#8BEAED"/>
<path d="M85.0525 118.339C84.8665 118.339 84.6805 118.288 84.514 118.186C84.1375 117.957 83.95 117.517 84.043 117.087C95.4355 64.7126 134.91 31.2896 157.078 31.2896C184.095 31.2896 219.957 65.5105 230.284 116.454C230.371 116.886 230.176 117.325 229.797 117.549C229.417 117.771 228.939 117.73 228.603 117.445C213.511 104.578 183.43 95.2406 157.078 95.2406C136.047 95.2406 102.349 104.428 85.708 118.104C85.519 118.26 85.2865 118.339 85.0525 118.339ZM157.078 33.3551C135.983 33.3551 98.6425 64.9496 86.7055 114.711C104.771 101.358 136.678 93.1751 157.078 93.1751C182.605 93.1751 211.627 101.841 227.656 114.034C216.811 65.647 182.781 33.3551 157.078 33.3551Z" fill="#6D9091"/>
<path d="M160.136 184.885L128.782 158.286C128.782 158.286 109.416 158.209 92.8265 165.516C56.2145 181.641 22.232 236.871 61.3505 236.871C93.1085 236.871 160.136 236.871 160.136 236.871V184.885Z" fill="#7CCCCE"/>
<path d="M160.135 237.902H61.3515C48.315 237.902 44.3175 231.913 43.26 226.888C39.6 209.495 65.7825 176.297 92.4105 164.57C108.859 157.325 128.235 157.252 128.776 157.252C128.781 157.252 128.787 157.252 128.787 157.252C129.03 157.252 129.264 157.339 129.45 157.496L160.804 184.096C161.035 184.292 161.169 184.58 161.169 184.883V236.87C161.169 237.44 160.705 237.902 160.135 237.902ZM128.407 159.32C125.655 159.361 108.186 159.88 93.243 166.46C67.332 177.872 41.781 209.836 45.2805 226.463C46.59 232.684 51.9975 235.838 61.3515 235.838H159.103V185.362L128.407 159.32Z" fill="#6D9091"/>
<path d="M152.844 184.885L184.198 158.286C184.198 158.286 203.563 158.209 220.153 165.516C256.765 181.641 290.748 236.871 251.629 236.871C219.871 236.871 152.844 236.871 152.844 236.871V184.885Z" fill="#7CCCCE"/>
<path d="M251.631 237.902H152.845C152.275 237.902 151.813 237.44 151.813 236.87V184.883C151.813 184.58 151.947 184.292 152.178 184.096L183.531 157.496C183.717 157.339 183.952 157.252 184.195 157.252C184.387 157.222 203.964 157.256 220.57 164.57C247.198 176.297 273.381 209.494 269.721 226.888C268.663 231.913 264.667 237.902 251.631 237.902ZM153.879 235.838H251.631C260.985 235.838 266.391 232.684 267.7 226.463C271.2 209.836 245.649 177.872 219.738 166.46C204.795 159.88 187.326 159.361 184.573 159.32L153.879 185.362V235.838Z" fill="#6D9091"/>
<path d="M277.356 263.039C277.08 263.039 276.814 262.928 276.619 262.725C276.388 262.485 276.288 262.149 276.352 261.822C276.558 260.76 278.44 251.378 280.947 248.966C282.277 247.685 284.023 246.989 285.876 247.034C287.722 247.07 289.444 247.821 290.725 249.153C292.006 250.484 292.692 252.236 292.656 254.084C292.62 255.93 291.868 257.652 290.536 258.933C288.03 261.345 278.581 262.862 277.512 263.027C277.459 263.034 277.408 263.039 277.356 263.039ZM285.739 249.077C284.473 249.077 283.279 249.558 282.364 250.439C281.01 251.742 279.502 256.961 278.662 260.76C282.492 260.067 287.764 258.764 289.119 257.46C290.056 256.559 290.587 255.344 290.613 254.043C290.638 252.741 290.155 251.51 289.252 250.572C288.351 249.635 287.136 249.104 285.835 249.078C285.802 249.077 285.772 249.077 285.739 249.077Z" fill="#2CEFF6"/>
<path d="M272.808 277.634H258.567C253.13 277.634 248.721 273.227 248.721 267.79V240.734H282.654V267.79C282.654 273.227 278.246 277.634 272.808 277.634Z" fill="#5CE1E6"/>
<path d="M272.808 277.634H258.567C253.13 277.634 248.721 273.227 248.721 267.79V240.734H282.654V267.79C282.654 273.227 278.246 277.634 272.808 277.634Z" fill="#9DF2F5"/>
<path d="M280.429 240.734V265.271C280.429 270.709 276.021 275.117 270.583 275.117H256.342C254.011 275.117 251.869 274.306 250.183 272.951C251.917 275.762 255.024 277.634 258.568 277.634H272.809C278.247 277.634 282.655 273.227 282.655 267.79V240.734H280.429Z" fill="#2CEFF6"/>
<path d="M251.831 262.065C251.54 262.065 251.305 261.829 251.305 261.538V256.666C251.305 256.375 251.54 256.14 251.831 256.14C252.122 256.14 252.358 256.375 252.358 256.666V261.538C252.358 261.829 252.122 262.065 251.831 262.065Z" fill="white"/>
<path d="M251.831 255.365C251.54 255.365 251.305 255.129 251.305 254.838V246.279C251.305 245.988 251.54 245.753 251.831 245.753C252.122 245.753 252.358 245.988 252.358 246.279V254.838C252.358 255.129 252.122 255.365 251.831 255.365Z" fill="white"/>
<path d="M272.808 278.235H258.569C252.809 278.235 248.121 273.547 248.121 267.787V240.732C248.121 240.399 248.39 240.13 248.723 240.13H282.654C282.987 240.13 283.256 240.399 283.256 240.732V267.787C283.256 273.547 278.568 278.235 272.808 278.235ZM249.324 241.333V267.787C249.324 272.884 253.472 277.032 258.569 277.032H272.808C277.905 277.032 282.053 272.884 282.053 267.787V241.333H249.324Z" fill="#90BEC0"/>
<path d="M283.088 244.514H247.244C245.849 244.514 244.719 243.384 244.719 241.989C244.719 240.594 245.849 239.465 247.244 239.465H283.088C284.483 239.465 285.612 240.594 285.612 241.989C285.612 243.384 284.483 244.514 283.088 244.514Z" fill="#9DF2F5"/>
<path d="M283.088 244.965H247.245C245.604 244.965 244.269 243.63 244.269 241.989C244.269 240.348 245.604 239.013 247.245 239.013H283.088C284.729 239.013 286.064 240.348 286.064 241.989C286.064 243.63 284.729 244.965 283.088 244.965ZM247.245 239.915C246.102 239.915 245.172 240.846 245.172 241.989C245.172 243.132 246.102 244.062 247.245 244.062H283.088C284.231 244.062 285.161 243.132 285.161 241.989C285.161 240.846 284.231 239.915 283.088 239.915H247.245Z" fill="#90BEC0"/>
<path d="M257.959 218.758C257.933 218.758 257.906 218.752 257.882 218.738L257.677 218.618C257.376 218.442 257.209 218.118 257.241 217.771C257.273 217.424 257.496 217.135 257.825 217.017C258.026 216.945 258.166 216.776 258.2 216.565C258.233 216.354 258.154 216.149 257.985 216.018L257.556 215.683C257.489 215.63 257.477 215.533 257.53 215.466C257.582 215.399 257.679 215.387 257.747 215.44L258.175 215.774C258.433 215.976 258.557 216.29 258.505 216.614C258.453 216.937 258.238 217.197 257.929 217.308C257.712 217.386 257.57 217.569 257.549 217.799C257.528 218.029 257.634 218.235 257.833 218.351L258.038 218.471C258.111 218.514 258.136 218.608 258.093 218.682C258.064 218.731 258.013 218.758 257.959 218.758Z" fill="#90BEC0"/>
<path d="M266.01 227.189C265.908 227.189 265.803 227.162 265.709 227.107L264.912 226.643C263.741 225.959 263.09 224.695 263.214 223.345C263.339 221.993 264.207 220.871 265.485 220.412C266.267 220.13 266.814 219.473 266.946 218.651C267.078 217.831 266.765 217.034 266.109 216.521L264.441 215.218C264.18 215.014 264.134 214.636 264.338 214.373C264.542 214.112 264.918 214.064 265.182 214.27L266.852 215.573C267.857 216.359 268.337 217.582 268.134 218.842C267.932 220.102 267.093 221.111 265.892 221.543C265.046 221.846 264.495 222.56 264.413 223.454C264.33 224.348 264.743 225.151 265.518 225.604L266.315 226.069C266.601 226.235 266.699 226.604 266.531 226.891C266.42 227.083 266.217 227.189 266.01 227.189Z" fill="#90BEC0"/>
<path d="M257.893 289.906H173.59C172.404 289.906 171.442 290.775 171.442 291.846C171.442 293.05 170.484 294.027 169.3 294.027H146.776C145.592 294.027 144.634 293.05 144.634 291.846C144.634 290.775 143.673 289.906 142.486 289.906H58.183C57.2125 289.906 56.425 290.617 56.425 291.493V292.962C56.425 297.502 60.5005 301.183 65.5315 301.183H250.544C255.574 301.183 259.651 297.502 259.651 292.962V291.493C259.651 290.617 258.864 289.906 257.893 289.906Z" fill="#90BEC0"/>
<path d="M250.543 302.38H65.5315C59.8495 302.38 55.2265 298.154 55.2265 292.961V291.494C55.2265 289.96 56.5525 288.71 58.1815 288.71H142.486C144.331 288.71 145.83 290.117 145.83 291.845C145.83 292.388 146.254 292.831 146.776 292.831H169.299C169.821 292.831 170.245 292.388 170.245 291.845C170.245 290.117 171.747 288.71 173.59 288.71H257.893C259.522 288.71 260.848 289.96 260.848 291.494V292.961C260.848 298.154 256.225 302.38 250.543 302.38ZM58.1815 291.103C57.85 291.103 57.6205 291.31 57.6205 291.494V292.961C57.6205 296.834 61.1695 299.986 65.5315 299.986H250.543C254.905 299.986 258.454 296.834 258.454 292.961V291.494C258.454 291.31 258.225 291.103 257.893 291.103H173.59C173.074 291.103 172.639 291.443 172.639 291.845C172.639 293.708 171.139 295.225 169.299 295.225H146.776C144.934 295.225 143.437 293.708 143.437 291.845C143.437 291.443 143.002 291.103 142.486 291.103H58.1815Z" fill="#6D9091"/>
<path d="M246.245 301.182H69.8305C67.3225 301.182 65.2885 299.148 65.2885 296.64V192.15C65.2885 189.642 67.3225 187.608 69.8305 187.608H246.245C248.753 187.608 250.787 189.642 250.787 192.15V296.64C250.787 299.148 248.753 301.182 246.245 301.182Z" fill="#D9F5F6"/>
<path d="M214.242 301.183L250.787 260.605V249.01L203.801 301.183H214.242Z" fill="#E6F8F9"/>
<path d="M164.064 301.183H179.727L250.788 222.28V205.324C250.291 205.618 249.819 205.965 249.412 206.416L164.064 301.183Z" fill="#E6F8F9"/>
<path d="M65.2875 256.843V270.369L139.822 187.608H127.642L65.2875 256.843Z" fill="#E6F8F9"/>
<path d="M65.2875 237.711L110.411 187.608H101.711L65.2875 228.049V237.711Z" fill="#E6F8F9"/>
<path d="M246.245 302.38H69.8305C66.6655 302.38 64.0915 299.804 64.0915 296.641V192.151C64.0915 188.987 66.6655 186.412 69.8305 186.412H246.245C249.409 186.412 251.984 188.987 251.984 192.151V296.641C251.984 299.804 249.409 302.38 246.245 302.38ZM69.8305 188.806C67.9855 188.806 66.484 190.306 66.484 192.151V296.641C66.484 298.486 67.9855 299.986 69.8305 299.986H246.245C248.09 299.986 249.59 298.486 249.59 296.641V192.151C249.59 190.306 248.09 188.806 246.245 188.806H69.8305Z" fill="#6D9091"/>
<path d="M149.998 253.579C149.993 253.736 149.943 253.891 149.845 254.027L143.777 262.333C143.638 262.525 143.419 262.644 143.182 262.661L135.034 263.215L133.731 265.703C133.525 266.097 133.038 266.247 132.644 266.04C132.251 265.833 132.1 265.349 132.305 264.954L133.819 262.069C133.948 261.823 134.197 261.66 134.477 261.64L142.697 261.08L148.544 253.078C148.806 252.718 149.309 252.64 149.669 252.902C149.892 253.065 150.007 253.322 149.998 253.579Z" fill="#6D9091"/>
<path d="M155.237 257.269C155.234 257.352 155.218 257.434 155.188 257.517L151.693 267.191C151.613 267.413 151.438 267.591 151.214 267.672L143.552 270.489L142.996 273.242C142.909 273.677 142.483 273.959 142.047 273.872C141.612 273.785 141.328 273.367 141.417 272.923L142.062 269.73C142.117 269.456 142.31 269.231 142.573 269.134L150.307 266.291L153.675 256.969C153.826 256.551 154.287 256.334 154.705 256.486C155.042 256.607 155.248 256.931 155.237 257.269Z" fill="#6D9091"/>
<path d="M167.789 273.152C167.788 273.191 167.785 273.232 167.778 273.272L167.292 275.905C167.212 276.342 166.793 276.632 166.356 276.552C165.919 276.472 165.629 276.055 165.709 275.615L166.104 273.463L158.684 267.727C158.454 267.552 158.335 267.267 158.379 266.978L159.586 258.375C159.648 257.934 160.054 257.627 160.495 257.689C160.935 257.751 161.235 258.152 161.182 258.598L160.039 266.739L167.477 272.489C167.684 272.649 167.797 272.897 167.789 273.152Z" fill="#6D9091"/>
<path d="M180.87 271.593C180.856 272.02 180.509 272.365 180.077 272.371C179.632 272.378 179.267 272.022 179.26 271.578L179.229 269.39L170.833 265.211C170.574 265.083 170.404 264.825 170.388 264.537L169.893 255.862C169.863 255.412 170.208 255.037 170.651 255.012C171.095 254.987 171.476 255.328 171.501 255.772L171.968 263.978L180.386 268.168C180.656 268.303 180.828 268.575 180.832 268.877L180.87 271.554C180.871 271.568 180.87 271.581 180.87 271.593Z" fill="#6D9091"/>
<path d="M149.812 236.347C149.804 236.581 149.696 236.81 149.497 236.963C149.143 237.234 148.639 237.165 148.368 236.812L142.35 228.937L134.118 228.555C133.84 228.543 133.588 228.385 133.452 228.141L131.875 225.29C131.657 224.903 131.801 224.411 132.19 224.196C132.58 223.981 133.069 224.121 133.285 224.511L134.643 226.967L142.798 227.347C143.036 227.359 143.258 227.472 143.402 227.661L149.648 235.833C149.765 235.987 149.817 236.169 149.812 236.347Z" fill="#6D9091"/>
<path d="M154.969 232.545C154.959 232.859 154.765 233.151 154.454 233.27C154.039 233.431 153.573 233.224 153.414 232.809L149.844 223.562L142.05 220.89C141.786 220.799 141.588 220.576 141.527 220.304L140.813 217.125C140.716 216.689 140.989 216.261 141.423 216.163C141.857 216.066 142.287 216.338 142.384 216.772L142.999 219.512L150.722 222.162C150.946 222.239 151.125 222.412 151.211 222.633L154.915 232.23C154.955 232.333 154.973 232.44 154.969 232.545Z" fill="#6D9091"/>
<path d="M167.177 216.392C167.17 216.623 167.064 216.845 166.879 216.994L159.565 222.904L160.883 231.017C160.956 231.46 160.655 231.871 160.218 231.941C159.779 232.013 159.365 231.715 159.293 231.276L157.902 222.701C157.854 222.413 157.965 222.128 158.19 221.946L165.485 216.05L165.042 213.908C164.954 213.472 165.232 213.047 165.668 212.957C166.104 212.868 166.53 213.147 166.62 213.583L167.161 216.204C167.174 216.268 167.179 216.329 167.177 216.392Z" fill="#6D9091"/>
<path d="M180.305 220.349C180.296 220.638 180.132 220.9 179.875 221.036L171.551 225.408L171.262 233.623C171.246 234.066 170.872 234.413 170.428 234.398C169.984 234.382 169.639 234.012 169.653 233.568L169.653 233.565L169.959 224.883C169.97 224.595 170.134 224.333 170.389 224.199L178.693 219.839L178.677 217.652C178.675 217.195 179.031 216.845 179.476 216.841C179.92 216.837 180.285 217.195 180.288 217.64L180.306 220.318C180.307 220.328 180.305 220.339 180.305 220.349Z" fill="#6D9091"/>
<path d="M144.377 235.91C150.011 235.83 154.635 239.827 154.707 244.841C154.779 249.854 150.271 253.982 144.638 254.063C139.005 254.143 134.38 250.145 134.308 245.132C134.236 240.119 138.744 235.991 144.377 235.91Z" fill="#8BEAED"/>
<path d="M155.123 245.229C154.963 250.287 150.352 254.402 144.644 254.483C138.789 254.567 133.963 250.375 133.887 245.138C133.844 239.908 138.517 235.574 144.372 235.49C150.226 235.405 155.053 239.597 155.128 244.834C155.13 244.967 155.127 245.099 155.123 245.229ZM134.731 244.769C134.727 244.887 134.726 245.006 134.728 245.126C134.797 249.899 139.238 253.72 144.631 253.642C150.024 253.566 154.368 249.637 154.288 244.845C154.219 240.072 149.776 236.253 144.383 236.329C139.126 236.405 134.877 240.157 134.731 244.769Z" fill="#6D9091"/>
<path d="M162.468 227.604C173.132 227.45 181.889 235.022 182.026 244.513C182.162 254.004 173.625 261.821 162.96 261.975C152.296 262.128 143.539 254.556 143.403 245.066C143.266 235.575 151.803 227.757 162.468 227.604Z" fill="#94FAFD"/>
<path d="M144.923 238.157C148.399 234.071 153.869 231.395 160.062 231.307C170.727 231.153 179.484 238.724 179.62 248.214C179.655 250.665 179.11 253 178.101 255.125C180.611 252.175 182.082 248.492 182.025 244.513C181.888 235.023 173.132 227.452 162.467 227.606C154.555 227.719 147.82 232.052 144.923 238.157Z" fill="#93CFD1"/>
<path d="M182.494 245.241C182.195 254.645 173.602 262.296 162.969 262.449C157.694 262.525 152.706 260.765 148.925 257.495C145.127 254.212 142.998 249.8 142.931 245.073C142.8 235.34 151.552 227.287 162.461 227.129C167.736 227.054 172.724 228.814 176.506 232.084C180.303 235.367 182.434 239.779 182.501 244.506C182.504 244.752 182.502 244.996 182.494 245.241ZM143.885 244.367C143.878 244.598 143.875 244.827 143.878 245.06C143.942 249.513 145.954 253.676 149.545 256.779C153.151 259.897 157.912 261.573 162.954 261.5C173.339 261.352 181.694 253.741 181.552 244.519C181.488 240.066 179.476 235.905 175.885 232.801C172.279 229.683 167.518 228.006 162.476 228.078C152.35 228.225 144.168 235.467 143.885 244.367Z" fill="#6D9091"/>
<path d="M135.522 248.71C135.518 248.823 135.474 248.932 135.39 249.018C133.799 250.653 132.197 250.09 131.572 249.565C131.374 249.398 131.352 249.106 131.516 248.912C131.68 248.717 131.97 248.69 132.166 248.853C132.287 248.951 133.374 249.761 134.725 248.373C134.904 248.189 135.198 248.184 135.381 248.362C135.479 248.457 135.526 248.584 135.522 248.71Z" fill="#6D9091"/>
<path d="M135.444 241.499C135.44 241.611 135.396 241.723 135.311 241.81C135.131 241.993 134.838 241.995 134.655 241.815C133.23 240.413 132.133 241.346 132.087 241.386C131.894 241.556 131.602 241.536 131.433 241.345C131.263 241.153 131.281 240.86 131.474 240.69C132.089 240.15 133.678 239.553 135.305 241.154C135.401 241.249 135.448 241.375 135.444 241.499Z" fill="#6D9091"/>
</svg>
