<svg width="619" height="619" viewBox="0 0 619 619" fill="none" xmlns="http://www.w3.org/2000/svg">
<path d="M278.352 536.23C278.224 536.23 278.1 536.229 277.973 536.229C277.845 536.229 277.722 536.23 277.594 536.23H278.352ZM462.989 497.574C440.142 475.105 286.375 479.126 277.973 479.363C269.57 479.126 115.804 475.105 92.9567 497.574C67.2176 522.887 120.858 536.207 277.973 536.229C435.087 536.207 488.729 522.887 462.989 497.574Z" fill="#44D5DA"/>
<path d="M295.97 519.905C127.637 519.905 59.608 469.894 93.8266 307.688C122.347 199.861 282.049 234.574 325.768 344.022C336.564 371.049 445.12 385.89 452.656 427.975C464.02 491.437 424.456 519.905 295.97 519.905Z" fill="#62E0E5"/>
<path d="M295.97 519.905C127.637 519.905 59.608 469.894 93.8266 307.688C93.8266 307.688 56.5753 454.772 214.239 483.672C225.748 485.783 338.741 500.378 358.374 485.508C363.039 476.792 285.203 455.799 282.339 457.403C314.63 438.808 362.175 388.848 420.173 394.124C427.429 397.418 450.747 411.776 452.656 427.975C464.02 491.437 424.456 519.905 295.97 519.905Z" fill="#41C8CD"/>
<path d="M183.451 434.217C183.451 434.217 147.768 410.274 142.17 353.848C136.573 297.423 175.307 269.898 202.295 286.757C229.282 303.615 232.078 444.398 183.451 434.217V434.217Z" fill="#41C8CD"/>
<path d="M509.064 469.888C515.248 472.066 517.446 474.926 521.257 475.834C527.459 477.314 530.97 473.598 529.822 450.335C530.062 431.231 533.466 426.276 528.107 426.164C523.063 427.128 529.462 434.98 512.747 449.479C512.747 449.479 500.522 466.878 509.064 469.888Z" fill="#BDF5F7"/>
<path d="M520.832 440.354C520.832 440.354 518.105 449.391 529.804 455.809C529.626 471.228 528.8 475.385 523.069 475.997C524.16 480.826 532.228 483.906 533.179 460.223C533.873 442.929 534.806 429.401 530.43 424.856C526.056 420.306 520.832 440.355 520.832 440.355V440.354ZM219.334 242.374C248.331 240.193 285.128 250.222 308.524 266.697C325.991 278.995 335.571 288.434 327.412 295.964C316.406 304.608 306.939 310.279 298.967 315.972C311.82 346.875 330.939 386.723 330.939 386.723C330.939 386.723 271.134 369.259 163.984 389.722C135.564 245.787 219.334 242.374 219.334 242.374Z" fill="#44D5DA"/>
<path d="M480.976 501.667C483.355 505.603 484.624 510.654 487.324 513.4C491.761 517.914 496.382 517.512 510.026 498.48C522.166 483.559 529.647 483.417 525.493 480.086C520.674 476.744 516.383 486.159 497.098 487.473C497.098 487.473 476.348 494.012 480.976 501.667Z" fill="#BDF5F7"/>
<path d="M179.123 423.294C216.649 403.978 295.673 380.709 333.388 386.355C395.057 395.59 446.441 420.774 513.743 447.524C520.794 458.969 508.814 471.746 508.814 471.746C508.814 471.746 479.177 468.406 435.761 453.624C457.685 465.15 501.117 486.933 501.117 486.933C494.904 497.503 481.917 503.991 481.917 503.991L327.099 454.382C309.796 455.585 294.681 456.782 282.34 457.403C281.696 457.435 282.934 457.617 282.34 457.403C224.84 436.713 196.653 435.988 186.896 434.587C185.614 434.404 184.098 434.483 183.451 434.217C181.464 430.808 180.005 427.126 179.123 423.294Z" fill="#259296"/>
<path d="M435.761 453.624C418.448 443.885 330.884 405.644 309.954 401.579C301.292 400.08 368.013 407.991 397.779 424.368C414.216 433.41 448.912 453.291 505.447 464.763C505.447 464.763 512.798 460.688 513.743 447.524C520.584 457.955 510.867 470.353 508.814 471.746C471.796 468.803 435.761 453.624 435.761 453.624Z" fill="#23696C"/>
<path d="M333.388 386.355C333.388 386.355 245.541 398.693 214.869 427.448C215.192 450.826 348.496 440.088 348.496 440.088C348.496 440.088 479.139 490.778 482.701 494.04C492.829 492.148 501.117 486.933 501.117 486.933C501.117 486.933 494.858 499.111 481.917 503.99L327.099 454.382C327.099 454.382 306.691 456.257 282.34 457.403C248.953 446.351 223.679 438.382 183.451 434.217C180.028 428.142 179.123 423.294 179.123 423.294C179.123 423.294 235.446 394.496 333.388 386.355Z" fill="#23696C"/>
<path d="M158.116 333.049C158.116 333.049 161.72 339.428 171.443 336.904C215.867 332.94 220.06 317.807 220.06 317.807C220.06 317.807 227.767 299.61 219.274 267.137C216.478 252.974 241.785 293.517 229.185 331.135C215.819 371.041 316.899 356.917 316.899 356.917L333.388 386.355C333.388 386.355 249.412 391.828 179.123 423.293C179.123 423.293 156.446 397.248 158.116 333.049Z" fill="#28BBC1"/>
<path d="M241.072 215.512C241.072 215.512 240.618 235.723 234.171 242.678C234.171 242.678 235.931 268.92 246.886 268.2C261.59 267.233 254.529 245.24 254.529 245.24L255.946 226.119L241.072 215.512Z" fill="#90E4E7"/>
<path d="M295.187 307.689C295.187 307.689 286.017 289.419 270.289 261.645C266.224 258.427 278.577 266.065 295.66 295.005C298.537 289.218 320.68 280.586 327.627 283.189C331.816 288.784 330.006 292.198 330.006 292.198C328.037 297.568 316.727 300.632 295.187 307.689Z" fill="#28BBC1"/>
<path d="M169.346 297.015C174.554 272.415 189.353 260.295 200.849 254.459C201.257 254.252 201.703 254.126 202.161 254.088C202.619 254.05 203.08 254.102 203.518 254.239C203.955 254.376 204.361 254.597 204.712 254.889C205.063 255.18 205.352 255.537 205.563 255.939C205.774 256.34 205.902 256.779 205.941 257.229C205.979 257.679 205.927 258.132 205.788 258.563C205.648 258.993 205.423 259.393 205.127 259.738C204.83 260.083 204.467 260.367 204.059 260.575C189.301 268.065 179.927 280.798 176.195 298.418C176.006 299.311 175.464 300.094 174.688 300.594C173.912 301.094 172.966 301.271 172.058 301.085C171.149 300.899 170.353 300.365 169.845 299.602C169.336 298.839 169.157 297.908 169.346 297.015ZM215.54 249.091C217.37 248.652 219.218 248.29 221.079 248.005C221.535 247.933 222.001 247.949 222.45 248.055C222.899 248.16 223.323 248.351 223.696 248.618C224.07 248.885 224.386 249.222 224.626 249.61C224.867 249.998 225.027 250.428 225.097 250.877C225.168 251.326 225.147 251.784 225.037 252.225C224.926 252.666 224.728 253.081 224.454 253.446C224.179 253.811 223.834 254.12 223.438 254.353C223.042 254.587 222.603 254.741 222.146 254.806C220.484 255.061 218.834 255.385 217.2 255.777C217.145 255.79 217.09 255.802 217.035 255.812C216.137 255.985 215.206 255.806 214.441 255.312C213.677 254.818 213.139 254.05 212.944 253.171C212.748 252.292 212.911 251.373 213.396 250.61C213.881 249.848 214.651 249.302 215.54 249.091Z" fill="#A5F3F6"/>
<path d="M510.006 485.473C510.006 485.473 502.031 490.703 506.851 502.995C496.682 514.734 493.341 517.408 488.539 514.272C486.237 518.669 490.433 526.115 506.572 508.511C518.356 495.658 527.872 485.849 527.467 479.597C527.065 473.351 510.006 485.473 510.006 485.473Z" fill="#44D5DA"/>
<path d="M414.527 413.826C415.73 413.475 416.434 412.934 416.424 411.982L416.418 411.468C416.373 410.96 416.161 410.481 415.814 410.102C415.468 409.724 415.005 409.466 414.496 409.37L361.478 399.013L257.051 420.813L310.068 431.171C311.119 431.376 313.344 433.669 310.9 435.135L414.527 413.826Z" fill="#D6E2E2"/>
<path d="M417.947 409.623C417.698 411.301 415.923 412.995 413.986 413.406L315.095 434.336C313.535 434.636 309.643 431.937 310.234 427.67L319.631 364.619C319.882 362.943 321.657 361.248 323.594 360.84L425.025 339.349C426.962 338.938 428.331 339.966 428.084 341.644L417.947 409.623Z" fill="#5CE1E6"/>
<path d="M419.189 409.364C418.939 411.041 417.166 412.733 415.229 413.144L316.189 434.125C314.25 434.536 312.881 433.509 313.131 431.831L323.265 363.85C323.513 362.174 325.287 360.479 327.227 360.069L426.267 339.085C428.203 338.675 429.573 339.702 429.321 341.381L419.189 409.364Z" fill="#D6E2E2"/>
<path d="M311.99 433.27C311.945 432.762 311.733 432.283 311.387 431.904C311.04 431.525 310.577 431.268 310.068 431.171L257.051 420.814C256 420.607 255.161 421.217 255.17 422.171L255.175 422.683C255.22 423.19 255.432 423.669 255.779 424.048C256.126 424.427 256.588 424.684 257.097 424.782L310.116 435.139C311.165 435.341 312.006 434.736 311.996 433.78L311.99 433.27Z" fill="#5CE1E6"/>
<path d="M285.713 390.995C269.595 370.53 216.388 338.75 216.388 338.75L216.904 314.273C216.904 314.273 194.154 298.083 166.018 316.991C164.053 348.736 170.965 360.642 174.238 363.881C180.413 369.995 235.47 382.919 273.338 397.931C273.338 397.931 278.292 403.008 283.359 404.715C289.682 406.84 286.786 415.349 290.492 417.031C291.56 417.428 292.131 411.576 290.495 406.491C294.804 407.923 296.043 418.188 299.814 417.743C300.258 413.973 298.543 408.248 294.401 404.751C300.292 406.937 304.523 416.42 307.482 415.346C308.385 410.961 297.768 402.281 298.034 402.421C300.282 403.607 306.183 409.03 308.757 408.888C312.186 408.697 302.91 400.776 292.791 395.308C301.466 397.189 299.28 391.363 299.28 391.363C299.28 391.363 291.255 390.84 285.713 390.995Z" fill="#BDF5F7"/>
<path d="M166.018 316.991C166.018 316.991 191.234 297.977 216.904 314.273L216.807 318.884C216.807 318.884 195.752 311.683 181.009 326.257C178.364 341.456 183.3 355.32 190.111 359.498C196.922 363.677 274.377 395.483 274.377 395.483C274.377 395.483 278.217 401.543 283.359 404.715C283.359 404.715 279.753 404.053 273.338 397.931L221.617 380.531C221.617 380.531 178.845 369.43 174.238 363.881C169.632 358.331 164.356 346.728 166.018 316.991Z" fill="#A7F0F3"/>
<path d="M295.082 177.387C295.1 178.887 308.637 252.961 270.903 253.397C237.749 253.78 236.965 217.294 236.965 217.294C236.965 217.294 221.976 218.373 221.786 206.635C221.584 194.21 236.729 197.558 236.729 197.558C236.729 197.558 232.156 162.853 258.869 158.229C291.523 152.577 295.082 177.387 295.082 177.387V177.387Z" fill="#BDF5F7"/>
<path d="M292.457 237.817C288.569 246.862 281.922 253.27 270.903 253.396C237.749 253.78 236.965 217.293 236.965 217.293C236.965 217.293 239.833 233.564 250.339 242.235C263.866 253.4 279.407 254.082 292.457 237.817Z" fill="#A7F0F3"/>
<path d="M280.187 221.949C282.788 221.918 284.585 221.095 285.541 219.486C288.937 213.774 279.65 200.08 279.252 199.5C279.202 199.423 279.136 199.357 279.059 199.306C278.983 199.254 278.896 199.218 278.805 199.2C278.714 199.182 278.62 199.181 278.529 199.199C278.438 199.217 278.351 199.252 278.274 199.304C278.197 199.355 278.131 199.42 278.08 199.497C278.029 199.573 277.994 199.659 277.977 199.749C277.96 199.839 277.961 199.931 277.981 200.02C278.001 200.11 278.039 200.194 278.092 200.269C280.659 204.023 286.787 214.668 284.332 218.791C283.518 220.162 281.722 220.747 278.984 220.529C278.799 220.516 278.617 220.575 278.477 220.693C278.336 220.811 278.249 220.979 278.234 221.161C278.22 221.342 278.278 221.521 278.397 221.66C278.516 221.799 278.687 221.886 278.871 221.902C279.33 221.938 279.771 221.955 280.187 221.949Z" fill="#86E5E9"/>
<path d="M269.464 192.887C270.871 191.665 263.236 185.698 258.487 191.768C264.45 188.884 268.838 193.431 269.464 192.887ZM286.795 192.384C285.242 190.806 291.859 186.186 295.94 191.253C290.815 188.971 287.281 192.875 286.795 192.384Z" fill="#256D70"/>
<path d="M241.788 157.692C221.639 155.156 223.84 188.078 233.292 197.272C234.443 197.299 235.59 197.395 236.729 197.558C236.729 197.558 237.786 203.516 240.244 204.176C242.7 204.835 244.428 173.675 244.428 173.675C244.428 173.675 305.426 183.811 315.478 161.329C319.559 151.476 306.29 160.582 296.914 160.167C296.914 160.167 315.57 142.122 292.3 150.648C277.79 155.054 271.414 148.701 256.485 148.419C242.374 148.152 241.788 157.692 241.788 157.692Z" fill="#256D70"/>
<path d="M232.121 212.281C232.121 212.281 232.858 207.292 237.254 210.306C238.973 205.773 234.946 200.116 229.921 202.945C224.894 205.773 227.293 212.5 232.121 212.281Z" fill="#A7F0F3"/>
<path d="M287.474 200.167C287.516 200.808 287.75 201.423 288.148 201.933C288.545 202.443 289.087 202.826 289.705 203.033C290.324 203.24 290.991 203.262 291.622 203.096C292.253 202.93 292.82 202.584 293.251 202.101C293.682 201.619 293.958 201.021 294.044 200.384C294.13 199.747 294.021 199.1 293.733 198.523C293.445 197.947 292.989 197.468 292.423 197.146C291.858 196.824 291.208 196.675 290.556 196.716C289.682 196.772 288.866 197.167 288.288 197.814C287.71 198.461 287.417 199.308 287.474 200.167Z" fill="#256D70"/>
<path d="M291.118 199.142C291.128 199.298 291.185 199.447 291.281 199.571C291.378 199.695 291.509 199.788 291.659 199.838C291.809 199.889 291.971 199.894 292.124 199.854C292.277 199.814 292.415 199.731 292.52 199.614C292.625 199.497 292.692 199.352 292.713 199.197C292.734 199.043 292.708 198.886 292.639 198.746C292.569 198.606 292.458 198.489 292.321 198.411C292.184 198.332 292.027 198.296 291.869 198.305C291.763 198.312 291.66 198.338 291.566 198.384C291.471 198.429 291.387 198.493 291.317 198.571C291.247 198.648 291.194 198.739 291.16 198.837C291.126 198.935 291.111 199.039 291.118 199.142Z" fill="white"/>
<path d="M261.02 201.847C261.065 202.53 261.315 203.185 261.738 203.729C262.162 204.273 262.74 204.681 263.399 204.901C264.058 205.122 264.769 205.146 265.442 204.969C266.115 204.792 266.719 204.423 267.179 203.909C267.638 203.394 267.933 202.757 268.024 202.078C268.115 201.399 268 200.709 267.692 200.094C267.385 199.48 266.899 198.969 266.296 198.626C265.693 198.283 265 198.124 264.305 198.168C263.374 198.228 262.504 198.649 261.888 199.339C261.272 200.028 260.96 200.931 261.02 201.847Z" fill="#256D70"/>
<path d="M264.905 200.757C264.916 200.923 264.977 201.082 265.08 201.214C265.182 201.346 265.323 201.445 265.483 201.499C265.643 201.552 265.816 201.558 265.979 201.515C266.143 201.472 266.29 201.383 266.401 201.258C266.513 201.133 266.585 200.978 266.607 200.813C266.629 200.648 266.601 200.48 266.527 200.331C266.452 200.182 266.334 200.057 266.188 199.974C266.042 199.89 265.873 199.851 265.704 199.862C265.592 199.869 265.482 199.898 265.381 199.946C265.28 199.995 265.19 200.063 265.116 200.146C265.041 200.229 264.984 200.326 264.948 200.431C264.912 200.535 264.897 200.646 264.905 200.757Z" fill="white"/>
<path d="M250.564 199.288C250.665 202.605 252.032 205.763 254.392 208.134C256.752 210.505 259.933 211.916 263.303 212.086C266.672 212.257 269.983 211.174 272.578 209.053C275.173 206.932 276.862 203.929 277.308 200.64C279.662 199.269 280.949 200.395 281.206 200.67C281.881 203.893 283.81 206.73 286.581 208.575C289.352 210.42 292.747 211.126 296.04 210.545C299.334 209.963 302.266 208.139 304.212 205.461C306.157 202.784 306.962 199.464 306.454 196.211C305.947 192.958 304.167 190.029 301.494 188.049C298.822 186.068 295.468 185.193 292.148 185.609C288.829 186.026 285.806 187.702 283.725 190.279C281.644 192.856 280.67 196.131 281.009 199.405C280.233 199.019 279.018 198.775 277.409 199.522C277.499 197.782 277.239 196.042 276.642 194.401C276.046 192.761 275.125 191.253 273.934 189.963C272.742 188.674 271.303 187.629 269.7 186.889C268.096 186.149 266.359 185.728 264.589 185.65C262.82 185.572 261.052 185.84 259.387 186.437C257.723 187.034 256.195 187.949 254.892 189.129C253.588 190.309 252.535 191.731 251.793 193.312C251.05 194.894 250.633 196.605 250.566 198.346L236.223 196.285L236.087 197.21L250.564 199.288ZM282.104 200.357C281.503 197.313 282.156 194.159 283.92 191.589C285.683 189.019 288.412 187.243 291.507 186.652C294.602 186.061 297.809 186.704 300.422 188.438C303.035 190.172 304.841 192.857 305.442 195.9C305.492 196.158 305.52 196.416 305.553 196.673L297.174 195.592L297.05 196.516L305.635 197.624C305.766 200.571 304.759 203.457 302.816 205.704C300.873 207.951 298.138 209.393 295.16 209.738C292.181 210.084 289.18 209.309 286.758 207.569C284.337 205.829 282.674 203.252 282.104 200.357ZM251.72 201.224C251.249 198.837 251.508 196.366 252.464 194.124C253.421 191.882 255.032 189.97 257.094 188.628C259.156 187.286 261.576 186.576 264.048 186.588C266.52 186.599 268.933 187.331 270.983 188.691C273.032 190.051 274.625 191.978 275.561 194.228C276.497 196.479 276.733 198.952 276.239 201.334C275.746 203.717 274.545 205.902 272.789 207.613C271.033 209.324 268.8 210.485 266.373 210.949C263.119 211.566 259.749 210.889 257.002 209.065C254.255 207.242 252.355 204.422 251.72 201.224Z" fill="#256D70"/>
<path d="M199.259 445.193C197.805 445.001 197.384 444.961 196.503 444.874L195.224 444.746C194.767 444.699 194.306 444.74 193.865 444.869C193.425 444.997 193.014 445.209 192.657 445.493C192.3 445.778 192.003 446.128 191.784 446.525C191.565 446.922 191.427 447.358 191.379 447.807C191.331 448.256 191.373 448.711 191.504 449.144C191.634 449.577 191.85 449.981 192.139 450.332C192.428 450.683 192.784 450.975 193.188 451.19C193.592 451.406 194.035 451.541 194.491 451.589L195.809 451.72C196.615 451.801 197.002 451.84 198.333 452.014C198.789 452.073 199.252 452.044 199.696 451.928C200.14 451.812 200.556 451.611 200.921 451.337C201.286 451.062 201.592 450.72 201.823 450.329C202.053 449.938 202.203 449.506 202.264 449.059C202.325 448.611 202.295 448.155 202.177 447.719C202.059 447.282 201.855 446.873 201.576 446.514C201.296 446.155 200.948 445.853 200.551 445.627C200.153 445.4 199.714 445.253 199.259 445.193ZM261.528 460.637C260.663 460.297 240.084 452.247 213.3 447.35C212.393 447.196 211.461 447.399 210.706 447.916C209.95 448.433 209.433 449.222 209.264 450.112C209.096 451.002 209.291 451.921 209.807 452.67C210.324 453.419 211.119 453.939 212.022 454.115C228.009 457.062 243.703 461.382 258.923 467.025C259.784 467.361 260.745 467.348 261.595 466.988C262.446 466.629 263.117 465.952 263.462 465.107C263.806 464.262 263.796 463.317 263.434 462.479C263.071 461.641 262.386 460.979 261.528 460.637Z" fill="#8DEDF1"/>
<path d="M271.944 234.365C271.941 231.564 273.398 230.04 275.996 229.145C278.935 228.131 282.452 229.456 282.612 229.508C282.682 229.531 284.632 230.138 285.316 228.339C285.343 228.288 285.381 228.244 285.427 228.21C285.473 228.175 285.526 228.15 285.583 228.137C285.639 228.124 285.698 228.122 285.755 228.133C285.812 228.144 285.866 228.167 285.914 228.2C286.012 228.26 286.082 228.356 286.108 228.467C286.134 228.577 286.114 228.694 286.053 228.79C285.664 229.43 285.036 229.895 284.304 230.086C283.744 230.276 283.143 230.32 282.561 230.214C282.224 235.972 279.12 237.894 277.64 238.286C275.986 238.728 271.949 238.544 271.944 234.365Z" fill="#256D70"/>
<path d="M281.687 231.993C275.308 231.571 275.313 231.506 273.618 231.303C274.821 229.564 278.517 228.927 281.994 230.117C281.927 230.747 281.824 231.373 281.687 231.993Z" fill="white"/>
<path d="M279.404 236.527C279.404 236.527 277.098 232.563 272.59 234.827C272.46 237.16 276.432 239.251 279.404 236.527Z" fill="#73E9ED"/>
<path d="M276.183 242.608C276.183 242.608 272.882 242.345 270.633 239.971C269.247 243.283 272.713 245.94 276.183 242.608Z" fill="#A7F0F3"/>
<path d="M326.255 289.535L319.345 291.108C319.345 291.108 300.038 284.129 288.206 259.452L288.231 259.425C288.231 259.425 286.3 256.557 287.34 251.658C288.282 247.223 293.399 243.808 291.682 242.896C288.929 241.052 283.475 247.755 283.475 247.755C280.664 250.448 278.678 252.747 274.309 252.576C260.654 248.024 256.063 249.226 256.988 252.369C261.822 253.867 265.035 255.136 267.311 256.54C265.341 255.608 262.789 254.646 261.752 255.329C260.505 256.15 260.594 257.887 261.729 259.179C260.475 260.059 260.693 262.915 262.758 263.902C262.584 265.794 263.37 267.791 265.994 268.082C268.618 268.375 274.308 267.868 275.432 272.289C278.587 285.161 285.381 311.851 291.918 330.834C303.814 365.377 335.125 369.221 340.772 345.648C347.544 317.38 326.255 289.535 326.255 289.535Z" fill="#BDF5F7"/>
<path d="M319.345 291.107C319.345 291.107 332.918 301.081 336.766 308.715C333.649 299.576 326.255 289.534 326.255 289.534L319.345 291.107ZM275.159 271.494C275.159 271.494 286.081 303.861 295.698 328.201C305.315 352.541 328.347 360.054 341.177 343.77C339.592 357.449 328.698 364.496 313.715 358.293C305.325 354.819 296.663 347.271 290.226 325.772C283.79 304.273 275.159 271.494 275.159 271.494Z" fill="#A7F0F3"/>
<path d="M435.744 154.453C428.752 150.795 420.659 149.724 412.932 151.431C405.205 153.139 398.356 157.514 393.627 163.761C388.898 170.009 386.603 177.717 387.157 185.486C387.71 193.256 391.077 200.573 396.646 206.111L394.775 209.571L412.162 218.668L414.034 215.208C421.816 216.654 429.866 215.31 436.727 211.42C443.588 207.53 448.804 201.351 451.429 194.003C454.055 186.655 453.916 178.625 451.039 171.369C448.161 164.113 442.735 158.112 435.744 154.453Z" fill="#44D5DA"/>
<path d="M394.552 213.385C394.187 213.197 393.787 213.081 393.377 213.046C392.966 213.01 392.552 213.055 392.159 213.178C391.766 213.3 391.402 213.498 391.087 213.76C390.773 214.022 390.514 214.342 390.325 214.703C390.137 215.064 390.023 215.457 389.991 215.861C389.958 216.266 390.007 216.672 390.135 217.057C390.263 217.443 390.467 217.8 390.735 218.107C391.004 218.414 391.332 218.666 391.7 218.849L406.18 226.162C406.545 226.351 406.945 226.468 407.357 226.504C407.768 226.541 408.183 226.497 408.576 226.374C408.97 226.252 409.336 226.054 409.651 225.792C409.967 225.53 410.227 225.209 410.415 224.848C410.604 224.487 410.718 224.092 410.751 223.687C410.783 223.282 410.734 222.875 410.605 222.489C410.477 222.103 410.271 221.746 410.002 221.438C409.732 221.131 409.403 220.879 409.033 220.697L394.552 213.385ZM390.825 220.523C390.088 220.151 389.231 220.082 388.443 220.331C387.654 220.58 386.999 221.128 386.62 221.852C386.242 222.577 386.172 223.419 386.425 224.195C386.679 224.97 387.235 225.615 387.972 225.987L402.452 233.302C403.189 233.674 404.046 233.743 404.835 233.493C405.623 233.244 406.279 232.697 406.657 231.973C407.035 231.248 407.105 230.405 406.852 229.63C406.598 228.854 406.042 228.21 405.305 227.838L390.825 220.523Z" fill="#28BBC1"/>
<path d="M379.994 166.134L373.344 162.655C373.073 162.517 372.832 162.327 372.636 162.097C372.44 161.867 372.292 161.601 372.201 161.314C372.11 161.028 372.078 160.726 372.106 160.427C372.135 160.128 372.223 159.837 372.366 159.572C372.51 159.307 372.705 159.072 372.941 158.882C373.177 158.692 373.45 158.549 373.742 158.463C374.035 158.377 374.342 158.348 374.645 158.38C374.949 158.411 375.243 158.501 375.511 158.645L382.163 162.125C382.432 162.264 382.67 162.454 382.864 162.684C383.058 162.915 383.204 163.18 383.294 163.466C383.383 163.752 383.415 164.052 383.386 164.35C383.357 164.647 383.268 164.937 383.125 165.201C382.983 165.465 382.788 165.698 382.553 165.888C382.318 166.078 382.048 166.22 381.757 166.307C381.466 166.394 381.16 166.423 380.858 166.393C380.555 166.363 380.261 166.275 379.994 166.134ZM366.802 201.773C366.39 201.557 366.054 201.224 365.838 200.817C365.623 200.41 365.537 199.948 365.594 199.493C365.65 199.037 365.846 198.609 366.155 198.265C366.464 197.921 366.871 197.677 367.324 197.565L377.015 195.17C377.309 195.098 377.614 195.082 377.914 195.126C378.214 195.169 378.503 195.271 378.763 195.424C379.023 195.577 379.25 195.779 379.431 196.018C379.612 196.257 379.743 196.529 379.817 196.818C379.891 197.108 379.906 197.408 379.862 197.703C379.818 197.998 379.715 198.282 379.559 198.538C379.404 198.794 379.198 199.017 378.955 199.195C378.711 199.373 378.435 199.502 378.141 199.574L368.449 201.97C367.894 202.107 367.307 202.037 366.802 201.773ZM405.931 145.116C405.663 144.976 405.426 144.786 405.233 144.556C405.04 144.326 404.895 144.06 404.807 143.775L402.403 136.037C402.227 135.461 402.289 134.841 402.577 134.311C402.865 133.781 403.355 133.385 403.939 133.21C404.523 133.034 405.154 133.093 405.694 133.374C406.234 133.655 406.639 134.134 406.82 134.708L409.224 142.448C409.358 142.878 409.359 143.337 409.227 143.767C409.096 144.197 408.837 144.58 408.484 144.865C408.132 145.151 407.701 145.327 407.246 145.372C406.792 145.416 406.334 145.327 405.931 145.116ZM438.945 148.637C438.404 148.355 438 147.872 437.822 147.296C437.643 146.72 437.704 146.098 437.991 145.567L441.855 138.423C441.998 138.16 442.191 137.927 442.425 137.737C442.659 137.547 442.929 137.405 443.219 137.317C443.509 137.23 443.814 137.2 444.116 137.229C444.417 137.257 444.711 137.344 444.978 137.484C445.246 137.624 445.483 137.815 445.676 138.045C445.869 138.275 446.014 138.54 446.103 138.826C446.191 139.111 446.222 139.41 446.193 139.707C446.164 140.004 446.075 140.292 445.933 140.556L442.068 147.699C441.926 147.962 441.732 148.195 441.498 148.385C441.264 148.575 440.995 148.717 440.704 148.804C440.414 148.892 440.11 148.922 439.808 148.893C439.506 148.864 439.213 148.778 438.945 148.637ZM463.199 209.666L456.549 206.186C456.278 206.048 456.038 205.858 455.842 205.628C455.646 205.398 455.499 205.132 455.408 204.845C455.318 204.559 455.286 204.257 455.315 203.959C455.343 203.66 455.432 203.37 455.575 203.105C455.719 202.84 455.914 202.606 456.15 202.416C456.386 202.225 456.658 202.083 456.95 201.997C457.242 201.911 457.549 201.882 457.852 201.913C458.156 201.945 458.45 202.034 458.718 202.178L465.368 205.656C465.909 205.939 466.313 206.422 466.492 206.998C466.671 207.574 466.61 208.196 466.323 208.728C466.035 209.26 465.544 209.657 464.959 209.833C464.373 210.009 463.74 209.949 463.199 209.667V209.666ZM433.868 236.862C433.363 236.597 432.976 236.158 432.782 235.629L429.386 226.386C429.276 226.104 429.225 225.804 429.236 225.503C429.246 225.201 429.317 224.905 429.444 224.631C429.572 224.356 429.754 224.11 429.98 223.906C430.206 223.702 430.47 223.544 430.759 223.441C431.047 223.339 431.354 223.294 431.66 223.309C431.966 223.324 432.266 223.399 432.543 223.529C432.819 223.66 433.066 223.843 433.27 224.069C433.474 224.294 433.63 224.557 433.729 224.842L437.125 234.086C437.284 234.517 437.306 234.986 437.188 235.431C437.07 235.875 436.818 236.273 436.465 236.574C436.113 236.875 435.676 237.063 435.212 237.114C434.748 237.166 434.279 237.077 433.867 236.861L433.868 236.862ZM459.776 173.289C459.373 173.077 459.043 172.754 458.827 172.358C458.611 171.962 458.519 171.512 458.563 171.065C458.607 170.618 458.785 170.194 459.074 169.846C459.363 169.498 459.75 169.243 460.187 169.112L468.055 166.747C468.345 166.66 468.65 166.63 468.952 166.659C469.253 166.688 469.547 166.774 469.814 166.915C470.082 167.055 470.319 167.245 470.512 167.475C470.704 167.706 470.849 167.971 470.938 168.256C471.026 168.541 471.057 168.841 471.028 169.138C470.998 169.434 470.91 169.723 470.768 169.986C470.625 170.249 470.431 170.482 470.197 170.672C469.963 170.861 469.694 171.004 469.404 171.091L461.536 173.456C460.95 173.631 460.317 173.571 459.776 173.289Z" fill="#D6E2E2"/>
<path d="M415.507 189.516L418.963 183.126C419.647 181.862 419.934 180.427 419.789 179.003C419.643 177.579 419.071 176.229 418.146 175.124C417.22 174.019 415.982 173.209 414.588 172.796C413.194 172.383 411.708 172.386 410.315 172.805C408.923 173.223 407.689 174.038 406.767 175.146C405.846 176.254 405.28 177.606 405.14 179.031C405 180.456 405.293 181.89 405.981 183.151C406.67 184.412 407.723 185.444 409.008 186.117L411.43 187.384L398.502 211.532L402.58 213.663L415.507 189.515L415.507 189.516ZM414.887 180.992L413.599 183.372L411.178 182.106C410.699 181.855 410.307 181.471 410.051 181.001C409.795 180.531 409.686 179.997 409.738 179.467C409.791 178.936 410.002 178.432 410.345 178.02C410.688 177.607 411.148 177.304 411.666 177.148C412.185 176.993 412.739 176.992 413.258 177.145C413.777 177.299 414.238 177.601 414.582 178.012C414.927 178.424 415.14 178.927 415.194 179.457C415.248 179.987 415.141 180.522 414.887 180.992ZM430.998 181.224C429.274 180.325 427.258 180.134 425.392 180.694C423.525 181.255 421.961 182.52 421.042 184.213L418.67 188.599L404.659 214.752L408.737 216.886L421.662 192.737L424.083 194.004C425.806 194.906 427.823 195.097 429.69 194.536C431.557 193.976 433.121 192.709 434.038 191.014C434.955 189.319 435.149 187.336 434.579 185.5C434.009 183.664 432.721 182.126 430.998 181.224V181.224ZM429.96 188.878C429.619 189.509 429.037 189.982 428.341 190.191C427.646 190.4 426.895 190.329 426.253 189.994L423.832 188.727L425.12 186.346C425.465 185.721 426.047 185.255 426.739 185.05C427.432 184.845 428.178 184.918 428.817 185.252C429.455 185.586 429.933 186.154 430.147 186.833C430.361 187.513 430.295 188.247 429.96 188.878Z" fill="white"/>
<path d="M98.6439 134.723C98.644 144.999 101.742 155.043 107.547 163.587C113.352 172.13 121.602 178.789 131.255 182.721C140.908 186.653 151.53 187.682 161.777 185.677C172.024 183.673 181.437 178.724 188.825 171.459C196.213 164.193 201.244 154.936 203.282 144.858C205.32 134.78 204.274 124.334 200.276 114.841C196.277 105.348 189.506 97.2338 180.819 91.5252C172.131 85.8167 161.918 82.7699 151.47 82.77C137.459 82.7705 124.023 88.2443 114.116 97.9873C104.21 107.73 98.644 120.945 98.6439 134.723Z" fill="#23696C"/>
<path d="M153.253 176.882C176.929 175.913 195.323 156.253 194.338 132.969C193.353 109.686 173.362 91.5961 149.687 92.5647C126.012 93.5332 107.618 113.193 108.603 136.477C109.588 159.76 129.578 177.85 153.253 176.882Z" fill="white"/>
<path d="M185.329 148.516C193.075 130.125 184.195 109.041 165.495 101.423C146.794 93.8051 125.355 102.538 117.609 120.93C109.864 139.321 118.744 160.405 137.444 168.023C156.145 175.641 177.584 166.907 185.329 148.516Z" fill="#259296"/>
<path d="M151.47 137.754H175.363C175.979 137.754 176.571 137.514 177.007 137.085C177.443 136.656 177.688 136.074 177.688 135.468C177.688 134.861 177.443 134.279 177.007 133.85C176.571 133.422 175.979 133.181 175.363 133.181H153.797L153.8 106.263C153.806 105.96 153.75 105.657 153.636 105.375C153.522 105.093 153.351 104.835 153.135 104.618C152.919 104.401 152.66 104.229 152.375 104.111C152.09 103.994 151.784 103.933 151.475 103.933C151.166 103.933 150.86 103.994 150.575 104.111C150.29 104.229 150.032 104.401 149.815 104.618C149.599 104.835 149.429 105.093 149.314 105.375C149.2 105.657 149.144 105.96 149.15 106.263L149.145 135.466C149.145 136.073 149.39 136.655 149.826 137.084C150.262 137.513 150.853 137.754 151.47 137.754Z" fill="white"/>
</svg>
